<svg width="23" height="23" viewBox="0 0 23 23" fill="none" xmlns="http://www.w3.org/2000/svg">
<path d="M10.5 0.57735C11.1188 0.220085 11.8812 0.220085 12.5 0.57735L20.4593 5.17265C21.0781 5.52992 21.4593 6.19017 21.4593 6.9047V16.0953C21.4593 16.8098 21.0781 17.4701 20.4593 17.8274L12.5 22.4226C11.8812 22.7799 11.1188 22.7799 10.5 22.4226L2.54071 17.8274C1.92191 17.4701 1.54071 16.8098 1.54071 16.0953V6.9047C1.54071 6.19017 1.92191 5.52992 2.54071 5.17265L10.5 0.57735Z" fill="#FF008A"/>
<path d="M10.875 3.16364C11.2617 2.94035 11.7382 2.94035 12.125 3.16364L18.4069 6.79052C18.7937 7.01381 19.0319 7.42646 19.0319 7.87305V15.1268C19.0319 15.5734 18.7937 15.986 18.4069 16.2093L12.125 19.8362C11.7382 20.0595 11.2617 20.0595 10.875 19.8362L4.59302 16.2093C4.20627 15.986 3.96803 15.5734 3.96803 15.1268V7.87304C3.96803 7.42646 4.20627 7.01381 4.59303 6.79052L10.875 3.16364Z" stroke="#FFCDE8" stroke-width="1.5"/>
</svg>
