<svg width="249" height="150" viewBox="0 0 249 150" fill="none" xmlns="http://www.w3.org/2000/svg">
<ellipse cx="170.5" cy="131.5" rx="67.5" ry="17.5" fill="#83A6FF" fill-opacity="0.25"/>
<ellipse cx="51.5" cy="90.5" rx="44.5" ry="11.5" fill="#83A6FF" fill-opacity="0.25"/>
<path d="M146.438 66.5127L132.995 52.066L146.438 45.0757L159.881 58.1243L146.438 66.5127Z" stroke="black"/>
<path d="M98.7232 147.134L103.359 78.6289H110.312C107.067 102.241 102.432 148.998 99.6503 149.464C98.9187 149.587 98.7232 147.911 98.7232 147.134Z" fill="#1F123D"/>
<path d="M122.365 121.503L127 52.9976H133.954C130.709 76.6093 126.073 123.367 123.292 123.833C122.56 123.955 122.365 122.279 122.365 121.503Z" fill="#1F123D"/>
<path d="M169.647 79.0949V41.3472H120.974C111.085 50.0462 91.2136 68.4696 90.8428 72.5706C90.5631 75.6632 92.199 77.5367 93.6831 78.4709C94.5109 78.992 95.5118 79.0949 96.4899 79.0949H169.647Z" fill="#F9971A"/>
<path d="M169.647 75.8327V38.085H128.519C123.656 38.085 118.954 39.8426 115.356 43.1137C105.022 52.5085 91.152 65.8885 90.8428 69.3084C90.5631 72.401 92.199 74.2745 93.6831 75.2087C94.5109 75.7298 95.5118 75.8327 96.4899 75.8327H169.647Z" fill="#FEDAB8"/>
<path d="M240.104 147.134L235.469 78.6289H228.516C231.76 102.241 236.396 148.998 239.177 149.464C239.909 149.587 240.104 147.911 240.104 147.134Z" fill="#1F123D"/>
<path d="M216.463 121.503L211.828 52.9976H204.874C208.119 76.6093 212.755 123.367 215.536 123.833C216.268 123.955 216.463 122.279 216.463 121.503Z" fill="#1F123D"/>
<path d="M169.18 79.0949V41.3472H217.854C227.743 50.0462 247.614 68.4696 247.985 72.5706C248.265 75.6632 246.629 77.5367 245.145 78.4709C244.317 78.992 243.316 79.0949 242.338 79.0949H169.18Z" fill="#F9971A"/>
<path d="M169.18 75.8327V38.085H210.309C215.172 38.085 219.874 39.8426 223.472 43.1137C233.805 52.5085 247.676 65.8885 247.985 69.3084C248.265 72.401 246.629 74.2745 245.145 75.2087C244.317 75.7298 243.316 75.8327 242.338 75.8327H169.18Z" fill="#FEDAB8"/>
<path d="M138.558 45.7744L160.345 56.0269L144.584 68.8425L126.042 52.0657L138.558 45.7744Z" fill="white"/>
<path d="M157.649 48.9822L167.2 58.7791L156.291 62.4071L148.292 52.0658L157.649 48.9822Z" fill="#FF6969"/>
<path d="M21.3553 100.637L26.4493 73.5439H34.0901C30.5244 82.882 25.4305 101.374 22.3741 101.558C21.5702 101.607 21.3553 100.944 21.3553 100.637Z" fill="#1F123D"/>
<path d="M8.62048 86.6283L13.7144 59.5356H21.3553C17.7895 68.8737 12.6956 87.3655 9.63926 87.5499C8.83533 87.5983 8.62048 86.9355 8.62048 86.6283Z" fill="#1F123D"/>
<path d="M75.7675 93.6327L70.6736 66.54H63.0327C66.5985 75.8781 71.6924 94.3699 74.7487 94.5542C75.5527 94.6027 75.7675 93.9399 75.7675 93.6327Z" fill="#1F123D"/>
<path d="M57.2442 81.9589L52.1503 54.8662H44.5094C48.0752 64.2043 53.1691 82.6961 56.2254 82.8804C57.0294 82.9289 57.2442 82.2661 57.2442 81.9589Z" fill="#1F123D"/>
<path d="M28.5081 3.52662C25.5688 4.02059 22.1761 3.55654 19.2036 2.80819C14.9212 1.73007 10.4084 -1.0825 6.30652 0.553349C5.61914 0.82748 4.9104 1.2219 4.19652 1.77565C-3.32823 7.61249 2.45991 44.3845 5.93303 60.1439C8.71153 72.7514 29.4729 75.9032 38.9275 75.3195C48.9609 74.9304 70.1855 73.2183 74.8163 69.4827C80.6049 64.8133 82.3414 41.466 77.7106 37.3802C73.0798 33.2944 63.8181 36.7965 57.4508 37.3802C51.0834 37.9639 48.1891 35.0455 47.0314 29.2087C45.8737 23.3719 54.5565 5.86135 48.1891 1.77558C41.8217 -2.31019 35.4543 2.35926 28.5081 3.52662Z" fill="#FEBB71"/>
<path d="M67.6636 55.1217C63.959 53.2539 45.6672 50.0631 36.9844 48.7012L34.0901 59.7911C46.8249 59.0129 71.3683 56.9895 67.6636 55.1217Z" fill="#F8D9BC"/>
<path d="M6.47889 19.8453C7.40505 9.5725 10.1835 1.16748 5.14746 1.16748C-4.11419 5.83694 1.26921 45.5273 4.74233 59.5357C8.21545 73.544 24.9707 74.9215 31.9484 75.8788C40.4575 77.0461 41.2101 66.5398 42.9466 54.8662C44.6832 43.1926 40.0524 40.8578 31.9484 44.3599C23.8445 47.862 14.5828 46.6947 9.95201 44.3599C5.32118 42.0252 5.32118 32.6863 6.47889 19.8453Z" fill="#FF951B"/>
<path d="M23.7909 3.04576C21.6762 0.506748 16.918 0.929917 14.8032 1.45888C17.4467 2.51682 15.8606 34.7834 15.8606 36.3703C15.8606 37.9572 17.9754 39.5441 19.5614 39.0151C20.8303 38.592 22.5573 39.5441 23.2622 40.0731C24.3196 28.7886 25.9057 5.58478 23.7909 3.04576Z" fill="#9F99B3"/>
<path d="M23.3795 21.1587C23.225 23.0786 23.1015 26.9185 23.8429 26.9185C24.5844 26.9185 24.4609 23.0786 24.3064 21.1587H25.2333C25.0788 22.5301 24.8625 25.4374 25.2333 26.0957C25.6967 26.9185 26.6236 26.9185 26.1601 21.1587H27.087C26.778 23.0786 26.3455 27.0831 27.087 27.7413C28.0139 28.5642 28.0139 23.6272 28.0139 21.1587L28.9407 21.9815C28.6318 23.9015 28.2919 27.7413 29.4042 27.7413C30.5164 27.7413 29.8676 23.3529 29.4042 21.1587L30.7945 21.9815C30.4855 24.1757 30.053 28.5642 30.7945 28.5642C31.536 28.5642 31.7213 24.1757 31.7213 21.9815" stroke="white" stroke-width="0.6"/>
<path d="M26.1381 1.7872C26.6079 1.43185 27.1304 1.22463 27.6731 1.12692C31.095 0.510817 33.5246 4.14474 33.7524 7.61421C34.2274 14.8461 32.5448 25.2844 32.0379 24.2622C31.5135 23.2045 25.264 22.9401 22.2048 22.9401V8.39751C22.2048 3.77032 23.5159 3.77028 26.1381 1.7872Z" fill="#B0D9FF"/>
<path d="M197.201 55.5411V14.811H194.029V28.564C194.029 36.4985 186.098 33.8537 186.098 44.9618C186.098 53.8484 193.5 55.7174 197.201 55.5411Z" fill="#FF9317"/>
<path d="M196.672 55.5411V14.811H199.844V28.564C199.844 36.4985 207.775 33.8537 207.775 44.9618C207.775 53.8484 200.373 55.7174 196.672 55.5411Z" fill="#FF9317"/>
</svg>
