<svg width="23" height="23" viewBox="0 0 23 23" fill="none" xmlns="http://www.w3.org/2000/svg">
<path d="M10.5 0.57735C11.1188 0.220085 11.8812 0.220085 12.5 0.57735L20.4593 5.17265C21.0781 5.52992 21.4593 6.19017 21.4593 6.9047V16.0953C21.4593 16.8098 21.0781 17.4701 20.4593 17.8274L12.5 22.4226C11.8812 22.7799 11.1188 22.7799 10.5 22.4226L2.54071 17.8274C1.92191 17.4701 1.54071 16.8098 1.54071 16.0953V6.9047C1.54071 6.19017 1.92191 5.52992 2.54071 5.17265L10.5 0.57735Z" fill="#FF008A"/>
<path d="M10.8749 3.16339C11.2617 2.9401 11.7382 2.9401 12.1249 3.16339L18.4069 6.79027C18.7936 7.01356 19.0319 7.42622 19.0319 7.8728V15.1266C19.0319 15.5731 18.7936 15.9858 18.4069 16.2091L12.1249 19.836C11.7382 20.0593 11.2617 20.0593 10.8749 19.836L4.59299 16.2091C4.20624 15.9858 3.96799 15.5731 3.96799 15.1266V7.8728C3.96799 7.42622 4.20624 7.01356 4.59299 6.79027L10.8749 3.16339Z" stroke="#FFCDE8" stroke-width="1.5"/>
</svg>
