<svg width="414" height="736" viewBox="0 0 414 736" fill="none" xmlns="http://www.w3.org/2000/svg">
<g clip-path="url(#clip0)">
<rect width="414" height="736" fill="#0D1886"/>
<circle cx="380.5" cy="423.5" r="69" stroke="#FFC41B" stroke-width="25"/>
<path d="M79.1162 530.503C37.0059 573.387 0.368422 565.301 -25 567.41V608.532H457V522.596C446.43 537.534 428.461 567.41 381.952 567.41C311.66 567.41 307 550.766 252.467 522.596C203.945 497.532 129.853 478.834 79.1162 530.503Z" fill="white"/>
<path d="M62.1162 530.737C20.0059 573.621 -16.6316 565.535 -42 567.644V608.766H440V522.83C429.43 537.768 411.461 567.644 364.952 567.644C294.66 567.644 271.028 549.88 235.467 522.83C192 489.766 112.853 479.067 62.1162 530.737Z" fill="#90AFFE"/>
<path d="M192 522.266C192 520.333 193.567 518.766 195.5 518.766C197.433 518.766 199 520.333 199 522.266V530.766H192V522.266Z" fill="#0D1886"/>
<path d="M205 531.266C205 528.781 207.015 526.766 209.5 526.766C211.985 526.766 214 528.781 214 531.266V542.766H205V531.266Z" fill="#0D1886"/>
<path d="M318 604.266C318 601.781 320.015 599.766 322.5 599.766C324.985 599.766 327 601.781 327 604.266V615.766H318V604.266Z" fill="#EC7E00"/>
<path d="M301 588.266C301 585.781 303.015 583.766 305.5 583.766C307.985 583.766 310 585.781 310 588.266V599.766H301V588.266Z" fill="#EC7E00"/>
<path d="M336 594.266C336 589.572 339.806 585.766 344.5 585.766C349.194 585.766 353 589.572 353 594.266V615.766H336V594.266Z" fill="#EC7E00"/>
<rect y="579" width="414" height="157" fill="#0F100C"/>
<path d="M279 734.5L23.5 579H637.5L949 734.5H279Z" fill="#161966"/>
<circle cx="262.985" cy="617.555" r="30.5232" fill="#E7EEFF"/>
<path d="M381.781 493.936C378.045 493.936 373.265 497.646 371.343 499.501V544.299C376.287 537.528 386.945 523.097 390.022 519.535C393.867 515.083 395.79 511.744 394.691 505.344C393.593 498.944 386.451 493.936 381.781 493.936Z" fill="#E4B2A3"/>
<path d="M389.231 432.932C384.759 434.271 375.442 444.088 371.343 448.829V493.173C380.101 480.53 398.343 454.184 401.25 449.944C404.884 444.646 403.207 436.837 401.25 434.605C399.294 432.374 394.822 431.259 389.231 432.932Z" fill="white"/>
<path d="M293.508 441.283C300.055 434.908 306.328 428.532 304.691 419.385C303.382 412.067 297.236 411.161 294.327 411.623H293.508V441.283Z" fill="#E28979"/>
<rect x="243.145" y="381" width="128.197" height="251.053" rx="19" fill="#F0F4F3"/>
<rect x="248.487" y="387.105" width="116.751" height="238.844" rx="13" fill="#0D1886"/>
<path d="M264 467.5C263.332 462.613 259.246 461.008 257.391 460.36C250.992 466.469 237.359 480.353 228.734 486.462C221.834 491.349 217.512 498.679 216.213 501.734C210.556 515.71 198.741 544.828 196.738 549.493C194.734 554.158 194.419 565.691 194.512 570.874V628.63C192.286 635.294 169.193 681.11 161.403 694.994C155.171 706.1 129.871 747.196 118 766.355H241.532L283.266 676.112C308.417 659.674 334.366 650.566 352.266 632.517H247.375L243.201 627.797V570.319L241.532 563.655C240.697 561.896 238.694 556.935 237.359 551.159C235.689 543.94 239.028 539.497 241.532 531.167C243.535 524.503 246.262 516.358 247.375 513.118C251.455 506.732 258.823 493.038 262.5 487C266.712 480.084 264.835 473.609 264 467.5Z" fill="#E7EEFF"/>
<path d="M286.641 674.404C292.44 658.837 279.9 640.193 272.905 632.053H353.792C347.306 640.829 322.505 655.709 312.204 660.287C303.963 663.95 291.728 670.97 286.641 674.404Z" fill="#4069D2"/>
<path d="M281.583 636.324C268.327 636.324 261.077 634.343 256.881 632.053H353.792C347.711 640.439 330.733 650.43 323.386 654.183C317.686 639.042 304.97 636.324 281.583 636.324Z" fill="black"/>
<path d="M256.881 505.382C259.933 500.498 260.442 494.19 260.314 491.647L247.724 513.394C245.307 520.644 240.016 536.363 238.185 541.247C235.896 547.351 237.804 553.838 239.33 557.271C240.551 560.019 242.382 566.047 243.145 568.718L242.764 550.404L246.96 535.142C248.995 527.257 253.828 510.266 256.881 505.382Z" fill="black"/>
<path d="M278.628 388.631L248.487 415.339V426.785L284.351 393.209L278.628 388.631Z" fill="#252A99"/>
<path d="M278.628 388.631L248.487 415.339V426.785L284.351 393.209L278.628 388.631Z" fill="#252A99"/>
<path d="M300.758 390.92L248.487 442.662V468.754L327.847 390.92H300.758Z" fill="#252A99"/>
<rect x="277.484" y="382.526" width="58.7572" height="10.6831" rx="5.34156" fill="#F0F4F3"/>
<rect x="287.404" y="386.342" width="32.8124" height="2.28924" rx="1.14462" fill="#0F100C"/>
<circle cx="325.939" cy="387.486" r="1.14462" fill="#0F100C"/>
<path d="M257.365 464.478C258.867 463.582 261.748 464.104 263 464.478C261.798 461.791 258.742 460.373 257.365 460C248.599 468.085 230.09 484.925 226.182 487.612C222.275 490.299 218.293 497.189 216.79 500.299C211.029 514.478 199.133 543.507 197.63 546.194C196.127 548.881 195.25 556.517 195 560L205.895 546.194L227.685 497.687C244.215 487.612 255.486 465.597 257.365 464.478Z" fill="#6B8EE8"/>
<path d="M378.256 412.223C375.798 410.955 372.623 411.695 371.343 412.223V441.283C375.269 438.289 383.326 430.822 384.146 424.904C385.17 417.507 381.329 413.808 378.256 412.223Z" fill="#E7EEFF"/>
<path d="M374.395 411.523C373.174 411.523 371.851 412.032 371.343 412.286V441.283C373.784 432.737 374.395 417.882 374.395 411.523Z" fill="black"/>
<path d="M374.776 445.099L371.343 448.914V492.791C375.616 473.256 375.412 452.857 374.776 445.099Z" fill="black"/>
<path d="M391.564 435.56C386.68 435.255 381.135 438.994 378.973 440.902C386.223 432.126 393.472 430.982 398.05 432.508C402.629 434.034 403.773 436.705 403.392 443.572C403.087 449.067 398.178 455.019 395.761 457.308C397.542 453.493 401.103 445.251 401.103 442.809C401.103 439.757 397.669 435.942 391.564 435.56Z" fill="#D4E0FE"/>
<path fill-rule="evenodd" clip-rule="evenodd" d="M199.37 108.763C206.8 80.027 281.987 96.3976 331.278 87.5138C380.57 78.6299 438.886 37.2562 477.481 57.5231C516.075 77.7901 475.011 126.781 386.492 137.837C297.972 148.893 191.939 137.499 199.37 108.763Z" fill="#90AFFE"/>
<path fill-rule="evenodd" clip-rule="evenodd" d="M92.8158 458.382C89.1133 444.014 51.6482 452.199 27.0865 447.757C2.52487 443.315 -26.5336 422.628 -45.7651 432.762C-64.9965 442.895 -44.5345 467.391 -0.425812 472.918C43.6828 478.446 96.5183 472.75 92.8158 458.382Z" fill="#2C3597"/>
<path d="M363.016 166.526C364.13 162.369 368.4 159.902 372.554 161.015C376.708 162.128 379.172 166.4 378.059 170.556C376.945 174.712 372.675 177.179 368.521 176.066C364.367 174.953 361.903 170.682 363.016 166.526Z" fill="#FEB700"/>
<path d="M364.231 167.756C364.709 165.975 366.539 164.918 368.319 165.395C370.099 165.872 371.155 167.702 370.678 169.484C370.201 171.265 368.371 172.322 366.59 171.845C364.81 171.368 363.754 169.538 364.231 167.756Z" fill="white"/>
<path d="M34.4116 516.474C34.4116 518.522 32.7525 520.182 30.7058 520.182C28.6591 520.182 27 518.522 27 516.474C27 514.426 28.6591 512.766 30.7058 512.766C32.7525 512.766 34.4116 514.426 34.4116 516.474Z" fill="#FEB700"/>
<path d="M33.7015 516.058C33.7015 516.936 32.9904 517.647 32.1133 517.647C31.2361 517.647 30.5251 516.936 30.5251 516.058C30.5251 515.18 31.2361 514.469 32.1133 514.469C32.9904 514.469 33.7015 515.18 33.7015 516.058Z" fill="white"/>
<path d="M260.751 346.25C257.482 348.137 253.302 347.019 251.416 343.751C249.529 340.484 250.65 336.305 253.92 334.418C257.189 332.53 261.368 333.649 263.255 336.916C265.141 340.183 264.02 344.362 260.751 346.25Z" fill="#FEB700"/>
<path d="M42.7509 103.25C39.4815 105.137 35.302 104.019 33.4156 100.751C31.5292 97.4841 32.6503 93.3052 35.9196 91.4177C39.189 89.5302 43.3685 90.6487 45.2549 93.916C47.1413 97.1834 46.0202 101.362 42.7509 103.25Z" fill="#FEB700"/>
<path d="M42.0495 97.0391C40.7548 97.7866 39.0997 97.3436 38.3526 96.0497C37.6056 94.7558 38.0496 93.1009 39.3443 92.3535C40.6389 91.606 42.2941 92.0489 43.0411 93.3428C43.7882 94.6367 43.3442 96.2916 42.0495 97.0391Z" fill="white"/>
<rect x="263" y="499" width="75" height="112" rx="2" fill="#EDF2FE"/>
<rect x="344" y="499" width="18" height="112" rx="2" fill="#EDF2FE"/>
<path d="M363.151 624.69C363.761 621.942 367.729 615.914 368.874 614.388L389.859 630.413V652.923L381.083 672C378.285 666.277 371.926 653.229 368.874 646.819C365.059 638.806 362.388 628.123 363.151 624.69Z" fill="#2B57C7"/>
<path d="M379.724 585.129C389.065 594.028 405.3 603.112 412.251 606.541C415.031 606.541 407.246 598.477 406.69 596.809C406.134 595.14 405.022 595.696 412.807 592.637C419.034 590.19 428.375 595.511 432.267 598.477H439.495C451.45 598.477 449.225 599.589 464.794 613.771C480.362 627.953 487.312 646.584 492.316 664.381C497.321 682.177 503.715 697.75 512.889 717.215C520.228 732.787 589.341 804.716 622.98 838.733H494.541C480.918 814.819 431.989 761.429 423.927 755.311C415.865 749.193 414.197 749.193 399.74 741.685C385.284 734.177 359.707 720.83 355.537 711.653C351.367 702.477 342.375 690.276 333.297 684.124C323.852 677.724 317.1 671.6 311.261 664.37C305.423 657.14 296.905 650.777 295.237 649.108C293.569 647.44 289.372 647.418 294.376 639.91C299.38 632.402 317.172 637.129 329.961 643.803C342.749 650.477 347.753 657.707 359.707 667.161C369.271 674.725 378.334 673.094 381.67 671.333C386.396 656.038 381.948 634.627 376.944 625.45C371.94 616.274 353.035 596.252 347.753 591.803C342.471 587.354 324.123 578.456 317.172 573.45C310.222 568.445 309.388 559.547 311.334 551.204C313.28 542.862 323.567 552.873 328.015 557.878C332.463 562.883 368.048 574.006 379.724 585.129Z" fill="white"/>
<path d="M352.468 698.327C347.279 690.086 333.772 682.938 327.668 680.394C348.271 693.367 351.323 705.195 355.902 712.825C360.48 720.456 382.991 734.192 401.686 742.585C416.643 749.301 423.943 755.303 425.723 757.465C442.816 774.491 471.254 808.564 483.336 823.472C439.459 736.481 392.148 729.232 376.886 720.456C361.625 711.681 358.954 708.628 352.468 698.327Z" fill="#D4E0FE"/>
<path d="M342.548 585.009C337.054 583.483 327.922 579.286 323.852 577.76C331.483 581.576 344.455 589.842 350.179 594.166C356.029 600.525 368.874 614.693 373.452 620.493C378.031 626.292 381.465 637.916 382.609 643.003C382.101 636.136 380.625 621.485 378.794 617.822C376.505 613.243 363.914 599.508 359.717 595.693C355.52 591.877 349.415 586.917 342.548 585.009Z" fill="#4069D2"/>
<path d="M413.133 605.994C412.827 604.163 408.427 598.363 406.265 595.693C401.992 593.556 397.617 596.074 395.963 597.6C401.814 601.161 413.438 607.825 413.133 605.994Z" fill="#2B57C7" stroke="#2B57C7"/>
<path d="M313.169 556.012C311.948 551.739 314.441 549.145 315.84 548.381C321.029 549.602 329.194 557.03 332.628 560.591C334.917 561.735 341.479 564.559 349.415 568.222C359.717 572.976 371.277 577.254 377 582.5C380.663 585.858 404.739 603.705 416.185 611.336C393.293 615.914 378.412 600.652 367.729 591.877C357.046 583.102 341.403 577.76 330.338 573.563C319.274 569.366 314.695 561.354 313.169 556.012Z" fill="#E7EEFF"/>
<path d="M263.664 424V422.93L264.945 422.719V413.391L263.719 413.156V412.109H266.156C266.448 412.109 266.711 412.104 266.945 412.094C267.18 412.083 267.411 412.073 267.641 412.062C267.875 412.047 268.117 412.034 268.367 412.023C268.622 412.013 268.911 412.008 269.234 412.008C270.234 412.008 271.094 412.135 271.812 412.391C272.531 412.641 273.122 413.005 273.586 413.484C274.049 413.964 274.391 414.552 274.609 415.25C274.828 415.943 274.938 416.734 274.938 417.625C274.938 418.604 274.792 419.497 274.5 420.305C274.214 421.112 273.807 421.802 273.281 422.375C272.76 422.948 272.13 423.388 271.391 423.695C270.656 424.003 269.844 424.146 268.953 424.125C268.755 424.12 268.539 424.109 268.305 424.094C268.07 424.083 267.828 424.07 267.578 424.055C267.333 424.039 267.091 424.026 266.852 424.016C266.612 424.005 266.388 424 266.18 424H263.664ZM267.453 413.164V422.867C267.661 422.94 267.888 422.984 268.133 423C268.378 423.016 268.643 423.018 268.93 423.008C269.43 423.003 269.885 422.896 270.297 422.688C270.708 422.479 271.062 422.169 271.359 421.758C271.656 421.346 271.885 420.831 272.047 420.211C272.214 419.591 272.297 418.867 272.297 418.039C272.297 417.247 272.224 416.544 272.078 415.93C271.938 415.31 271.719 414.789 271.422 414.367C271.125 413.945 270.745 413.625 270.281 413.406C269.823 413.182 269.276 413.07 268.641 413.07C268.344 413.07 268.096 413.083 267.898 413.109C267.701 413.13 267.552 413.148 267.453 413.164ZM280.195 424.18C279.461 424.18 278.828 424.065 278.297 423.836C277.771 423.607 277.336 423.289 276.992 422.883C276.654 422.471 276.404 421.982 276.242 421.414C276.081 420.846 276 420.227 276 419.555C276 418.826 276.102 418.174 276.305 417.602C276.513 417.023 276.805 416.534 277.18 416.133C277.555 415.727 278.005 415.417 278.531 415.203C279.057 414.99 279.641 414.883 280.281 414.883C282.443 414.883 283.57 415.938 283.664 418.047C283.674 418.406 283.672 418.732 283.656 419.023C283.646 419.31 283.62 419.552 283.578 419.75H278.477C278.503 420.266 278.578 420.706 278.703 421.07C278.828 421.435 278.992 421.732 279.195 421.961C279.398 422.19 279.638 422.357 279.914 422.461C280.195 422.565 280.503 422.617 280.836 422.617C281.102 422.617 281.349 422.596 281.578 422.555C281.807 422.513 282.018 422.461 282.211 422.398C282.409 422.336 282.586 422.266 282.742 422.188C282.904 422.109 283.042 422.034 283.156 421.961L283.562 422.906C283.432 423.042 283.25 423.185 283.016 423.336C282.786 423.482 282.521 423.617 282.219 423.742C281.922 423.867 281.599 423.971 281.25 424.055C280.906 424.138 280.555 424.18 280.195 424.18ZM279.984 415.93C279.781 415.93 279.591 415.966 279.414 416.039C279.242 416.112 279.089 416.25 278.953 416.453C278.823 416.656 278.714 416.94 278.625 417.305C278.542 417.664 278.49 418.13 278.469 418.703H281.273C281.273 418.677 281.273 418.641 281.273 418.594C281.279 418.547 281.281 418.497 281.281 418.445C281.286 418.393 281.289 418.344 281.289 418.297C281.289 418.25 281.289 418.216 281.289 418.195C281.289 417.93 281.271 417.661 281.234 417.391C281.198 417.115 281.13 416.87 281.031 416.656C280.938 416.443 280.805 416.268 280.633 416.133C280.466 415.997 280.25 415.93 279.984 415.93ZM285.125 423.5V421.305H286.562L286.969 422.523C287.016 422.591 287.086 422.659 287.18 422.727C287.279 422.794 287.393 422.854 287.523 422.906C287.659 422.958 287.81 423.003 287.977 423.039C288.143 423.07 288.318 423.086 288.5 423.086C288.76 423.086 288.971 423.055 289.133 422.992C289.299 422.93 289.432 422.852 289.531 422.758C289.63 422.659 289.698 422.549 289.734 422.43C289.771 422.305 289.789 422.185 289.789 422.07C289.789 421.852 289.732 421.664 289.617 421.508C289.508 421.346 289.349 421.201 289.141 421.07C288.938 420.935 288.69 420.805 288.398 420.68C288.107 420.555 287.784 420.419 287.43 420.273C287.07 420.128 286.747 419.966 286.461 419.789C286.174 419.607 285.93 419.404 285.727 419.18C285.529 418.956 285.375 418.706 285.266 418.43C285.156 418.154 285.102 417.844 285.102 417.5C285.102 417.13 285.177 416.789 285.328 416.477C285.484 416.159 285.714 415.885 286.016 415.656C286.318 415.422 286.693 415.24 287.141 415.109C287.589 414.974 288.107 414.906 288.695 414.906C289.039 414.906 289.344 414.927 289.609 414.969C289.88 415.01 290.125 415.06 290.344 415.117C290.562 415.169 290.763 415.227 290.945 415.289C291.128 415.346 291.305 415.391 291.477 415.422V417.578L290.117 417.555L289.75 416.516C289.677 416.396 289.539 416.281 289.336 416.172C289.133 416.057 288.875 415.997 288.562 415.992C288.328 415.992 288.13 416.018 287.969 416.07C287.812 416.122 287.685 416.193 287.586 416.281C287.492 416.37 287.424 416.469 287.383 416.578C287.341 416.682 287.32 416.789 287.32 416.898C287.32 417.169 287.391 417.393 287.531 417.57C287.672 417.742 287.849 417.888 288.062 418.008C288.276 418.128 288.51 418.234 288.766 418.328C289.021 418.417 289.263 418.513 289.492 418.617C289.836 418.768 290.164 418.93 290.477 419.102C290.789 419.268 291.065 419.464 291.305 419.688C291.549 419.911 291.742 420.172 291.883 420.469C292.029 420.76 292.102 421.109 292.102 421.516C292.102 421.896 292.026 422.247 291.875 422.57C291.729 422.893 291.505 423.174 291.203 423.414C290.906 423.654 290.531 423.841 290.078 423.977C289.63 424.112 289.104 424.18 288.5 424.18C288.089 424.18 287.711 424.151 287.367 424.094C287.029 424.036 286.719 423.971 286.438 423.898C286.161 423.82 285.914 423.745 285.695 423.672C285.477 423.594 285.286 423.536 285.125 423.5ZM293.297 424V422.953L294.438 422.805V416.789L293.383 416.453V415.281L296.25 414.898H296.289L296.859 415.234V422.797L297.992 422.953V424H293.297ZM295.375 413.578C295.193 413.578 295.029 413.544 294.883 413.477C294.742 413.409 294.622 413.32 294.523 413.211C294.43 413.096 294.357 412.964 294.305 412.812C294.258 412.656 294.234 412.492 294.234 412.32C294.234 412.117 294.26 411.927 294.312 411.75C294.37 411.568 294.456 411.409 294.57 411.273C294.685 411.138 294.826 411.031 294.992 410.953C295.164 410.875 295.362 410.836 295.586 410.836H295.594C295.807 410.836 295.99 410.872 296.141 410.945C296.297 411.013 296.427 411.107 296.531 411.227C296.635 411.341 296.711 411.474 296.758 411.625C296.81 411.776 296.836 411.935 296.836 412.102C296.836 412.31 296.807 412.505 296.75 412.688C296.693 412.865 296.604 413.021 296.484 413.156C296.37 413.286 296.219 413.391 296.031 413.469C295.849 413.542 295.633 413.578 295.383 413.578H295.375ZM303.039 420.945C302.607 420.945 302.211 420.914 301.852 420.852C301.763 420.94 301.69 421.044 301.633 421.164C301.576 421.279 301.547 421.414 301.547 421.57C301.547 421.753 301.581 421.898 301.648 422.008C301.716 422.117 301.823 422.203 301.969 422.266C302.115 422.323 302.299 422.362 302.523 422.383C302.753 422.404 303.026 422.414 303.344 422.414H304.906C306.031 422.414 306.867 422.604 307.414 422.984C307.966 423.365 308.242 423.987 308.242 424.852C308.242 425.378 308.104 425.854 307.828 426.281C307.557 426.708 307.19 427.07 306.727 427.367C306.263 427.669 305.727 427.901 305.117 428.062C304.508 428.229 303.87 428.312 303.203 428.312H303.195C302.461 428.312 301.831 428.247 301.305 428.117C300.784 427.987 300.354 427.807 300.016 427.578C299.682 427.349 299.435 427.076 299.273 426.758C299.117 426.44 299.039 426.094 299.039 425.719C299.039 425.479 299.083 425.253 299.172 425.039C299.26 424.831 299.378 424.638 299.523 424.461C299.669 424.289 299.839 424.138 300.031 424.008C300.229 423.878 300.432 423.776 300.641 423.703C300.339 423.547 300.107 423.349 299.945 423.109C299.784 422.87 299.703 422.589 299.703 422.266C299.703 421.87 299.807 421.536 300.016 421.266C300.224 420.99 300.49 420.747 300.812 420.539C300.281 420.299 299.888 419.961 299.633 419.523C299.383 419.086 299.258 418.565 299.258 417.961C299.258 417.492 299.362 417.068 299.57 416.688C299.784 416.307 300.073 415.984 300.438 415.719C300.802 415.448 301.227 415.24 301.711 415.094C302.195 414.948 302.714 414.875 303.266 414.875H303.273C304.576 414.875 305.542 415.125 306.172 415.625C306.245 415.536 306.344 415.448 306.469 415.359C306.594 415.266 306.737 415.182 306.898 415.109C307.06 415.036 307.24 414.977 307.438 414.93C307.635 414.878 307.844 414.852 308.062 414.852H308.43V416.602H306.891C306.948 416.768 306.992 416.943 307.023 417.125C307.06 417.307 307.078 417.505 307.078 417.719C307.078 418.188 306.979 418.62 306.781 419.016C306.589 419.406 306.312 419.745 305.953 420.031C305.599 420.318 305.174 420.542 304.68 420.703C304.185 420.865 303.641 420.945 303.047 420.945H303.039ZM303.227 419.898H303.234C303.5 419.898 303.719 419.846 303.891 419.742C304.068 419.633 304.206 419.487 304.305 419.305C304.404 419.122 304.471 418.906 304.508 418.656C304.549 418.406 304.57 418.143 304.57 417.867C304.57 417.18 304.458 416.682 304.234 416.375C304.016 416.062 303.654 415.906 303.148 415.906H303.141C302.646 415.906 302.289 416.062 302.07 416.375C301.852 416.688 301.742 417.164 301.742 417.805C301.742 418.112 301.766 418.396 301.812 418.656C301.859 418.911 301.94 419.133 302.055 419.32C302.169 419.503 302.32 419.646 302.508 419.75C302.701 419.849 302.94 419.898 303.227 419.898ZM302.641 424.102C302.307 424.102 301.995 424.078 301.703 424.031C301.599 424.146 301.5 424.294 301.406 424.477C301.318 424.664 301.273 424.919 301.273 425.242C301.273 425.596 301.32 425.893 301.414 426.133C301.508 426.378 301.646 426.576 301.828 426.727C302.01 426.883 302.234 426.995 302.5 427.062C302.771 427.13 303.083 427.164 303.438 427.164H303.453C303.771 427.164 304.081 427.128 304.383 427.055C304.685 426.982 304.953 426.87 305.188 426.719C305.427 426.573 305.617 426.388 305.758 426.164C305.904 425.94 305.977 425.677 305.977 425.375C305.977 425.146 305.951 424.951 305.898 424.789C305.852 424.628 305.763 424.495 305.633 424.391C305.508 424.292 305.333 424.219 305.109 424.172C304.891 424.125 304.609 424.102 304.266 424.102H302.641ZM309.211 424V422.953L310.219 422.797V416.789L309.156 416.461V415.281L311.953 414.898H311.992L312.406 415.234V416.164C312.578 416.008 312.781 415.854 313.016 415.703C313.25 415.552 313.503 415.419 313.773 415.305C314.049 415.19 314.339 415.099 314.641 415.031C314.943 414.958 315.247 414.922 315.555 414.922C316.055 414.922 316.471 414.987 316.805 415.117C317.143 415.247 317.411 415.456 317.609 415.742C317.807 416.029 317.948 416.398 318.031 416.852C318.115 417.299 318.156 417.841 318.156 418.477V422.805L319.266 422.953V424H314.867V422.953L315.719 422.805V418.445C315.719 418.086 315.701 417.776 315.664 417.516C315.628 417.25 315.56 417.034 315.461 416.867C315.367 416.701 315.234 416.578 315.062 416.5C314.896 416.417 314.68 416.375 314.414 416.375C314.237 416.375 314.062 416.396 313.891 416.438C313.719 416.474 313.555 416.523 313.398 416.586C313.247 416.648 313.107 416.719 312.977 416.797C312.852 416.87 312.742 416.943 312.648 417.016V422.797L313.695 422.953V424H309.211ZM265.367 444V442.93L267.516 442.711V433.25L265.328 433.391L264.734 436.711H263.281L263.516 432.109H273.953L274.195 436.711H272.734L272.156 433.391L270.023 433.25V442.719L272.305 442.93V444H265.367ZM275.008 444V442.953L275.969 442.797V432.367L274.797 432.172V431.258L277.836 430.875H277.875L278.352 431.242L278.367 434.922L278.242 436.164C278.383 436.034 278.557 435.896 278.766 435.75C278.979 435.604 279.219 435.471 279.484 435.352C279.75 435.227 280.039 435.125 280.352 435.047C280.669 434.964 281.003 434.922 281.352 434.922C281.862 434.922 282.284 434.992 282.617 435.133C282.951 435.273 283.214 435.49 283.406 435.781C283.604 436.073 283.742 436.443 283.82 436.891C283.904 437.333 283.945 437.859 283.945 438.469V442.797L285.047 442.953V444H280.672V442.984L281.539 442.812V438.445C281.539 438.086 281.521 437.776 281.484 437.516C281.448 437.25 281.378 437.034 281.273 436.867C281.174 436.701 281.034 436.578 280.852 436.5C280.674 436.417 280.445 436.375 280.164 436.375C280.003 436.375 279.836 436.393 279.664 436.43C279.492 436.466 279.326 436.513 279.164 436.57C279.008 436.622 278.859 436.685 278.719 436.758C278.578 436.826 278.461 436.896 278.367 436.969V442.797L279.438 442.953V444H275.008ZM285.969 444V442.953L287.109 442.805V436.789L286.055 436.453V435.281L288.922 434.898H288.961L289.531 435.234V442.797L290.664 442.953V444H285.969ZM288.047 433.578C287.865 433.578 287.701 433.544 287.555 433.477C287.414 433.409 287.294 433.32 287.195 433.211C287.102 433.096 287.029 432.964 286.977 432.812C286.93 432.656 286.906 432.492 286.906 432.32C286.906 432.117 286.932 431.927 286.984 431.75C287.042 431.568 287.128 431.409 287.242 431.273C287.357 431.138 287.497 431.031 287.664 430.953C287.836 430.875 288.034 430.836 288.258 430.836H288.266C288.479 430.836 288.661 430.872 288.812 430.945C288.969 431.013 289.099 431.107 289.203 431.227C289.307 431.341 289.383 431.474 289.43 431.625C289.482 431.776 289.508 431.935 289.508 432.102C289.508 432.31 289.479 432.505 289.422 432.688C289.365 432.865 289.276 433.021 289.156 433.156C289.042 433.286 288.891 433.391 288.703 433.469C288.521 433.542 288.305 433.578 288.055 433.578H288.047ZM291.82 444V442.953L292.828 442.797V436.789L291.766 436.461V435.281L294.562 434.898H294.602L295.016 435.234V436.164C295.188 436.008 295.391 435.854 295.625 435.703C295.859 435.552 296.112 435.419 296.383 435.305C296.659 435.19 296.948 435.099 297.25 435.031C297.552 434.958 297.857 434.922 298.164 434.922C298.664 434.922 299.081 434.987 299.414 435.117C299.753 435.247 300.021 435.456 300.219 435.742C300.417 436.029 300.557 436.398 300.641 436.852C300.724 437.299 300.766 437.841 300.766 438.477V442.805L301.875 442.953V444H297.477V442.953L298.328 442.805V438.445C298.328 438.086 298.31 437.776 298.273 437.516C298.237 437.25 298.169 437.034 298.07 436.867C297.977 436.701 297.844 436.578 297.672 436.5C297.505 436.417 297.289 436.375 297.023 436.375C296.846 436.375 296.672 436.396 296.5 436.438C296.328 436.474 296.164 436.523 296.008 436.586C295.857 436.648 295.716 436.719 295.586 436.797C295.461 436.87 295.352 436.943 295.258 437.016V442.797L296.305 442.953V444H291.82ZM302.648 444V442.953L303.664 442.805V432.367L302.531 432.172V431.258L305.555 430.875H305.578L306.07 431.242V438.234L306.031 439.445L309.07 436.32L307.852 436.109V435.047H312.258V436.109L310.805 436.391L308.867 438.164L311.883 442.797L312.844 442.953V444H308.422V442.953L309.211 442.781L307.297 439.516L306.031 440.734L306.07 441.664V442.797L307.141 442.953V444H302.648ZM313.406 444V442.953L314.547 442.805V436.789L313.492 436.453V435.281L316.359 434.898H316.398L316.969 435.234V442.797L318.102 442.953V444H313.406ZM315.484 433.578C315.302 433.578 315.138 433.544 314.992 433.477C314.852 433.409 314.732 433.32 314.633 433.211C314.539 433.096 314.466 432.964 314.414 432.812C314.367 432.656 314.344 432.492 314.344 432.32C314.344 432.117 314.37 431.927 314.422 431.75C314.479 431.568 314.565 431.409 314.68 431.273C314.794 431.138 314.935 431.031 315.102 430.953C315.273 430.875 315.471 430.836 315.695 430.836H315.703C315.917 430.836 316.099 430.872 316.25 430.945C316.406 431.013 316.536 431.107 316.641 431.227C316.745 431.341 316.82 431.474 316.867 431.625C316.919 431.776 316.945 431.935 316.945 432.102C316.945 432.31 316.917 432.505 316.859 432.688C316.802 432.865 316.714 433.021 316.594 433.156C316.479 433.286 316.328 433.391 316.141 433.469C315.958 433.542 315.742 433.578 315.492 433.578H315.484ZM319.258 444V442.953L320.266 442.797V436.789L319.203 436.461V435.281L322 434.898H322.039L322.453 435.234V436.164C322.625 436.008 322.828 435.854 323.062 435.703C323.297 435.552 323.549 435.419 323.82 435.305C324.096 435.19 324.385 435.099 324.688 435.031C324.99 434.958 325.294 434.922 325.602 434.922C326.102 434.922 326.518 434.987 326.852 435.117C327.19 435.247 327.458 435.456 327.656 435.742C327.854 436.029 327.995 436.398 328.078 436.852C328.161 437.299 328.203 437.841 328.203 438.477V442.805L329.312 442.953V444H324.914V442.953L325.766 442.805V438.445C325.766 438.086 325.747 437.776 325.711 437.516C325.674 437.25 325.607 437.034 325.508 436.867C325.414 436.701 325.281 436.578 325.109 436.5C324.943 436.417 324.727 436.375 324.461 436.375C324.284 436.375 324.109 436.396 323.938 436.438C323.766 436.474 323.602 436.523 323.445 436.586C323.294 436.648 323.154 436.719 323.023 436.797C322.898 436.87 322.789 436.943 322.695 437.016V442.797L323.742 442.953V444H319.258ZM334.227 440.945C333.794 440.945 333.398 440.914 333.039 440.852C332.951 440.94 332.878 441.044 332.82 441.164C332.763 441.279 332.734 441.414 332.734 441.57C332.734 441.753 332.768 441.898 332.836 442.008C332.904 442.117 333.01 442.203 333.156 442.266C333.302 442.323 333.487 442.362 333.711 442.383C333.94 442.404 334.214 442.414 334.531 442.414H336.094C337.219 442.414 338.055 442.604 338.602 442.984C339.154 443.365 339.43 443.987 339.43 444.852C339.43 445.378 339.292 445.854 339.016 446.281C338.745 446.708 338.378 447.07 337.914 447.367C337.451 447.669 336.914 447.901 336.305 448.062C335.695 448.229 335.057 448.312 334.391 448.312H334.383C333.648 448.312 333.018 448.247 332.492 448.117C331.971 447.987 331.542 447.807 331.203 447.578C330.87 447.349 330.622 447.076 330.461 446.758C330.305 446.44 330.227 446.094 330.227 445.719C330.227 445.479 330.271 445.253 330.359 445.039C330.448 444.831 330.565 444.638 330.711 444.461C330.857 444.289 331.026 444.138 331.219 444.008C331.417 443.878 331.62 443.776 331.828 443.703C331.526 443.547 331.294 443.349 331.133 443.109C330.971 442.87 330.891 442.589 330.891 442.266C330.891 441.87 330.995 441.536 331.203 441.266C331.411 440.99 331.677 440.747 332 440.539C331.469 440.299 331.076 439.961 330.82 439.523C330.57 439.086 330.445 438.565 330.445 437.961C330.445 437.492 330.549 437.068 330.758 436.688C330.971 436.307 331.26 435.984 331.625 435.719C331.99 435.448 332.414 435.24 332.898 435.094C333.383 434.948 333.901 434.875 334.453 434.875H334.461C335.763 434.875 336.729 435.125 337.359 435.625C337.432 435.536 337.531 435.448 337.656 435.359C337.781 435.266 337.924 435.182 338.086 435.109C338.247 435.036 338.427 434.977 338.625 434.93C338.823 434.878 339.031 434.852 339.25 434.852H339.617V436.602H338.078C338.135 436.768 338.18 436.943 338.211 437.125C338.247 437.307 338.266 437.505 338.266 437.719C338.266 438.188 338.167 438.62 337.969 439.016C337.776 439.406 337.5 439.745 337.141 440.031C336.786 440.318 336.362 440.542 335.867 440.703C335.372 440.865 334.828 440.945 334.234 440.945H334.227ZM334.414 439.898H334.422C334.688 439.898 334.906 439.846 335.078 439.742C335.255 439.633 335.393 439.487 335.492 439.305C335.591 439.122 335.659 438.906 335.695 438.656C335.737 438.406 335.758 438.143 335.758 437.867C335.758 437.18 335.646 436.682 335.422 436.375C335.203 436.062 334.841 435.906 334.336 435.906H334.328C333.833 435.906 333.477 436.062 333.258 436.375C333.039 436.688 332.93 437.164 332.93 437.805C332.93 438.112 332.953 438.396 333 438.656C333.047 438.911 333.128 439.133 333.242 439.32C333.357 439.503 333.508 439.646 333.695 439.75C333.888 439.849 334.128 439.898 334.414 439.898ZM333.828 444.102C333.495 444.102 333.182 444.078 332.891 444.031C332.786 444.146 332.688 444.294 332.594 444.477C332.505 444.664 332.461 444.919 332.461 445.242C332.461 445.596 332.508 445.893 332.602 446.133C332.695 446.378 332.833 446.576 333.016 446.727C333.198 446.883 333.422 446.995 333.688 447.062C333.958 447.13 334.271 447.164 334.625 447.164H334.641C334.958 447.164 335.268 447.128 335.57 447.055C335.872 446.982 336.141 446.87 336.375 446.719C336.615 446.573 336.805 446.388 336.945 446.164C337.091 445.94 337.164 445.677 337.164 445.375C337.164 445.146 337.138 444.951 337.086 444.789C337.039 444.628 336.951 444.495 336.82 444.391C336.695 444.292 336.521 444.219 336.297 444.172C336.078 444.125 335.797 444.102 335.453 444.102H333.828Z" fill="white"/>
<path d="M265.304 452.722C265.824 452.722 266.256 452.854 266.6 453.118C266.944 453.382 267.176 453.74 267.296 454.192H266.57C266.47 453.936 266.31 453.734 266.09 453.586C265.874 453.434 265.608 453.358 265.292 453.358C265.04 453.358 264.814 453.42 264.614 453.544C264.418 453.668 264.262 453.846 264.146 454.078C264.034 454.306 263.978 454.574 263.978 454.882C263.978 455.186 264.034 455.454 264.146 455.686C264.262 455.914 264.418 456.09 264.614 456.214C264.814 456.338 265.04 456.4 265.292 456.4C265.608 456.4 265.874 456.326 266.09 456.178C266.31 456.026 266.47 455.824 266.57 455.572H267.296C267.176 456.024 266.944 456.382 266.6 456.646C266.256 456.906 265.824 457.036 265.304 457.036C264.904 457.036 264.55 456.946 264.242 456.766C263.934 456.582 263.696 456.328 263.528 456.004C263.36 455.676 263.276 455.302 263.276 454.882C263.276 454.462 263.36 454.09 263.528 453.766C263.696 453.438 263.934 453.182 264.242 452.998C264.55 452.814 264.904 452.722 265.304 452.722ZM269.826 453.64C270.21 453.64 270.518 453.764 270.75 454.012C270.982 454.26 271.098 454.614 271.098 455.074V457H270.414V455.146C270.414 454.85 270.338 454.622 270.186 454.462C270.034 454.298 269.826 454.216 269.562 454.216C269.29 454.216 269.072 454.304 268.908 454.48C268.744 454.652 268.662 454.906 268.662 455.242V457H267.978V452.56H268.662V454.42C268.75 454.172 268.898 453.98 269.106 453.844C269.314 453.708 269.554 453.64 269.826 453.64ZM273.224 453.652C273.524 453.652 273.78 453.726 273.992 453.874C274.204 454.022 274.354 454.218 274.442 454.462V453.694H275.126V457H274.442V456.232C274.354 456.476 274.204 456.672 273.992 456.82C273.78 456.968 273.524 457.042 273.224 457.042C272.936 457.042 272.678 456.974 272.45 456.838C272.226 456.702 272.05 456.506 271.922 456.25C271.794 455.994 271.73 455.692 271.73 455.344C271.73 455 271.794 454.7 271.922 454.444C272.05 454.188 272.226 453.992 272.45 453.856C272.678 453.72 272.936 453.652 273.224 453.652ZM273.434 454.252C273.13 454.252 272.886 454.35 272.702 454.546C272.522 454.738 272.432 455.004 272.432 455.344C272.432 455.684 272.522 455.952 272.702 456.148C272.886 456.34 273.13 456.436 273.434 456.436C273.626 456.436 273.798 456.392 273.95 456.304C274.102 456.212 274.222 456.084 274.31 455.92C274.398 455.756 274.442 455.564 274.442 455.344C274.442 455.128 274.398 454.938 274.31 454.774C274.222 454.606 274.102 454.478 273.95 454.39C273.798 454.298 273.626 454.252 273.434 454.252ZM276.631 452.56V457H275.947V452.56H276.631ZM278.143 452.56V457H277.459V452.56H278.143ZM282.043 455.188C282.043 455.3 282.035 455.398 282.019 455.482H279.475C279.487 455.822 279.581 456.074 279.757 456.238C279.933 456.402 280.151 456.484 280.411 456.484C280.639 456.484 280.831 456.426 280.987 456.31C281.147 456.194 281.245 456.04 281.281 455.848H282.013C281.969 456.08 281.877 456.286 281.737 456.466C281.597 456.646 281.415 456.788 281.191 456.892C280.967 456.992 280.717 457.042 280.441 457.042C280.121 457.042 279.837 456.974 279.589 456.838C279.345 456.702 279.153 456.506 279.013 456.25C278.873 455.994 278.803 455.692 278.803 455.344C278.803 455 278.873 454.7 279.013 454.444C279.153 454.188 279.345 453.992 279.589 453.856C279.837 453.72 280.121 453.652 280.441 453.652C280.765 453.652 281.047 453.72 281.287 453.856C281.531 453.988 281.717 454.172 281.845 454.408C281.977 454.64 282.043 454.9 282.043 455.188ZM281.353 455.17C281.361 454.954 281.323 454.774 281.239 454.63C281.159 454.482 281.047 454.374 280.903 454.306C280.763 454.234 280.609 454.198 280.441 454.198C280.173 454.198 279.949 454.28 279.769 454.444C279.589 454.608 279.491 454.85 279.475 455.17H281.353ZM284.551 453.64C284.935 453.64 285.243 453.764 285.475 454.012C285.707 454.26 285.823 454.614 285.823 455.074V457H285.139V455.146C285.139 454.85 285.063 454.622 284.911 454.462C284.759 454.298 284.551 454.216 284.287 454.216C284.015 454.216 283.797 454.304 283.633 454.48C283.469 454.652 283.387 454.906 283.387 455.242V457H282.703V453.694H283.387V454.42C283.475 454.172 283.623 453.98 283.831 453.844C284.039 453.708 284.279 453.64 284.551 453.64ZM287.949 453.652C288.249 453.652 288.505 453.726 288.717 453.874C288.929 454.022 289.079 454.218 289.167 454.462V453.694H289.851V457.036C289.851 457.344 289.787 457.616 289.659 457.852C289.535 458.092 289.355 458.28 289.119 458.416C288.883 458.552 288.603 458.62 288.279 458.62C287.815 458.62 287.439 458.51 287.151 458.29C286.867 458.07 286.689 457.772 286.617 457.396H287.295C287.351 457.592 287.459 457.744 287.619 457.852C287.779 457.964 287.983 458.02 288.231 458.02C288.503 458.02 288.727 457.936 288.903 457.768C289.079 457.6 289.167 457.356 289.167 457.036V456.232C289.079 456.476 288.929 456.672 288.717 456.82C288.505 456.968 288.249 457.042 287.949 457.042C287.661 457.042 287.403 456.974 287.175 456.838C286.951 456.702 286.775 456.506 286.647 456.25C286.519 455.994 286.455 455.692 286.455 455.344C286.455 455 286.519 454.7 286.647 454.444C286.775 454.188 286.951 453.992 287.175 453.856C287.403 453.72 287.661 453.652 287.949 453.652ZM288.159 454.252C287.855 454.252 287.611 454.35 287.427 454.546C287.247 454.738 287.157 455.004 287.157 455.344C287.157 455.684 287.247 455.952 287.427 456.148C287.611 456.34 287.855 456.436 288.159 456.436C288.351 456.436 288.523 456.392 288.675 456.304C288.827 456.212 288.947 456.084 289.035 455.92C289.123 455.756 289.167 455.564 289.167 455.344C289.167 455.128 289.123 454.938 289.035 454.774C288.947 454.606 288.827 454.478 288.675 454.39C288.523 454.298 288.351 454.252 288.159 454.252ZM293.744 455.188C293.744 455.3 293.736 455.398 293.72 455.482H291.176C291.188 455.822 291.282 456.074 291.458 456.238C291.634 456.402 291.852 456.484 292.112 456.484C292.34 456.484 292.532 456.426 292.688 456.31C292.848 456.194 292.946 456.04 292.982 455.848H293.714C293.67 456.08 293.578 456.286 293.438 456.466C293.298 456.646 293.116 456.788 292.892 456.892C292.668 456.992 292.418 457.042 292.142 457.042C291.822 457.042 291.538 456.974 291.29 456.838C291.046 456.702 290.854 456.506 290.714 456.25C290.574 455.994 290.504 455.692 290.504 455.344C290.504 455 290.574 454.7 290.714 454.444C290.854 454.188 291.046 453.992 291.29 453.856C291.538 453.72 291.822 453.652 292.142 453.652C292.466 453.652 292.748 453.72 292.988 453.856C293.232 453.988 293.418 454.172 293.546 454.408C293.678 454.64 293.744 454.9 293.744 455.188ZM293.054 455.17C293.062 454.954 293.024 454.774 292.94 454.63C292.86 454.482 292.748 454.374 292.604 454.306C292.464 454.234 292.31 454.198 292.142 454.198C291.874 454.198 291.65 454.28 291.47 454.444C291.29 454.608 291.192 454.85 291.176 455.17H293.054Z" fill="white"/>
<path d="M68.5 542.727C42.1 564.327 -6.83333 575.727 -28 578.727V586.727H195V578.727C144.5 578.727 101.5 515.727 68.5 542.727Z" fill="white"/>
<rect x="272" y="487" width="13.4634" height="2" rx="1" fill="#82E024"/>
<rect x="301.03" y="487" width="12.622" height="2" rx="1" fill="#EAEAEA"/>
<rect x="286.726" y="487" width="12.622" height="2" rx="1" fill="#EAEAEA"/>
<rect x="314.494" y="487" width="12.622" height="2" rx="1" fill="#EAEAEA"/>
<rect x="328.378" y="487" width="12.622" height="2" rx="1" fill="#EAEAEA"/>
<circle cx="331" cy="79.0001" r="30.2104" transform="rotate(-75 331 79.0001)" fill="#FEB700"/>
<mask id="mask0" mask-type="alpha" maskUnits="userSpaceOnUse" x="300" y="48" width="62" height="62">
<circle cx="331.007" cy="78.8988" r="30.2104" fill="#0D1886"/>
</mask>
<g mask="url(#mask0)">
<path d="M321.8 63.2724C312.992 62.8197 304.415 64.4041 301.228 65.2529L304.705 42.335L349.036 40.9203L362.944 61.5747C358.018 63.0837 351.933 66.4959 340.054 65.2529C331.941 64.4041 332.81 63.8382 321.8 63.2724Z" fill="#EA6838"/>
<path d="M364.238 74.3541C322.991 69.3243 303.269 78.1646 298.564 83.2135C296.26 91.4442 305.669 100.742 310.662 104.362C325.41 91.7872 349.836 94.5498 360.206 97.503L364.238 74.3541Z" fill="#EA6838"/>
</g>
<path d="M53.5693 679.645C45.3861 690.432 48.3218 713.266 51.8303 727.674C52.7779 731.565 51.586 735.714 48.5291 738.302L33.9526 750.642C29.7851 754.17 23.7907 753.475 21.5934 748.476C19.1862 743 16.5166 735.03 14.5219 724.366C10.0006 700.192 36.1904 681.483 41.6495 670.781C47.815 658.694 46.9928 654.262 33.018 630.895C19.0432 607.527 19.0843 593.201 26.4416 580.13C32.4298 569.491 42.7348 564.086 51.1502 562.393C52.0289 562.216 52.6241 563.229 52.1131 563.966C47.9273 569.997 41.6495 582.146 41.6495 595.037C41.6495 613.167 61.3788 623.643 64.667 639.355C67.9552 655.068 65.489 663.932 53.5693 679.645Z" fill="#5881EC"/>
<path d="M72.7846 710.168C68.6561 715.805 70.1879 727.796 71.9627 735.245C72.4154 737.146 71.8435 739.165 70.375 740.452L63.0516 746.875C60.9477 748.72 57.871 748.358 56.7808 745.781C55.5813 742.946 54.2539 738.83 53.261 733.331C51.0003 720.81 64.0952 711.12 66.8248 705.577C69.9075 699.317 69.4964 697.021 62.509 684.918C55.5216 672.814 55.5421 665.395 59.2208 658.624C61.9479 653.605 66.4655 650.835 70.429 649.718C71.2856 649.477 71.8987 650.465 71.4357 651.225C69.3959 654.574 66.8248 660.302 66.8248 666.345C66.8248 675.736 76.6894 681.162 78.3335 689.3C79.9776 697.438 78.7445 702.029 72.7846 710.168Z" fill="#E7EEFF"/>
<path d="M107.604 674.587C108.059 672.712 109.221 671.604 110.284 671.009C111.221 670.485 112.374 670.465 113.354 670.903C117.136 672.597 115.34 677.692 113.612 683.662C111.683 690.326 121.948 682.108 123.423 687.732C124.899 693.356 112.198 696.864 112.587 699.348C112.977 701.833 116.425 700.532 118.171 699.75C119.918 698.969 126.115 697.324 126.285 701.116C126.454 704.907 123.353 707.342 118.288 710.253C113.223 713.164 112.873 713.643 112.739 716.039C112.605 718.436 124.523 713.184 125.698 715.801C126.872 718.417 125.777 721.728 121.321 725.816C117.756 729.087 107.786 732.677 103.247 734.064L101.399 745.043L97.2116 744.338C97.2186 739.178 97.7204 733.851 97.9704 731.832C93.1047 727.161 83.0518 716.849 81.7656 712.977C80.1579 708.137 82.7377 704.002 85.9246 702.657C89.1114 701.311 93.0724 708.16 95.8612 710.78C98.65 713.4 102.017 707.784 96.9169 704.506C91.8166 701.229 87.7742 690.066 92.008 688.897C96.2417 687.727 95.8436 691.692 99.1602 691.175C102.477 690.658 96.079 679.099 99.4396 678.32C102.8 677.542 103.493 681.421 105.499 682.296C107.505 683.172 106.726 678.202 107.604 674.587Z" fill="url(#paint0_linear)"/>
<rect x="274" y="586" width="56" height="15" fill="#00DE91"/>
<path d="M123 533.5C123 531.015 125.015 529 127.5 529C129.985 529 132 531.015 132 533.5V544H123V533.5Z" fill="#0D1886"/>
<path d="M139 544.5C139 542.015 141.015 540 143.5 540C145.985 540 148 542.015 148 544.5V555H139V544.5Z" fill="#0D1886"/>
<path d="M109 551.5C109 549.015 111.015 547 113.5 547C115.985 547 118 549.015 118 551.5V562H109V551.5Z" fill="#0D1886"/>
<path d="M127 558.5C127 556.567 128.567 555 130.5 555C132.433 555 134 556.567 134 558.5V567H127V558.5Z" fill="#0D1886"/>
</g>
<defs>
<linearGradient id="paint0_linear" x1="111.022" y1="670.324" x2="98.5295" y2="744.56" gradientUnits="userSpaceOnUse">
<stop stop-color="#00DE91"/>
<stop offset="1" stop-color="#00B777"/>
</linearGradient>
<clipPath id="clip0">
<rect width="414" height="736" fill="white"/>
</clipPath>
</defs>
</svg>
