<svg width="1440" height="3253" viewBox="0 0 1440 3253" fill="none" xmlns="http://www.w3.org/2000/svg">
<g clip-path="url(#clip0)">
<rect width="1440" height="3253" fill="white"/>
<rect width="1440" height="1235" fill="url(#paint0_linear)"/>
<rect y="1263" width="1440" height="1687" fill="url(#paint1_linear)"/>
<rect y="1263" width="1440" height="1919" fill="url(#paint2_linear)"/>
<circle cx="240" cy="338" r="107" stroke="white" stroke-opacity="0.06" stroke-width="50"/>
<circle cx="1005" cy="963" r="107" stroke="white" stroke-opacity="0.03" stroke-width="50"/>
<circle cx="1063" cy="2502" r="107" stroke="white" stroke-opacity="0.03" stroke-width="50"/>
<circle cx="305" cy="999" r="107" stroke="white" stroke-opacity="0.06" stroke-width="50"/>
<path d="M387.01 223.819C387.01 225.108 385.966 226.152 384.678 226.152C383.391 226.152 382.347 225.108 382.347 223.819C382.347 222.531 383.391 221.487 384.678 221.487C385.966 221.487 387.01 222.531 387.01 223.819Z" fill="url(#paint3_linear)"/>
<path d="M1159.66 571.333C1159.66 572.621 1158.62 573.666 1157.33 573.666C1156.04 573.666 1155 572.621 1155 571.333C1155 570.044 1156.04 569 1157.33 569C1158.62 569 1159.66 570.044 1159.66 571.333Z" fill="url(#paint4_linear)"/>
<ellipse cx="203.994" cy="106.998" rx="6.99415" ry="6.99842" fill="url(#paint5_linear)"/>
<ellipse cx="667.994" cy="489.998" rx="6.99415" ry="6.99842" fill="url(#paint6_linear)"/>
<path d="M439.988 686.998C439.988 690.864 436.857 693.997 432.994 693.997C429.131 693.997 426 690.864 426 686.998C426 683.133 429.131 680 432.994 680C436.857 680 439.988 683.133 439.988 686.998Z" fill="url(#paint7_linear)"/>
<path d="M1018.99 386.998C1018.99 390.864 1015.86 393.997 1011.99 393.997C1008.13 393.997 1005 390.864 1005 386.998C1005 383.133 1008.13 380 1011.99 380C1015.86 380 1018.99 383.133 1018.99 386.998Z" fill="url(#paint8_linear)"/>
<path d="M798.988 647.998C798.988 651.864 795.857 654.997 791.994 654.997C788.131 654.997 785 651.864 785 647.998C785 644.133 788.131 641 791.994 641C795.857 641 798.988 644.133 798.988 647.998Z" fill="url(#paint9_linear)"/>
<path d="M404.495 338.127C404.495 340.059 402.929 341.626 400.998 341.626C399.067 341.626 397.501 340.059 397.501 338.127C397.501 336.194 399.067 334.628 400.998 334.628C402.929 334.628 404.495 336.194 404.495 338.127Z" fill="url(#paint10_linear)"/>
<path d="M930.994 331.499C930.994 333.432 929.428 334.998 927.497 334.998C925.566 334.998 924 333.432 924 331.499C924 329.567 925.566 328 927.497 328C929.428 328 930.994 329.567 930.994 331.499Z" fill="url(#paint11_linear)"/>
<path d="M814.994 397.499C814.994 399.432 813.428 400.998 811.497 400.998C809.566 400.998 808 399.432 808 397.499C808 395.567 809.566 394 811.497 394C813.428 394 814.994 395.567 814.994 397.499Z" fill="url(#paint12_linear)"/>
<ellipse cx="625.08" cy="319.082" rx="4.07992" ry="4.08241" fill="url(#paint13_linear)"/>
<ellipse cx="235.08" cy="754.082" rx="4.07992" ry="4.08241" fill="url(#paint14_linear)"/>
<ellipse cx="94.0799" cy="606.082" rx="4.07992" ry="4.08241" fill="url(#paint15_linear)"/>
<path d="M1114.08 460.486C1114.08 464.352 1110.95 467.485 1107.09 467.485C1103.23 467.485 1100.1 464.352 1100.1 460.486C1100.1 456.621 1103.23 453.488 1107.09 453.488C1110.95 453.488 1114.08 456.621 1114.08 460.486Z" fill="url(#paint16_linear)"/>
<path d="M986.994 463.499C986.994 465.432 985.428 466.998 983.497 466.998C981.566 466.998 980 465.432 980 463.499C980 461.567 981.566 460 983.497 460C985.428 460 986.994 461.567 986.994 463.499Z" fill="url(#paint17_linear)"/>
<ellipse cx="644.766" cy="2175.04" rx="6.99415" ry="6.99842" transform="rotate(-165 644.766 2175.04)" fill="url(#paint18_linear)"/>
<path d="M915.811 2005.76C916.812 2002.03 920.647 1999.81 924.379 2000.81C928.11 2001.81 930.323 2005.65 929.323 2009.38C928.323 2013.11 924.487 2015.33 920.756 2014.33C917.025 2013.33 914.811 2009.49 915.811 2005.76Z" fill="url(#paint19_linear)"/>
<ellipse cx="674.766" cy="2485.04" rx="6.99415" ry="6.99842" transform="rotate(-165 674.766 2485.04)" fill="url(#paint20_linear)"/>
<path d="M945.99 2353.76C946.99 2350.03 950.826 2347.81 954.557 2348.81C958.288 2349.81 960.502 2353.65 959.501 2357.38C958.501 2361.11 954.665 2363.33 950.934 2362.33C947.203 2361.33 944.989 2357.49 945.99 2353.76Z" fill="url(#paint21_linear)"/>
<path d="M1083.87 2153.44C1086.01 2145.46 1094.2 2140.73 1102.17 2142.87C1110.14 2145 1114.87 2153.2 1112.73 2161.17C1110.59 2169.15 1102.4 2173.88 1094.43 2171.74C1086.46 2169.61 1081.73 2161.41 1083.87 2153.44Z" fill="url(#paint22_linear)"/>
<path d="M298.109 2263.32C299.11 2259.59 302.945 2257.37 306.676 2258.37C310.408 2259.37 312.621 2263.21 311.621 2266.94C310.621 2270.68 306.785 2272.89 303.054 2271.89C299.323 2270.89 297.109 2267.06 298.109 2263.32Z" fill="url(#paint23_linear)"/>
<path d="M298.109 1748.76C299.11 1745.03 302.945 1742.81 306.676 1743.81C310.408 1744.81 312.621 1748.65 311.621 1752.38C310.621 1756.11 306.785 1758.33 303.054 1757.33C299.323 1756.33 297.109 1752.49 298.109 1748.76Z" fill="url(#paint24_linear)"/>
<path d="M559.129 1988.52C560.129 1984.78 563.965 1982.57 567.696 1983.57C571.427 1984.57 573.641 1988.4 572.64 1992.14C571.64 1995.87 567.804 1998.09 564.073 1997.09C560.342 1996.09 558.128 1992.25 559.129 1988.52Z" fill="url(#paint25_linear)"/>
<path d="M499.906 2343.38C500.406 2341.51 502.324 2340.41 504.189 2340.91C506.055 2341.4 507.162 2343.32 506.662 2345.19C506.161 2347.06 504.244 2348.16 502.378 2347.66C500.512 2347.17 499.406 2345.25 499.906 2343.38Z" fill="url(#paint26_linear)"/>
<path d="M206.238 2088.09C207.238 2084.35 211.074 2082.14 214.805 2083.14C218.536 2084.14 220.75 2087.97 219.749 2091.71C218.749 2095.44 214.913 2097.66 211.182 2096.66C207.451 2095.66 205.237 2091.82 206.238 2088.09Z" fill="url(#paint27_linear)"/>
<path d="M392.906 2141.38C393.406 2139.51 395.324 2138.41 397.189 2138.91C399.055 2139.4 400.162 2141.32 399.662 2143.19C399.161 2145.06 397.244 2146.16 395.378 2145.66C393.512 2145.17 392.406 2143.25 392.906 2141.38Z" fill="url(#paint28_linear)"/>
<path d="M1137.5 54C1145.5 32.8 1122.5 8.5 1110 -1H1462V218.5C1447.17 231.167 1413 244.2 1395 195C1372.5 133.5 1350.5 134.5 1340 145.5C1329.5 156.5 1350.5 195 1328.5 208C1306.5 221 1287 212 1287 195C1287 185 1296.5 178.5 1291.5 167C1286.5 155.5 1269.01 152.861 1261 156C1224 170.5 1236.5 195 1230 208C1223.5 221 1196 228.5 1187.5 205C1179 181.5 1220 153 1224 140.5C1228 128 1225 106.5 1209 106.5C1193 106.5 1174 115.5 1154 106.5C1134 97.5 1127.5 80.5 1137.5 54Z" fill="#161966"/>
<path d="M424.703 1406.53C413.271 1376.26 446.138 1341.56 464 1328H-39V1641.41C-17.8035 1659.49 31.0199 1678.1 56.7415 1607.85C88.8935 1520.04 120.331 1521.47 135.335 1537.18C150.34 1552.88 120.331 1607.85 151.768 1626.42C183.206 1644.98 211.071 1632.13 211.071 1607.85C211.071 1593.58 197.496 1584.29 204.641 1567.87C211.786 1551.45 236.779 1547.69 248.224 1552.17C301.097 1572.87 283.234 1607.85 292.523 1626.42C301.811 1644.98 341.108 1655.69 353.254 1622.13C365.401 1588.58 306.812 1547.88 301.097 1530.04C295.381 1512.19 299.668 1481.49 322.531 1481.49C345.395 1481.49 372.545 1494.34 401.125 1481.49C429.705 1468.64 438.993 1444.37 424.703 1406.53Z" fill="#161966"/>
<path d="M1022.76 1023.7C1038.12 1055.14 1006.28 1095.82 988.437 1112.23L1529.58 1061.31L1497.82 723.866C1473.18 706.539 1418.77 691.445 1398.22 769.686C1372.53 867.486 1338.56 869.132 1320.83 853.74C1303.09 838.349 1329.81 776.123 1294.11 759.321C1258.4 742.519 1229.73 759.176 1232.19 785.31C1233.63 800.683 1249.18 809.302 1243.16 827.704C1237.13 846.107 1210.63 852.694 1197.86 849.027C1138.88 832.089 1154.55 792.616 1142.68 773.571C1130.81 754.526 1087.44 746.975 1077.78 784.332C1068.11 821.688 1135.26 859.571 1143.22 878.209C1151.18 896.847 1149.68 930.333 1125.08 932.648C1100.48 934.963 1069.97 923.875 1040.53 940.605C1011.08 957.334 1003.55 984.409 1022.76 1023.7Z" fill="#161966"/>
<circle cx="1226" cy="410" r="16" transform="rotate(-90 1226 410)" fill="url(#paint29_linear)"/>
<circle cx="1084" cy="1610" r="16" transform="rotate(-90 1084 1610)" fill="url(#paint30_linear)"/>
<circle cx="1466" cy="338" r="107" stroke="white" stroke-opacity="0.06" stroke-width="50"/>
<path d="M1225.2 865.105C1224.1 860.061 1226.27 856.293 1228.17 854.33C1228.91 853.558 1229.92 853.084 1230.97 852.886C1241.46 850.923 1242.78 863.001 1245.18 876.908C1247.7 891.487 1259.72 866.157 1267.79 875.568C1275.87 884.978 1254.78 903.545 1257.84 907.947C1260.9 912.349 1266.3 906.639 1268.92 903.512C1271.54 900.386 1281.9 891.454 1285.76 898.567C1289.62 905.681 1285.94 913.242 1278.94 923.546C1271.94 933.85 1271.71 935.094 1273.69 939.815C1275.67 944.536 1293.63 923.354 1298.32 927.277C1303.01 931.201 1304 938.57 1299.26 950.565C1295.48 960.161 1279.7 976.341 1272.29 983.232L1278.98 1006.01L1270.29 1008.56C1265.5 998.659 1261.49 987.975 1260.09 983.87C1246.4 979.447 1217.51 969.044 1211.44 962.817C1203.84 955.034 1204.93 944.698 1209.79 939.147C1214.65 933.596 1228.63 943.038 1236.42 945.463C1244.21 947.887 1245.43 933.978 1232.6 932.447C1219.76 930.916 1201.6 913.276 1208.63 907.087C1215.66 900.898 1218.59 908.873 1224.47 904.79C1230.35 900.706 1207.3 884.502 1213.02 879.876C1218.74 875.25 1223.69 882.045 1228.35 881.853C1233.01 881.662 1226.89 872.857 1225.2 865.105Z" fill="url(#paint31_linear)" fill-opacity="0.5"/>
<path d="M1349.92 895.873C1351.58 892.387 1354.52 891.035 1356.64 890.644C1357.69 890.45 1358.78 890.685 1359.72 891.205C1366.77 895.111 1361.83 903.192 1356.67 912.887C1351.2 923.19 1370.93 913.209 1371.42 922.977C1371.9 932.745 1349.78 934.129 1349.57 938.354C1349.35 942.578 1355.47 941.628 1358.62 940.945C1361.76 940.263 1372.53 939.696 1371.5 945.996C1370.47 952.296 1364.53 955.232 1355.18 958.273C1345.84 961.315 1345.1 961.982 1344.05 965.88C1343 969.779 1364.43 965.252 1365.46 969.965C1366.49 974.679 1363.54 979.749 1354.8 984.939C1347.8 989.091 1330.15 991.557 1322.2 992.27L1315.36 1009.7L1308.71 1007.1C1310.51 998.606 1313.17 990.01 1314.28 986.773C1307.89 977.403 1294.9 956.956 1294.12 950.138C1293.15 941.616 1298.82 935.7 1304.53 934.587C1310.25 933.474 1314.4 946.116 1318.08 951.392C1321.77 956.667 1329.25 948.587 1321.99 941.43C1314.73 934.273 1311.93 914.501 1319.3 914.039C1326.68 913.577 1324.65 919.966 1330.29 920.261C1335.93 920.556 1329.39 899.318 1335.19 899.197C1340.99 899.077 1340.79 905.703 1343.79 907.836C1346.79 909.97 1347.22 901.521 1349.92 895.873Z" fill="url(#paint32_linear)" fill-opacity="0.8"/>
<path d="M192.5 901.5C132.1 825.1 29.6667 811 -14 813.5V1123H1516.5V791C1501.33 827.167 1474.8 931 1342 967C1176 1012 1141.5 923.5 962 967C811.859 1003.39 785 1024 684.5 1018.5C551 1011.19 535.5 967 421.5 967C365.106 967 268 997 192.5 901.5Z" fill="white"/>
<path d="M1283.57 1439.61C1332.4 1492.36 1398.6 1524 1440 1521.07L1440 1204L-11 1204L-11 1541C3.3789 1498.61 12.8911 1389.2 138.793 1347.01C296.17 1294.26 320.634 1368.1 495.736 1368.1C601.918 1368.1 682.503 1320.05 777.783 1326.49C904.348 1335.06 919.517 1386.86 1043.24 1368.1C1096.31 1360.06 1196.66 1345.71 1283.57 1439.61Z" fill="white"/>
<rect y="1046" width="1440" height="168" fill="white"/>
<circle cx="234.5" cy="1941.5" r="87.5" stroke="white" stroke-opacity="0.06" stroke-width="50"/>
<circle cx="979.5" cy="1168.5" r="59.5" stroke="#252A99" stroke-opacity="0.06" stroke-width="40"/>
<path d="M834 2899.84C801.6 2925.04 773.167 3003.67 763 3039.84V3121.84H1421L1456.5 2436.84C1452.5 2437.34 1353.33 2391.95 1276.5 2436.84C1232 2462.84 1222.89 2522.84 1213 2571.34C1197 2649.84 1169.5 2631.84 1102.5 2689.84C1035.5 2747.84 1071 2846.84 1018 2848.84C965 2850.84 874.5 2868.34 834 2899.84Z" fill="#161966"/>
<path d="M603.5 2911.84C635.9 2937.04 664.333 3015.67 674.5 3051.84V3133.84H16.5L-19 2448.84C-15 2449.34 60.6736 2424.61 137.5 2469.5C182 2495.5 214.614 2534.84 224.5 2583.34C240.5 2661.84 268 2643.84 335 2701.84C402 2759.84 366.5 2858.84 419.5 2860.84C472.5 2862.84 563 2880.34 603.5 2911.84Z" fill="#161966"/>
<path d="M1145.76 2598.28C1146.14 2594.13 1148.65 2591.68 1150.64 2590.53C1151.57 2590 1152.67 2589.84 1153.73 2590C1162.33 2591.24 1160.36 2601.16 1158.77 2612.8C1157.09 2625.11 1173.14 2607.87 1177.22 2617.45C1181.3 2627.03 1159.71 2636.56 1161.05 2640.86C1162.39 2645.16 1168.16 2641.95 1171.05 2640.11C1173.94 2638.27 1184.49 2633.74 1185.78 2640.41C1187.07 2647.09 1182.21 2652.21 1174 2658.69C1165.78 2665.17 1165.29 2666.11 1165.67 2670.39C1166.06 2674.67 1185.81 2662.25 1188.57 2666.58C1191.34 2670.91 1190.26 2677.07 1183.43 2685.47C1177.97 2692.2 1161.24 2701.16 1153.56 2704.8L1153.15 2724.74L1145.55 2724.58C1144.21 2715.44 1143.71 2705.87 1143.63 2702.22C1133.79 2695.22 1113.29 2679.57 1110 2673.05C1105.89 2664.89 1109.38 2656.89 1114.67 2653.68C1119.97 2650.46 1128.77 2661.56 1134.4 2665.47C1140.02 2669.39 1144.52 2658.56 1134.63 2654.08C1124.74 2649.61 1114.66 2630.88 1121.86 2627.71C1129.06 2624.53 1129.39 2631.66 1135.13 2629.88C1140.87 2628.1 1126.52 2609.29 1132.27 2607.03C1138.02 2604.77 1140.26 2611.47 1144.04 2612.49C1147.82 2613.52 1145.15 2604.92 1145.76 2598.28Z" fill="url(#paint33_linear)"/>
<path d="M991.805 2798.75C991.725 2795.42 993.406 2793.19 994.899 2792C995.738 2791.33 996.82 2791.04 997.892 2791.11C1004.88 2791.5 1004.21 2799.85 1004.02 2809.55C1003.81 2819.94 1015.48 2804.07 1019.79 2811.63C1024.11 2819.2 1007.09 2829.2 1008.62 2832.64C1010.15 2836.09 1014.63 2832.87 1016.86 2831.06C1019.08 2829.25 1027.41 2824.47 1029.13 2829.89C1030.84 2835.31 1027.3 2840.03 1021.1 2846.21C1014.9 2852.39 1014.58 2853.22 1015.32 2856.74C1016.05 2860.26 1031.26 2848.03 1033.97 2851.36C1036.69 2854.69 1036.39 2859.91 1031.53 2867.55C1027.64 2873.67 1014.6 2882.73 1008.57 2886.5L1010.16 2903.1L1003.83 2903.7C1001.84 2896.24 1000.5 2888.33 1000.07 2885.32C991.222 2880.44 972.676 2869.42 969.313 2864.32C965.11 2857.94 967.238 2850.96 971.327 2847.78C975.416 2844.59 983.804 2852.97 988.855 2855.67C993.907 2858.38 996.6 2848.95 987.949 2846.19C979.298 2843.42 969.119 2828.84 974.791 2825.51C980.463 2822.17 981.425 2828.06 986.023 2826.03C990.622 2823.99 976.88 2809.75 981.441 2807.32C986.001 2804.89 988.508 2810.23 991.75 2810.72C994.992 2811.21 991.937 2804.32 991.805 2798.75Z" fill="url(#paint34_linear)"/>
<path d="M1370.8 2419.75C1370.73 2416.42 1372.41 2414.19 1373.9 2413C1374.74 2412.33 1375.82 2412.04 1376.89 2412.11C1383.88 2412.5 1383.21 2420.85 1383.02 2430.55C1382.81 2440.94 1394.48 2425.07 1398.79 2432.63C1403.11 2440.2 1386.09 2450.2 1387.62 2453.64C1389.15 2457.09 1393.63 2453.87 1395.86 2452.06C1398.08 2450.25 1406.41 2445.47 1408.13 2450.89C1409.84 2456.31 1406.3 2461.03 1400.1 2467.21C1393.9 2473.39 1393.58 2474.22 1394.32 2477.74C1395.05 2481.26 1410.26 2469.03 1412.97 2472.36C1415.69 2475.69 1415.39 2480.91 1410.53 2488.55C1406.64 2494.67 1393.6 2503.73 1387.57 2507.5L1389.16 2524.1L1382.83 2524.7C1380.84 2517.24 1379.5 2509.33 1379.07 2506.32C1370.22 2501.44 1351.68 2490.42 1348.31 2485.32C1344.11 2478.94 1346.24 2471.96 1350.33 2468.78C1354.42 2465.59 1362.8 2473.97 1367.86 2476.67C1372.91 2479.38 1375.6 2469.95 1366.95 2467.19C1358.3 2464.42 1348.12 2449.84 1353.79 2446.51C1359.46 2443.17 1360.43 2449.06 1365.02 2447.03C1369.62 2444.99 1355.88 2430.75 1360.44 2428.32C1365 2425.89 1367.51 2431.23 1370.75 2431.72C1373.99 2432.21 1370.94 2425.32 1370.8 2419.75Z" fill="url(#paint35_linear)"/>
<path d="M1315.98 2510.5C1315.39 2509.04 1315.58 2507.75 1315.97 2506.81C1316.39 2505.81 1317.32 2505.1 1318.38 2504.94C1321.76 2504.44 1323.05 2508.87 1324.82 2513.86C1326.84 2519.54 1329.92 2508.53 1333.82 2511.76C1337.71 2514.98 1330.52 2523.9 1332.05 2525.46C1333.59 2527.01 1335.36 2524.35 1336.2 2522.91C1337.04 2521.47 1340.58 2517.17 1342.62 2519.76C1344.67 2522.35 1343.71 2525.64 1341.61 2530.27C1339.51 2534.89 1339.5 2535.41 1340.62 2537.17C1341.74 2538.93 1347.5 2529.17 1349.65 2530.43C1351.81 2531.68 1352.72 2534.57 1351.64 2539.72C1350.78 2543.84 1345.56 2551.43 1343.06 2554.71L1347.32 2563.4L1344.01 2565.02C1341.4 2561.38 1339.05 2557.36 1338.2 2555.81C1332.4 2554.97 1320.07 2552.79 1317.2 2550.71C1313.61 2548.1 1313.33 2543.88 1314.9 2541.31C1316.47 2538.74 1322.74 2541.57 1326.04 2542.01C1329.34 2542.45 1328.87 2536.77 1323.6 2537.04C1318.34 2537.32 1309.83 2531.48 1312.22 2528.51C1314.62 2525.54 1316.35 2528.54 1318.43 2526.49C1320.51 2524.45 1310.13 2519.53 1312.11 2517.27C1314.09 2515.02 1316.54 2517.41 1318.4 2517.01C1320.26 2516.61 1317.19 2513.49 1315.98 2510.5Z" fill="url(#paint36_linear)"/>
<path d="M419.05 2776.8C419.772 2772.99 418.196 2770.16 416.714 2768.59C415.977 2767.81 414.961 2767.35 413.896 2767.22C405.877 2766.19 405.086 2775.66 403.506 2786.55C401.827 2798.12 391.791 2778.36 385.609 2785.97C379.427 2793.57 396.485 2807.8 394.157 2811.35C391.83 2814.89 387.441 2810.49 385.304 2808.07C383.167 2805.66 374.797 2798.82 371.897 2804.52C368.997 2810.22 372.063 2816.12 377.812 2824.12C383.562 2832.11 383.765 2833.09 382.303 2836.86C380.84 2840.64 366.199 2824.28 362.574 2827.48C358.949 2830.68 358.326 2836.52 362.32 2845.9C365.515 2853.4 378.322 2865.86 384.326 2871.15L379.518 2889.29L386.438 2891.12C390.02 2883.2 392.958 2874.67 393.98 2871.39C404.703 2867.61 427.317 2858.78 431.987 2853.73C437.826 2847.42 436.744 2839.27 432.788 2834.99C428.832 2830.7 417.982 2838.46 411.877 2840.54C405.771 2842.62 404.512 2831.66 414.624 2830.18C424.736 2828.69 438.715 2814.37 433.029 2809.63C427.343 2804.89 425.194 2811.25 420.462 2808.15C415.73 2805.04 433.601 2791.75 428.984 2788.22C424.367 2784.68 420.602 2790.15 416.913 2790.1C413.224 2790.05 417.879 2782.96 419.05 2776.8Z" fill="url(#paint37_linear)"/>
<path d="M236.561 2540.91C236.959 2536.26 239.797 2533.54 241.988 2532.3C242.922 2531.77 244.023 2531.61 245.088 2531.75C254.701 2532.95 252.595 2543.89 250.934 2556.72C249.185 2570.23 266.642 2551.21 271.188 2561.69C275.734 2572.16 252.139 2582.76 253.637 2587.47C255.136 2592.17 261.438 2588.61 264.592 2586.57C267.747 2584.54 279.28 2579.49 280.743 2586.8C282.205 2594.1 276.917 2599.76 267.96 2606.92C259.003 2614.08 258.468 2615.11 258.924 2619.8C259.381 2624.49 280.934 2610.74 283.996 2615.47C287.057 2620.19 285.922 2626.94 278.499 2636.21C272.561 2643.62 254.291 2653.57 245.898 2657.62L245.597 2679.47L237.261 2679.36C235.731 2669.34 235.112 2658.86 234.993 2654.86C224.155 2647.26 201.566 2630.26 197.912 2623.13C193.345 2614.22 197.113 2605.42 202.894 2601.86C208.675 2598.3 218.409 2610.4 224.604 2614.65C230.798 2618.9 235.652 2606.99 224.776 2602.16C213.899 2597.33 202.717 2576.88 210.582 2573.34C218.447 2569.81 218.86 2577.62 225.141 2575.62C231.421 2573.63 215.55 2553.11 221.838 2550.6C228.125 2548.08 230.63 2555.4 234.784 2556.5C238.937 2557.6 235.94 2548.19 236.561 2540.91Z" fill="url(#paint38_linear)" fill-opacity="0.5"/>
<path d="M1206.71 2622.99C1206.76 2621.43 1207.46 2620.32 1208.2 2619.62C1208.98 2618.88 1210.12 2618.61 1211.16 2618.89C1214.45 2619.8 1213.83 2624.38 1213.43 2629.66C1212.97 2635.67 1220.25 2626.86 1222.5 2631.38C1224.75 2635.91 1214.56 2641.14 1215.33 2643.19C1216.1 2645.23 1218.81 2643.52 1220.16 2642.54C1221.5 2641.57 1226.49 2639.07 1227.3 2642.27C1228.12 2645.47 1225.91 2648.09 1222.11 2651.46C1218.32 2654.83 1218.11 2655.3 1218.42 2657.37C1218.73 2659.43 1227.94 2652.85 1229.4 2654.87C1230.87 2656.89 1230.52 2659.9 1227.45 2664.17C1225 2667.58 1217.15 2672.41 1213.53 2674.39L1213.9 2684.06L1210.21 2684.2C1209.3 2679.81 1208.79 2675.19 1208.64 2673.42C1203.67 2670.31 1193.29 2663.31 1191.51 2660.24C1189.29 2656.41 1190.75 2652.43 1193.22 2650.72C1195.7 2649.01 1200.28 2654.14 1203.12 2655.88C1205.96 2657.61 1207.83 2652.24 1202.91 2650.35C1197.99 2648.46 1192.57 2639.68 1195.97 2637.93C1199.36 2636.19 1199.73 2639.64 1202.46 2638.61C1205.19 2637.58 1197.7 2628.87 1200.42 2627.62C1203.14 2626.36 1204.42 2629.54 1206.28 2629.93C1208.14 2630.32 1206.6 2626.23 1206.71 2622.99Z" fill="url(#paint39_linear)" fill-opacity="0.4"/>
<path fill-rule="evenodd" clip-rule="evenodd" d="M135.069 2580.37L135.065 2580.36C94.0379 2510.45 58.6655 2450.18 -20 2435V3182H666H763H1453V2446C1373.93 2460.95 1338.38 2520.34 1297.14 2589.22L1297.13 2589.24C1294.5 2593.63 1291.86 2598.05 1289.17 2602.5C1266.38 2640.32 1229.96 2659.55 1192.82 2679.16C1143.75 2705.07 1093.42 2731.65 1071.62 2802.68C1048.51 2877.96 974.609 2894.57 908.367 2909.46C850.772 2922.41 798.967 2934.05 791.372 2981.82C786.473 3012.64 768.382 3044.14 747.396 3073.1C719.315 3100.5 691.94 3082.9 682.037 3071.5C661.149 3042.09 643.141 3010.12 638.265 2978.83C630.709 2930.35 579.167 2918.53 521.865 2905.39C455.959 2890.27 382.434 2873.41 359.446 2797.01C337.755 2724.92 287.68 2697.94 238.853 2671.64C201.907 2651.74 165.675 2632.23 142.994 2593.84C140.321 2589.32 137.683 2584.82 135.069 2580.37Z" fill="white"/>
</g>
<defs>
<linearGradient id="paint0_linear" x1="1274.5" y1="172.618" x2="1118.42" y2="1234.11" gradientUnits="userSpaceOnUse">
<stop offset="0.607735" stop-color="#252A99"/>
<stop offset="1" stop-color="#12286F"/>
</linearGradient>
<linearGradient id="paint1_linear" x1="1274.5" y1="1498.79" x2="988.497" y2="2922.7" gradientUnits="userSpaceOnUse">
<stop offset="0.541436" stop-color="#252A99"/>
<stop offset="1" stop-color="#12245F"/>
</linearGradient>
<linearGradient id="paint2_linear" x1="1274.5" y1="1531.22" x2="908.595" y2="3132.68" gradientUnits="userSpaceOnUse">
<stop offset="0.541436" stop-color="#252A99"/>
<stop offset="1" stop-color="#12245F"/>
</linearGradient>
<linearGradient id="paint3_linear" x1="384.678" y1="221.487" x2="384.678" y2="226.152" gradientUnits="userSpaceOnUse">
<stop stop-color="#FFCD1C"/>
<stop offset="1" stop-color="#FF9317"/>
</linearGradient>
<linearGradient id="paint4_linear" x1="1157.33" y1="569" x2="1157.33" y2="573.666" gradientUnits="userSpaceOnUse">
<stop stop-color="#FFCD1C"/>
<stop offset="1" stop-color="#FF9317"/>
</linearGradient>
<linearGradient id="paint5_linear" x1="203.994" y1="100" x2="203.994" y2="113.997" gradientUnits="userSpaceOnUse">
<stop stop-color="#FFCD1C"/>
<stop offset="1" stop-color="#FF9317"/>
</linearGradient>
<linearGradient id="paint6_linear" x1="667.994" y1="483" x2="667.994" y2="496.997" gradientUnits="userSpaceOnUse">
<stop stop-color="#FFCD1C"/>
<stop offset="1" stop-color="#FF9317"/>
</linearGradient>
<linearGradient id="paint7_linear" x1="432.994" y1="680" x2="432.994" y2="693.997" gradientUnits="userSpaceOnUse">
<stop stop-color="#FFCD1C"/>
<stop offset="1" stop-color="#FF9317"/>
</linearGradient>
<linearGradient id="paint8_linear" x1="1011.99" y1="380" x2="1011.99" y2="393.997" gradientUnits="userSpaceOnUse">
<stop stop-color="#FFCD1C"/>
<stop offset="1" stop-color="#FF9317"/>
</linearGradient>
<linearGradient id="paint9_linear" x1="791.994" y1="641" x2="791.994" y2="654.997" gradientUnits="userSpaceOnUse">
<stop stop-color="#FFCD1C"/>
<stop offset="1" stop-color="#FF9317"/>
</linearGradient>
<linearGradient id="paint10_linear" x1="400.998" y1="334.628" x2="400.998" y2="341.626" gradientUnits="userSpaceOnUse">
<stop stop-color="#FFCD1C"/>
<stop offset="1" stop-color="#FF9317"/>
</linearGradient>
<linearGradient id="paint11_linear" x1="927.497" y1="328" x2="927.497" y2="334.998" gradientUnits="userSpaceOnUse">
<stop stop-color="#FFCD1C"/>
<stop offset="1" stop-color="#FF9317"/>
</linearGradient>
<linearGradient id="paint12_linear" x1="811.497" y1="394" x2="811.497" y2="400.998" gradientUnits="userSpaceOnUse">
<stop stop-color="#FFCD1C"/>
<stop offset="1" stop-color="#FF9317"/>
</linearGradient>
<linearGradient id="paint13_linear" x1="625.08" y1="315" x2="625.08" y2="323.165" gradientUnits="userSpaceOnUse">
<stop stop-color="#FFCD1C"/>
<stop offset="1" stop-color="#FF9317"/>
</linearGradient>
<linearGradient id="paint14_linear" x1="235.08" y1="750" x2="235.08" y2="758.165" gradientUnits="userSpaceOnUse">
<stop stop-color="#FFCD1C"/>
<stop offset="1" stop-color="#FF9317"/>
</linearGradient>
<linearGradient id="paint15_linear" x1="94.0799" y1="602" x2="94.0799" y2="610.165" gradientUnits="userSpaceOnUse">
<stop stop-color="#FFCD1C"/>
<stop offset="1" stop-color="#FF9317"/>
</linearGradient>
<linearGradient id="paint16_linear" x1="1107.09" y1="453.488" x2="1107.09" y2="467.485" gradientUnits="userSpaceOnUse">
<stop stop-color="#FFCD1C"/>
<stop offset="1" stop-color="#FF9317"/>
</linearGradient>
<linearGradient id="paint17_linear" x1="983.497" y1="460" x2="983.497" y2="466.998" gradientUnits="userSpaceOnUse">
<stop stop-color="#FFCD1C"/>
<stop offset="1" stop-color="#FF9317"/>
</linearGradient>
<linearGradient id="paint18_linear" x1="644.766" y1="2168.04" x2="644.766" y2="2182.03" gradientUnits="userSpaceOnUse">
<stop stop-color="#FFCD1C"/>
<stop offset="1" stop-color="#FF9317"/>
</linearGradient>
<linearGradient id="paint19_linear" x1="920.756" y1="2014.33" x2="924.379" y2="2000.81" gradientUnits="userSpaceOnUse">
<stop stop-color="#FFCD1C"/>
<stop offset="1" stop-color="#FF9317"/>
</linearGradient>
<linearGradient id="paint20_linear" x1="674.766" y1="2478.04" x2="674.766" y2="2492.03" gradientUnits="userSpaceOnUse">
<stop stop-color="#FFCD1C"/>
<stop offset="1" stop-color="#FF9317"/>
</linearGradient>
<linearGradient id="paint21_linear" x1="950.934" y1="2362.33" x2="954.557" y2="2348.81" gradientUnits="userSpaceOnUse">
<stop stop-color="#FFCD1C"/>
<stop offset="1" stop-color="#FF9317"/>
</linearGradient>
<linearGradient id="paint22_linear" x1="1094.43" y1="2171.74" x2="1102.17" y2="2142.87" gradientUnits="userSpaceOnUse">
<stop stop-color="#FFCD1C"/>
<stop offset="1" stop-color="#FF9317"/>
</linearGradient>
<linearGradient id="paint23_linear" x1="303.054" y1="2271.89" x2="306.676" y2="2258.37" gradientUnits="userSpaceOnUse">
<stop stop-color="#FFCD1C"/>
<stop offset="1" stop-color="#FF9317"/>
</linearGradient>
<linearGradient id="paint24_linear" x1="303.054" y1="1757.33" x2="306.676" y2="1743.81" gradientUnits="userSpaceOnUse">
<stop stop-color="#FFCD1C"/>
<stop offset="1" stop-color="#FF9317"/>
</linearGradient>
<linearGradient id="paint25_linear" x1="564.073" y1="1997.09" x2="567.696" y2="1983.57" gradientUnits="userSpaceOnUse">
<stop stop-color="#FFCD1C"/>
<stop offset="1" stop-color="#FF9317"/>
</linearGradient>
<linearGradient id="paint26_linear" x1="502.378" y1="2347.66" x2="504.189" y2="2340.91" gradientUnits="userSpaceOnUse">
<stop stop-color="#FFCD1C"/>
<stop offset="1" stop-color="#FF9317"/>
</linearGradient>
<linearGradient id="paint27_linear" x1="211.182" y1="2096.66" x2="214.805" y2="2083.14" gradientUnits="userSpaceOnUse">
<stop stop-color="#FFCD1C"/>
<stop offset="1" stop-color="#FF9317"/>
</linearGradient>
<linearGradient id="paint28_linear" x1="395.378" y1="2145.66" x2="397.189" y2="2138.91" gradientUnits="userSpaceOnUse">
<stop stop-color="#FFCD1C"/>
<stop offset="1" stop-color="#FF9317"/>
</linearGradient>
<linearGradient id="paint29_linear" x1="1226" y1="394" x2="1226" y2="426" gradientUnits="userSpaceOnUse">
<stop stop-color="#FFCD1C"/>
<stop offset="1" stop-color="#FF9317"/>
</linearGradient>
<linearGradient id="paint30_linear" x1="1084" y1="1594" x2="1084" y2="1626" gradientUnits="userSpaceOnUse">
<stop stop-color="#FFCD1C"/>
<stop offset="1" stop-color="#FF9317"/>
</linearGradient>
<linearGradient id="paint31_linear" x1="1227.78" y1="853.743" x2="1273.03" y2="1007.76" gradientUnits="userSpaceOnUse">
<stop stop-color="#00DE91"/>
<stop offset="1" stop-color="#00B777"/>
</linearGradient>
<linearGradient id="paint32_linear" x1="1357.02" y1="890.037" x2="1310.8" y2="1007.92" gradientUnits="userSpaceOnUse">
<stop stop-color="#00BF7C"/>
<stop offset="1" stop-color="#00B777"/>
</linearGradient>
<linearGradient id="paint33_linear" x1="1150.7" y1="2589.84" x2="1147.94" y2="2724.63" gradientUnits="userSpaceOnUse">
<stop stop-color="#00DE91"/>
<stop offset="1" stop-color="#00B777"/>
</linearGradient>
<linearGradient id="paint34_linear" x1="995.097" y1="2791.26" x2="1005.82" y2="2903.51" gradientUnits="userSpaceOnUse">
<stop stop-color="#00BF7C"/>
<stop offset="1" stop-color="#00B777"/>
</linearGradient>
<linearGradient id="paint35_linear" x1="1374.1" y1="2412.26" x2="1384.82" y2="2524.51" gradientUnits="userSpaceOnUse">
<stop stop-color="#00BF7C"/>
<stop offset="1" stop-color="#00754C"/>
</linearGradient>
<linearGradient id="paint36_linear" x1="1316.23" y1="2505.75" x2="1345.05" y2="2564.51" gradientUnits="userSpaceOnUse">
<stop stop-color="#00BF7C"/>
<stop offset="1" stop-color="#00754C"/>
</linearGradient>
<linearGradient id="paint37_linear" x1="416.77" y1="2767.87" x2="384.26" y2="2890.55" gradientUnits="userSpaceOnUse">
<stop stop-color="#00DE91"/>
<stop offset="1" stop-color="#00B777"/>
</linearGradient>
<linearGradient id="paint38_linear" x1="241.919" y1="2531.62" x2="239.885" y2="2679.39" gradientUnits="userSpaceOnUse">
<stop stop-color="#00DE91"/>
<stop offset="1" stop-color="#00B777"/>
</linearGradient>
<linearGradient id="paint39_linear" x1="1208.86" y1="2618.76" x2="1211.37" y2="2684.16" gradientUnits="userSpaceOnUse">
<stop stop-color="#00BF7C"/>
<stop offset="1" stop-color="#00754C"/>
</linearGradient>
<clipPath id="clip0">
<rect width="1440" height="3253" fill="white"/>
</clipPath>
</defs>
</svg>
