<svg width="414" height="736" viewBox="0 0 414 736" fill="none" xmlns="http://www.w3.org/2000/svg">
<g clip-path="url(#clip0)">
<rect width="414" height="736" fill="#0D1886"/>
<circle cx="380.5" cy="423.5" r="69" stroke="#FFC41B" stroke-width="25"/>
<path d="M79.1162 530.503C37.0059 573.387 0.368422 565.301 -25 567.41V608.532H457V522.596C446.43 537.534 428.461 567.41 381.952 567.41C311.66 567.41 307 550.766 252.467 522.596C203.945 497.532 129.853 478.834 79.1162 530.503Z" fill="white"/>
<path d="M62.1162 530.737C20.0059 573.621 -16.6316 565.535 -42 567.644V608.766H440V522.83C429.43 537.768 411.461 567.644 364.952 567.644C294.66 567.644 271.028 549.88 235.467 522.83C192 489.766 112.853 479.067 62.1162 530.737Z" fill="#90AFFE"/>
<path d="M192 522.266C192 520.333 193.567 518.766 195.5 518.766V518.766C197.433 518.766 199 520.333 199 522.266V530.766H192V522.266Z" fill="#0D1886"/>
<path d="M205 531.266C205 528.781 207.015 526.766 209.5 526.766V526.766C211.985 526.766 214 528.781 214 531.266V542.766H205V531.266Z" fill="#0D1886"/>
<path d="M318 604.266C318 601.781 320.015 599.766 322.5 599.766V599.766C324.985 599.766 327 601.781 327 604.266V615.766H318V604.266Z" fill="#EC7E00"/>
<path d="M301 588.266C301 585.781 303.015 583.766 305.5 583.766V583.766C307.985 583.766 310 585.781 310 588.266V599.766H301V588.266Z" fill="#EC7E00"/>
<path d="M336 594.266C336 589.572 339.806 585.766 344.5 585.766V585.766C349.194 585.766 353 589.572 353 594.266V615.766H336V594.266Z" fill="#EC7E00"/>
<rect y="579" width="414" height="157" fill="#0F100C"/>
<path d="M279 734.5L23.5 579H637.5L949 734.5H279Z" fill="#161966"/>
<path fill-rule="evenodd" clip-rule="evenodd" d="M199.37 108.763C206.8 80.027 281.987 96.3976 331.278 87.5138C380.57 78.6299 438.886 37.2562 477.481 57.5231C516.075 77.7901 475.011 126.781 386.492 137.837C297.972 148.893 191.939 137.499 199.37 108.763Z" fill="#90AFFE"/>
<path fill-rule="evenodd" clip-rule="evenodd" d="M92.8158 458.382C89.1133 444.014 51.6482 452.199 27.0865 447.757C2.52487 443.315 -26.5336 422.628 -45.7651 432.762C-64.9965 442.895 -44.5345 467.391 -0.425814 472.918C43.6828 478.446 96.5183 472.75 92.8158 458.382Z" fill="#2C3597"/>
<path d="M363.016 166.526C364.13 162.369 368.4 159.902 372.554 161.015C376.708 162.128 379.172 166.4 378.058 170.556C376.945 174.712 372.675 177.179 368.521 176.066C364.367 174.953 361.903 170.682 363.016 166.526Z" fill="#FEB700"/>
<path d="M364.231 167.756C364.709 165.975 366.539 164.918 368.319 165.395C370.099 165.872 371.155 167.702 370.678 169.484C370.201 171.265 368.371 172.322 366.59 171.845C364.81 171.368 363.754 169.538 364.231 167.756Z" fill="white"/>
<path d="M34.4116 516.474C34.4116 518.522 32.7525 520.182 30.7058 520.182C28.6591 520.182 27 518.522 27 516.474C27 514.426 28.6591 512.766 30.7058 512.766C32.7525 512.766 34.4116 514.426 34.4116 516.474Z" fill="#FEB700"/>
<path d="M33.7015 516.058C33.7015 516.936 32.9905 517.647 32.1133 517.647C31.2362 517.647 30.5251 516.936 30.5251 516.058C30.5251 515.18 31.2362 514.469 32.1133 514.469C32.9905 514.469 33.7015 515.18 33.7015 516.058Z" fill="white"/>
<path d="M260.751 346.25C257.482 348.137 253.302 347.019 251.416 343.751C249.529 340.484 250.65 336.305 253.92 334.418C257.189 332.53 261.369 333.649 263.255 336.916C265.141 340.183 264.02 344.362 260.751 346.25Z" fill="#FEB700"/>
<path d="M42.751 103.25C39.4816 105.137 35.3021 104.019 33.4157 100.751C31.5293 97.4841 32.6504 93.3052 35.9197 91.4177C39.189 89.5302 43.3686 90.6487 45.255 93.916C47.1414 97.1834 46.0203 101.362 42.751 103.25Z" fill="#FEB700"/>
<path d="M42.0495 97.0391C40.7548 97.7866 39.0996 97.3436 38.3526 96.0497C37.6056 94.7558 38.0495 93.1009 39.3442 92.3535C40.6389 91.606 42.2941 92.0489 43.0411 93.3428C43.7881 94.6367 43.3442 96.2916 42.0495 97.0391Z" fill="white"/>
<path d="M68.5 542.727C42.1 564.327 -6.83333 575.727 -28 578.727V586.727H195V578.727C144.5 578.727 101.5 515.727 68.5 542.727Z" fill="white"/>
<circle cx="331" cy="79" r="30.2104" transform="rotate(-75 331 79)" fill="#FEB700"/>
<mask id="mask0" mask-type="alpha" maskUnits="userSpaceOnUse" x="300" y="48" width="62" height="62">
<circle cx="331.007" cy="78.8988" r="30.2104" fill="#0D1886"/>
</mask>
<g mask="url(#mask0)">
<path d="M321.8 63.2723C312.992 62.8196 304.415 64.4041 301.228 65.2529L304.705 42.3349L349.036 40.9203L362.944 61.5747C358.018 63.0837 351.933 66.4958 340.054 65.2529C331.941 64.4041 332.81 63.8382 321.8 63.2723Z" fill="#FF9317"/>
<path d="M364.239 74.3541C322.991 69.3243 303.269 78.1646 298.564 83.2135C296.26 91.4442 305.67 100.742 310.662 104.362C325.41 91.7872 349.836 94.5498 360.206 97.503L364.239 74.3541Z" fill="#FF9317"/>
</g>
<path d="M53.5693 679.645C45.3861 690.432 48.3218 713.266 51.8303 727.674C52.7779 731.565 51.586 735.714 48.5291 738.302L33.9526 750.642C29.7851 754.17 23.7907 753.475 21.5934 748.476C19.1862 743 16.5166 735.03 14.5219 724.366C10.0006 700.192 36.1904 681.483 41.6495 670.781C47.815 658.694 46.9928 654.262 33.018 630.895C19.0432 607.527 19.0843 593.201 26.4416 580.13C32.4298 569.491 42.7348 564.086 51.1502 562.393C52.0289 562.216 52.6241 563.229 52.1131 563.966C47.9273 569.997 41.6495 582.146 41.6495 595.037C41.6495 613.167 61.3788 623.643 64.667 639.355C67.9552 655.068 65.489 663.932 53.5693 679.645Z" fill="#5881EC"/>
<path d="M72.7846 710.168C68.6561 715.805 70.1879 727.796 71.9627 735.245C72.4154 737.146 71.8435 739.165 70.375 740.452L63.0516 746.875C60.9477 748.72 57.871 748.358 56.7808 745.781C55.5813 742.946 54.2539 738.83 53.261 733.331C51.0003 720.81 64.0952 711.12 66.8248 705.577C69.9075 699.317 69.4964 697.021 62.509 684.918C55.5216 672.814 55.5421 665.395 59.2208 658.624C61.9479 653.605 66.4655 650.835 70.429 649.718C71.2856 649.477 71.8987 650.465 71.4357 651.225C69.3959 654.574 66.8248 660.302 66.8248 666.345C66.8248 675.736 76.6894 681.162 78.3335 689.3C79.9776 697.438 78.7445 702.029 72.7846 710.168Z" fill="#E7EEFF"/>
<path d="M107.603 674.587C108.058 672.712 109.221 671.604 110.284 671.009C111.22 670.485 112.374 670.465 113.354 670.903C117.136 672.597 115.34 677.692 113.612 683.662C111.683 690.326 121.948 682.108 123.423 687.732C124.899 693.356 112.198 696.864 112.587 699.348C112.976 701.833 116.425 700.532 118.171 699.75C119.918 698.969 126.115 697.324 126.285 701.116C126.454 704.907 123.353 707.342 118.288 710.253C113.223 713.164 112.873 713.643 112.739 716.039C112.605 718.436 124.523 713.184 125.697 715.801C126.872 718.417 125.777 721.728 121.321 725.816C117.756 729.087 107.786 732.677 103.247 734.064L101.399 745.043L97.2115 744.338C97.2185 739.178 97.7203 733.851 97.9703 731.832C93.1046 727.161 83.0517 716.849 81.7655 712.977C80.1578 708.137 82.7376 704.002 85.9245 702.657C89.1113 701.311 93.0724 708.16 95.8611 710.78C98.6499 713.4 102.017 707.784 96.9168 704.506C91.8165 701.229 87.7741 690.066 92.0079 688.897C96.2416 687.727 95.8435 691.692 99.1602 691.175C102.477 690.658 96.0789 679.099 99.4395 678.32C102.8 677.542 103.493 681.421 105.499 682.296C107.504 683.172 106.726 678.202 107.603 674.587Z" fill="url(#paint0_linear)"/>
<path d="M123 533.5C123 531.015 125.015 529 127.5 529V529C129.985 529 132 531.015 132 533.5V544H123V533.5Z" fill="#0D1886"/>
<path d="M139 544.5C139 542.015 141.015 540 143.5 540V540C145.985 540 148 542.015 148 544.5V555H139V544.5Z" fill="#0D1886"/>
<path d="M109 551.5C109 549.015 111.015 547 113.5 547V547C115.985 547 118 549.015 118 551.5V562H109V551.5Z" fill="#0D1886"/>
<path d="M127 558.5C127 556.567 128.567 555 130.5 555V555C132.433 555 134 556.567 134 558.5V567H127V558.5Z" fill="#0D1886"/>
<rect x="192" y="579" width="226" height="8" fill="white"/>
<rect y="274" width="414" height="477" fill="black" fill-opacity="0.5"/>
</g>
<defs>
<linearGradient id="paint0_linear" x1="111.022" y1="670.324" x2="98.5294" y2="744.56" gradientUnits="userSpaceOnUse">
<stop stop-color="#00DE91"/>
<stop offset="1" stop-color="#00B777"/>
</linearGradient>
<clipPath id="clip0">
<rect width="414" height="736" fill="white"/>
</clipPath>
</defs>
</svg>
