<svg width="382" height="316" viewBox="0 0 382 316" fill="none" xmlns="http://www.w3.org/2000/svg">
<g clip-path="url(#clip0)">
<rect width="382" height="316" fill="white"/>
<path d="M382 0H0V316H382V0Z" fill="url(#paint0_linear)"/>
<path d="M347.627 83.0068H217.926C215.159 83.0068 212.916 85.2528 212.916 88.0233C212.916 90.7939 215.159 93.0398 217.926 93.0398H347.627C350.393 93.0398 352.636 90.7939 352.636 88.0233C352.636 85.2528 350.393 83.0068 347.627 83.0068Z" fill="white" fill-opacity="0.13"/>
<path d="M366.607 102.017H232.689C229.922 102.017 227.679 104.263 227.679 107.034C227.679 109.804 229.922 112.05 232.689 112.05H366.607C369.374 112.05 371.617 109.804 371.617 107.034C371.617 104.263 369.374 102.017 366.607 102.017Z" fill="white" fill-opacity="0.13"/>
<path d="M255.359 97.5291C255.359 100.274 252.547 101.665 251.141 102.017H316.783C315.465 101.489 312.829 99.7996 312.829 97.265C312.829 94.7298 315.465 93.3924 316.783 93.04H251.141C252.547 93.3924 255.359 94.7831 255.359 97.5291Z" fill="white" fill-opacity="0.13"/>
<path d="M240.454 7.49512C240.454 8.29712 239.805 8.94727 239.004 8.94727C238.203 8.94727 237.555 8.29712 237.555 7.49512C237.555 6.69312 238.203 6.04297 239.004 6.04297C239.805 6.04297 240.454 6.69312 240.454 7.49512Z" fill="url(#paint1_linear)"/>
<path d="M198.423 45.9771C200.824 45.9771 202.771 44.0266 202.771 41.6206C202.771 39.2146 200.824 37.2642 198.423 37.2642C196.022 37.2642 194.075 39.2146 194.075 41.6206C194.075 44.0266 196.022 45.9771 198.423 45.9771Z" fill="url(#paint2_linear)"/>
<path d="M280.8 128.533C280.8 130.939 278.853 132.889 276.452 132.889C274.051 132.889 272.104 130.939 272.104 128.533C272.104 126.126 274.051 124.176 276.452 124.176C278.853 124.176 280.8 126.126 280.8 128.533Z" fill="url(#paint3_linear)"/>
<path d="M251.323 78.6502C251.323 79.8538 250.35 80.8289 249.149 80.8289C247.948 80.8289 246.975 79.8538 246.975 78.6502C246.975 77.4473 247.948 76.4722 249.149 76.4722C250.35 76.4722 251.323 77.4473 251.323 78.6502Z" fill="url(#paint4_linear)"/>
<path d="M207.906 9.0791H73.9878C71.221 9.0791 68.978 11.3251 68.978 14.0956C68.978 16.8662 71.221 19.1121 73.9878 19.1121H207.906C210.673 19.1121 212.916 16.8662 212.916 14.0956C212.916 11.3251 210.673 9.0791 207.906 9.0791Z" fill="white" fill-opacity="0.13"/>
<path d="M96.6591 4.59052C96.6591 7.3364 93.8471 8.72695 92.4412 9.07899H158.083C156.765 8.55093 154.128 6.86115 154.128 4.32649C154.128 1.79182 156.765 0.454087 158.083 0.102051H92.4412C93.8471 0.454087 96.6591 1.84464 96.6591 4.59052Z" fill="white" fill-opacity="0.13"/>
<path d="M152.769 25.647C155.171 25.647 157.117 23.6965 157.117 21.2905C157.117 18.8845 155.171 16.9341 152.769 16.9341C150.368 16.9341 148.421 18.8845 148.421 21.2905C148.421 23.6965 150.368 25.647 152.769 25.647Z" fill="url(#paint5_linear)"/>
<path d="M152.769 23.4683C153.97 23.4683 154.943 22.493 154.943 21.29C154.943 20.087 153.97 19.1118 152.769 19.1118C151.569 19.1118 150.595 20.087 150.595 21.29C150.595 22.493 151.569 23.4683 152.769 23.4683Z" fill="#192344"/>
<path d="M328.785 173.04H199.085C196.318 173.04 194.075 175.286 194.075 178.057C194.075 180.827 196.318 183.073 199.085 183.073H328.785C331.552 183.073 333.795 180.827 333.795 178.057C333.795 175.286 331.552 173.04 328.785 173.04Z" fill="white" fill-opacity="0.13"/>
<path d="M347.766 192.051H213.847C211.08 192.051 208.837 194.297 208.837 197.067C208.837 199.838 211.08 202.084 213.847 202.084H347.766C350.532 202.084 352.775 199.838 352.775 197.067C352.775 194.297 350.532 192.051 347.766 192.051Z" fill="white" fill-opacity="0.13"/>
<path d="M236.518 187.562C236.518 190.308 233.706 191.698 232.3 192.05H297.942C296.624 191.522 293.988 189.833 293.988 187.298C293.988 184.763 296.624 183.425 297.942 183.074H232.3C233.706 183.425 236.518 184.816 236.518 187.562Z" fill="white" fill-opacity="0.13"/>
<path d="M248.787 177.397C250.188 177.397 251.323 176.259 251.323 174.856C251.323 173.452 250.188 172.314 248.787 172.314C247.386 172.314 246.251 173.452 246.251 174.856C246.251 176.259 247.386 177.397 248.787 177.397Z" fill="url(#paint6_linear)"/>
<path d="M292.629 208.618C295.03 208.618 296.977 206.668 296.977 204.262C296.977 201.856 295.03 199.905 292.629 199.905C290.227 199.905 288.281 201.856 288.281 204.262C288.281 206.668 290.227 208.618 292.629 208.618Z" fill="url(#paint7_linear)"/>
<path d="M292.629 206.44C293.829 206.44 294.803 205.465 294.803 204.262C294.803 203.059 293.829 202.083 292.629 202.083C291.428 202.083 290.455 203.059 290.455 204.262C290.455 205.465 291.428 206.44 292.629 206.44Z" fill="#192344"/>
<path d="M127.518 108.647C129.319 108.647 130.779 107.184 130.779 105.38C130.779 103.575 129.319 102.112 127.518 102.112C125.717 102.112 124.257 103.575 124.257 105.38C124.257 107.184 125.717 108.647 127.518 108.647Z" fill="url(#paint8_linear)"/>
<path d="M127.518 107.013C128.418 107.013 129.148 106.282 129.148 105.38C129.148 104.478 128.418 103.746 127.518 103.746C126.617 103.746 125.887 104.478 125.887 105.38C125.887 106.282 126.617 107.013 127.518 107.013Z" fill="#192344"/>
</g>
<defs>
<linearGradient id="paint0_linear" x1="60.4372" y1="37.517" x2="175.053" y2="364.99" gradientUnits="userSpaceOnUse">
<stop stop-color="#151862"/>
<stop offset="1" stop-color="#7D1ACA"/>
</linearGradient>
<linearGradient id="paint1_linear" x1="239.004" y1="6.04297" x2="239.004" y2="8.94727" gradientUnits="userSpaceOnUse">
<stop stop-color="#FFCD1C"/>
<stop offset="1" stop-color="#FF9317"/>
</linearGradient>
<linearGradient id="paint2_linear" x1="198.423" y1="37.2642" x2="198.423" y2="45.9771" gradientUnits="userSpaceOnUse">
<stop stop-color="#FFCD1C"/>
<stop offset="1" stop-color="#FF9317"/>
</linearGradient>
<linearGradient id="paint3_linear" x1="276.452" y1="124.176" x2="276.452" y2="132.889" gradientUnits="userSpaceOnUse">
<stop stop-color="#FFCD1C"/>
<stop offset="1" stop-color="#FF9317"/>
</linearGradient>
<linearGradient id="paint4_linear" x1="249.149" y1="76.4722" x2="249.149" y2="80.8289" gradientUnits="userSpaceOnUse">
<stop stop-color="#FFCD1C"/>
<stop offset="1" stop-color="#FF9317"/>
</linearGradient>
<linearGradient id="paint5_linear" x1="152.769" y1="16.9341" x2="152.769" y2="25.647" gradientUnits="userSpaceOnUse">
<stop stop-color="#FFCD1C"/>
<stop offset="1" stop-color="#FF9317"/>
</linearGradient>
<linearGradient id="paint6_linear" x1="248.787" y1="172.314" x2="248.787" y2="177.397" gradientUnits="userSpaceOnUse">
<stop stop-color="#FFCD1C"/>
<stop offset="1" stop-color="#FF9317"/>
</linearGradient>
<linearGradient id="paint7_linear" x1="292.629" y1="199.905" x2="292.629" y2="208.618" gradientUnits="userSpaceOnUse">
<stop stop-color="#FFCD1C"/>
<stop offset="1" stop-color="#FF9317"/>
</linearGradient>
<linearGradient id="paint8_linear" x1="127.518" y1="102.112" x2="127.518" y2="108.647" gradientUnits="userSpaceOnUse">
<stop stop-color="#FFCD1C"/>
<stop offset="1" stop-color="#FF9317"/>
</linearGradient>
<clipPath id="clip0">
<rect width="382" height="316" fill="white"/>
</clipPath>
</defs>
</svg>
