<svg width="1440" height="5641" viewBox="0 0 1440 5641" fill="none" xmlns="http://www.w3.org/2000/svg">
<g clip-path="url(#clip0)">
<rect width="1440" height="5641" fill="white"/>
<rect width="1440" height="5641" fill="#202B92"/>
<rect x="1309.88" y="-515" width="493.429" height="1225.85" rx="246.715" transform="rotate(35.5589 1309.88 -515)" fill="url(#paint0_linear)"/>
<path d="M756.789 504.023C755.503 500.743 757.922 497.198 761.444 497.198H1356.73C1358.56 497.198 1360.25 498.2 1361.12 499.81L1395.11 562.328C1396.74 565.336 1394.94 569.061 1391.56 569.643L825.116 667.355C822.778 667.759 820.478 666.462 819.611 664.253L756.789 504.023Z" fill="#F38033"/>
<path d="M1290.2 494.151C1289.76 491.292 1291.83 488.658 1294.71 488.41L1367.32 482.159C1368.97 482.016 1370.59 482.707 1371.64 484.002L1426.31 551.799C1428.79 554.879 1426.88 559.488 1422.95 559.909L1307.04 572.301C1304.38 572.585 1301.97 570.73 1301.57 568.089L1290.2 494.151Z" fill="#FFCD1C"/>
<path d="M1123.69 475.1C1124.18 472.739 1126.29 471.068 1128.7 471.126L1278.06 474.721C1280.51 474.78 1282.56 476.611 1282.89 479.042L1297.82 588.278C1298.19 590.935 1296.39 593.405 1293.75 593.877L1098.56 628.759C1095.07 629.382 1092.06 626.281 1092.79 622.813L1123.69 475.1Z" fill="#FFE175"/>
<path d="M1016.67 473.447C1017.71 471.953 1019.47 471.137 1021.28 471.317L1111.77 480.334C1114.84 480.64 1116.9 483.623 1116.1 486.602L1103.63 533.182L1092.52 581.206C1092.04 583.257 1090.33 584.791 1088.24 585.043L936.91 603.286C932.629 603.802 929.746 599.021 932.2 595.476L1016.67 473.447Z" fill="#FFCD1C"/>
<path d="M839.969 477.788C840.536 475.888 842.172 474.501 844.139 474.255L1000.94 454.602C1005.11 454.08 1008.02 458.615 1005.82 462.188L885.273 657.643C884.508 658.884 883.24 659.729 881.801 659.957L788.764 674.712C785.129 675.288 782.138 671.873 783.189 668.345L839.969 477.788Z" fill="#FFE175"/>
<path d="M685.812 551.365C686.184 549.691 687.388 548.325 689.001 547.745L815.091 502.432C818.89 501.066 822.657 504.534 821.611 508.433L790.183 625.507C789.787 626.983 788.738 628.196 787.336 628.802L664.954 681.618C661.207 683.235 657.206 679.925 658.092 675.942L685.812 551.365Z" fill="#FFCD1C"/>
<path d="M712.146 604.176L757.509 592.961L755.452 584.643C750.475 584.91 745.63 581.212 743.918 574.59L737.418 576.197L740.114 587.1L709.779 594.6L712.146 604.176Z" fill="#E17800" fill-opacity="0.52"/>
<path d="M908.856 505.152C909.657 504.973 910.599 504.873 911.462 504.913C915.849 505.116 919.116 507.719 918.885 512.681C918.668 517.356 915.537 519.589 912.157 519.433C908.921 519.282 906.549 517.586 904.359 513.52L900.113 505.611C895.466 497.034 888.897 494.134 880.702 493.682L879.099 528.205L887.657 528.602L888.696 506.234C890.461 507.037 891.685 508.607 892.752 510.459L897.801 519.703C901.058 525.62 905.795 529.156 911.837 529.436C919.964 529.814 927.166 523.733 927.65 513.305C928.154 502.444 921.033 495.915 912.834 495.534C911.683 495.481 910.235 495.63 909.581 495.744L908.856 505.152Z" fill="#E17800" fill-opacity="0.52"/>
<path d="M853.817 606.523C854.13 607.546 854.433 608.786 854.339 610.8C854.132 615.259 851.468 618.307 847.081 618.103C843.197 617.922 840.169 614.827 840.4 609.864C840.627 604.973 844.236 601.753 848.993 601.758L847.567 592.105C839.701 592.317 832.345 598.606 831.841 609.467C831.317 620.758 838.418 627.719 846.473 628.093C855.032 628.491 860.726 622.268 861.341 615.233L870.849 627.784L878.833 628.154L880.366 595.142L871.807 594.745L870.858 615.171L860.926 602.456L853.817 606.523Z" fill="#E17800" fill-opacity="0.52"/>
<path d="M1030.77 509.714L1029.74 531.794L1019.74 531.33L1019.29 541.111L1029.29 541.576L1028.93 549.271L1037.42 549.665L1037.77 541.97L1065.97 543.279L1066.53 531.052L1041.12 510.195L1030.77 509.714ZM1038.23 532.188L1038.85 518.883L1056.06 533.016L1038.23 532.188Z" fill="#E17800" fill-opacity="0.52"/>
<path d="M1201.82 489.688C1194.46 489.922 1187.22 496.65 1186.75 506.791C1186.23 518.011 1193.47 525.051 1202.18 525.455C1212.17 525.919 1218.09 519.562 1218.53 510.213C1218.67 507.12 1217.82 503.765 1216.04 501.664L1226.22 504.443L1225.31 524.006L1233.87 524.403L1235.09 498.08L1211.4 491.43C1211.06 492.423 1208.29 499.43 1207.88 500.348C1209.54 501.939 1210.86 504.523 1210.71 507.687C1210.51 512.003 1207.81 515.842 1202.49 515.595C1197.82 515.377 1195.03 511.644 1195.24 507.185C1195.47 502.223 1199.15 499.078 1203.47 499.062L1201.82 489.688Z" fill="#E17800" fill-opacity="0.52"/>
<path d="M1213.68 589.787C1214.92 587.899 1216.09 584.421 1216.29 580.106C1217 564.714 1206.85 553.72 1190.09 552.941C1175.99 552.287 1168.25 560.649 1167.78 570.862C1167.3 581.147 1173.77 589.232 1183.34 589.676C1192.97 590.123 1199.32 583.859 1199.76 574.293C1200.02 568.827 1197.61 564.823 1195.1 562.977C1203.82 564.463 1208.13 571.15 1207.76 579.061C1207.62 582.01 1206.7 584.706 1205.75 586.68L1213.68 589.787ZM1184.34 563.342C1189.16 563.566 1191.94 567.443 1191.73 571.902C1191.52 576.433 1188.4 580.036 1183.58 579.812C1178.76 579.589 1175.91 575.708 1176.12 571.177C1176.32 566.862 1179.6 563.122 1184.34 563.342Z" fill="#E17800" fill-opacity="0.52"/>
<path d="M1370.78 541.303L1372.43 505.846L1363.87 505.448L1362.75 529.47C1362.75 529.47 1350.46 513.259 1325.45 510.151L1324.97 520.436C1348.39 523.614 1359.65 537.255 1362.51 540.919L1370.78 541.303Z" fill="#E17800" fill-opacity="0.52"/>
<path d="M749.996 209.324C767.996 170.5 864.496 22 1068 78.8243" stroke="white" stroke-width="3" stroke-linecap="round" stroke-dasharray="8 8"/>
<path d="M1074 127C1135.5 137 1260.5 214 1260.5 350" stroke="white" stroke-width="3" stroke-linecap="round" stroke-dasharray="8 8"/>
<circle cx="1068" cy="104" r="44" fill="#FFCE43"/>
<path d="M757 291C818.597 377.434 1006.03 512.75 1263 362.546" stroke="white" stroke-width="3" stroke-linecap="round" stroke-dasharray="8 8"/>
<circle cx="756.5" cy="238.5" r="69.5" fill="#FFCE43"/>
<circle cx="1283" cy="359" r="58" fill="#FFCE43"/>
</g>
<defs>
<linearGradient id="paint0_linear" x1="1737.14" y1="1209.73" x2="1659.25" y2="-294.867" gradientUnits="userSpaceOnUse">
<stop stop-color="#EB5240"/>
<stop offset="1" stop-color="#FFC700"/>
</linearGradient>
<clipPath id="clip0">
<rect width="1440" height="5641" fill="white"/>
</clipPath>
</defs>
</svg>
