<svg width="23" height="19" viewBox="0 0 23 19" fill="none" xmlns="http://www.w3.org/2000/svg">
<path d="M15.8773 17.0737L14.1205 16.0291L18.7917 9.69957L20.0157 10.5835C20.3739 11.0504 20.5781 11.791 20.6355 12.103C20.6062 12.6104 20.3777 13.8949 19.6982 14.9733C19.0186 16.0516 17.8655 16.795 17.3739 17.0319L15.8773 17.0737Z" fill="#FFCD1C"/>
<ellipse rx="3.90634" ry="1.32533" transform="matrix(0.598757 -0.805332 0.796042 0.599398 16.4697 12.9083)" fill="#EFBB00"/>
<ellipse rx="2.77031" ry="0.671404" transform="matrix(0.598757 -0.805332 0.796042 0.599398 16.4793 12.958)" fill="#C59A01"/>
<path d="M13.3493 15.4511L4.55124 9.49801L9.56519 2.65451L17.8454 8.92895C17.9923 9.38139 18.0094 10.7653 16.9025 12.6815C15.7956 14.5977 14.0725 15.3263 13.3493 15.4511Z" fill="#FFCD1C"/>
<ellipse rx="4.25345" ry="1.03085" transform="matrix(0.598757 -0.805332 0.796042 0.599398 7.04707 6.07966)" fill="#EFBB00"/>
<ellipse rx="2.77031" ry="0.671404" transform="matrix(0.598757 -0.805332 0.796042 0.599398 6.97397 6.04788)" fill="#C59A01"/>
<path d="M3.7272 8.85147L2.0807 7.66595L6.9473 0.772711L8.78744 2.24622C8.74477 2.93785 8.63807 4.00859 7.16331 6.03596C5.68856 8.06332 4.30448 8.78555 3.7272 8.85147Z" fill="#FFCD1C"/>
<path d="M2.08081 7.66552L1.30733 6.26585L5.62022 0.572329L6.94741 0.77228C7.1941 1.48526 6.69516 2.25822 5.33502 4.47057C4.24691 6.24045 2.71347 7.32783 2.08081 7.66552Z" fill="#FFCD1C"/>
<ellipse rx="3.5634" ry="0.863615" transform="matrix(0.598757 -0.805332 0.796042 0.599398 3.49613 3.44578)" fill="#EFBB00"/>
<ellipse rx="2.62395" ry="0.708272" transform="matrix(0.598757 -0.805332 0.796042 0.599398 3.61832 3.60191)" fill="#6D5500"/>
<rect width="8.69771" height="1.80365" rx="0.901826" transform="matrix(0.801107 0.595302 -0.592742 0.80777 9.20532 6.82959)" fill="#C4C4C4"/>
<rect width="6.75434" height="0.951689" rx="0.475844" transform="matrix(0.801107 0.595302 -0.592742 0.80777 9.90088 7.8374)" fill="#FF6969"/>
</svg>
