<svg width="88" height="88" viewBox="0 0 88 88" fill="none" xmlns="http://www.w3.org/2000/svg">
<path fill-rule="evenodd" clip-rule="evenodd" d="M44 0C19.7291 0 0 19.719 0 44C0 68.2715 19.7285 88 44 88C68.281 88 88 68.2709 88 44C88 19.7195 68.2805 0 44 0V0ZM44 4C66.1195 4 84 21.8805 84 44C84 66.1091 66.119 84 44 84C21.8915 84 4 66.1085 4 44C4 21.881 21.8909 4 44 4V4Z" fill="white"/>
<path fill-rule="evenodd" clip-rule="evenodd" d="M28.765 26.9903C28.3837 27.0274 28.0212 27.1732 27.7204 27.4103C27.4196 27.6475 27.1932 27.966 27.0681 28.328C26.9431 28.69 26.9246 29.0803 27.0149 29.4526C27.1051 29.8248 27.3004 30.1633 27.5775 30.4278L41.14 44.0216L27.5775 57.584C27.2004 57.9612 26.9886 58.4726 26.9886 59.0059C26.9887 59.5391 27.2005 60.0505 27.5776 60.4276C27.9547 60.8047 28.4661 61.0166 28.9994 61.0166C29.5326 61.0166 30.0441 60.8048 30.4212 60.4278L44.015 46.8341L57.5775 60.4278C57.9546 60.8048 58.466 61.0166 58.9993 61.0166C59.5326 61.0166 60.044 60.8047 60.4211 60.4276C60.7981 60.0505 61.01 59.5391 61.01 59.0059C61.01 58.4726 60.7982 57.9612 60.4212 57.584L46.8275 44.0216L60.4212 30.4278C60.7128 30.1462 60.912 29.7827 60.9923 29.3854C61.0727 28.9881 61.0304 28.5758 60.8711 28.2031C60.7119 27.8303 60.4431 27.5147 60.1005 27.2982C59.7578 27.0816 59.3575 26.9742 58.9525 26.9903C58.4345 27.0027 57.9416 27.2156 57.5775 27.5841L44.015 41.1466L30.4212 27.5841C30.2334 27.3942 30.0094 27.2438 29.7625 27.1418C29.5156 27.0398 29.2508 26.9883 28.9837 26.9903C28.9108 26.9863 28.8378 26.9863 28.765 26.9903Z" fill="white"/>
</svg>
