<svg width="1440" height="3532" viewBox="0 0 1440 3532" fill="none" xmlns="http://www.w3.org/2000/svg">
<g clip-path="url(#clip0)">
<rect width="1440" height="3532" fill="white"/>
<rect width="1440" height="1235" fill="url(#paint0_linear)"/>
<rect y="1345" width="1440" height="1605" fill="url(#paint1_linear)"/>
<circle cx="205" cy="404" r="107" stroke="white" stroke-opacity="0.06" stroke-width="50"/>
<circle cx="1005" cy="1103" r="107" stroke="white" stroke-opacity="0.03" stroke-width="50"/>
<circle cx="1063" cy="2502" r="107" stroke="white" stroke-opacity="0.03" stroke-width="50"/>
<circle cx="1097" cy="1657" r="204" stroke="white" stroke-opacity="0.06" stroke-width="70"/>
<circle cx="294" cy="1097" r="107" stroke="white" stroke-opacity="0.06" stroke-width="50"/>
<path d="M387.01 223.819C387.01 225.108 385.966 226.152 384.678 226.152C383.391 226.152 382.347 225.108 382.347 223.819C382.347 222.531 383.391 221.487 384.678 221.487C385.966 221.487 387.01 222.531 387.01 223.819Z" fill="url(#paint2_linear)"/>
<path d="M1159.66 571.333C1159.66 572.621 1158.62 573.666 1157.33 573.666C1156.04 573.666 1155 572.621 1155 571.333C1155 570.044 1156.04 569 1157.33 569C1158.62 569 1159.66 570.044 1159.66 571.333Z" fill="url(#paint3_linear)"/>
<ellipse cx="266.994" cy="278.64" rx="6.99415" ry="6.99842" fill="url(#paint4_linear)"/>
<ellipse cx="667.994" cy="489.998" rx="6.99415" ry="6.99842" fill="url(#paint5_linear)"/>
<path d="M439.988 686.998C439.988 690.864 436.857 693.997 432.994 693.997C429.131 693.997 426 690.864 426 686.998C426 683.133 429.131 680 432.994 680C436.857 680 439.988 683.133 439.988 686.998Z" fill="url(#paint6_linear)"/>
<path d="M1018.99 386.998C1018.99 390.864 1015.86 393.997 1011.99 393.997C1008.13 393.997 1005 390.864 1005 386.998C1005 383.133 1008.13 380 1011.99 380C1015.86 380 1018.99 383.133 1018.99 386.998Z" fill="url(#paint7_linear)"/>
<path d="M798.988 647.998C798.988 651.864 795.857 654.997 791.994 654.997C788.131 654.997 785 651.864 785 647.998C785 644.133 788.131 641 791.994 641C795.857 641 798.988 644.133 798.988 647.998Z" fill="url(#paint8_linear)"/>
<path d="M404.495 338.127C404.495 340.059 402.929 341.626 400.998 341.626C399.067 341.626 397.501 340.059 397.501 338.127C397.501 336.194 399.067 334.628 400.998 334.628C402.929 334.628 404.495 336.194 404.495 338.127Z" fill="url(#paint9_linear)"/>
<path d="M930.994 331.499C930.994 333.432 929.428 334.998 927.497 334.998C925.566 334.998 924 333.432 924 331.499C924 329.567 925.566 328 927.497 328C929.428 328 930.994 329.567 930.994 331.499Z" fill="url(#paint10_linear)"/>
<path d="M814.994 397.499C814.994 399.432 813.428 400.998 811.497 400.998C809.566 400.998 808 399.432 808 397.499C808 395.567 809.566 394 811.497 394C813.428 394 814.994 395.567 814.994 397.499Z" fill="url(#paint11_linear)"/>
<ellipse cx="625.08" cy="319.082" rx="4.07992" ry="4.08241" fill="url(#paint12_linear)"/>
<ellipse cx="235.08" cy="754.082" rx="4.07992" ry="4.08241" fill="url(#paint13_linear)"/>
<ellipse cx="94.0799" cy="606.082" rx="4.07992" ry="4.08241" fill="url(#paint14_linear)"/>
<path d="M1114.08 460.486C1114.08 464.352 1110.95 467.485 1107.09 467.485C1103.23 467.485 1100.1 464.352 1100.1 460.486C1100.1 456.621 1103.23 453.488 1107.09 453.488C1110.95 453.488 1114.08 456.621 1114.08 460.486Z" fill="url(#paint15_linear)"/>
<path d="M986.994 463.499C986.994 465.432 985.428 466.998 983.497 466.998C981.566 466.998 980 465.432 980 463.499C980 461.567 981.566 460 983.497 460C985.428 460 986.994 461.567 986.994 463.499Z" fill="url(#paint16_linear)"/>
<ellipse cx="644.766" cy="2175.04" rx="6.99415" ry="6.99842" transform="rotate(-165 644.766 2175.04)" fill="url(#paint17_linear)"/>
<path d="M915.811 2005.76C916.812 2002.03 920.647 1999.81 924.379 2000.81C928.11 2001.81 930.323 2005.65 929.323 2009.38C928.323 2013.11 924.487 2015.33 920.756 2014.33C917.025 2013.33 914.811 2009.49 915.811 2005.76Z" fill="url(#paint18_linear)"/>
<ellipse cx="674.766" cy="2485.04" rx="6.99415" ry="6.99842" transform="rotate(-165 674.766 2485.04)" fill="url(#paint19_linear)"/>
<path d="M945.99 2353.76C946.99 2350.03 950.826 2347.81 954.557 2348.81C958.288 2349.81 960.502 2353.65 959.501 2357.38C958.501 2361.11 954.665 2363.33 950.934 2362.33C947.203 2361.33 944.989 2357.49 945.99 2353.76Z" fill="url(#paint20_linear)"/>
<path d="M1083.87 2153.44C1086.01 2145.46 1094.2 2140.73 1102.17 2142.87C1110.14 2145 1114.87 2153.2 1112.73 2161.17C1110.59 2169.15 1102.4 2173.88 1094.43 2171.74C1086.46 2169.61 1081.73 2161.41 1083.87 2153.44Z" fill="url(#paint21_linear)"/>
<path d="M298.109 2263.32C299.11 2259.59 302.945 2257.37 306.676 2258.37C310.408 2259.37 312.621 2263.21 311.621 2266.94C310.621 2270.68 306.785 2272.89 303.054 2271.89C299.323 2270.89 297.109 2267.06 298.109 2263.32Z" fill="url(#paint22_linear)"/>
<path d="M298.109 1748.76C299.11 1745.03 302.945 1742.81 306.676 1743.81C310.408 1744.81 312.621 1748.65 311.621 1752.38C310.621 1756.11 306.785 1758.33 303.054 1757.33C299.323 1756.33 297.109 1752.49 298.109 1748.76Z" fill="url(#paint23_linear)"/>
<path d="M559.129 1988.52C560.129 1984.78 563.965 1982.57 567.696 1983.57C571.427 1984.57 573.641 1988.4 572.64 1992.14C571.64 1995.87 567.804 1998.09 564.073 1997.09C560.342 1996.09 558.128 1992.25 559.129 1988.52Z" fill="url(#paint24_linear)"/>
<path d="M499.906 2343.38C500.406 2341.51 502.324 2340.41 504.189 2340.91C506.055 2341.4 507.162 2343.32 506.662 2345.19C506.161 2347.06 504.244 2348.16 502.378 2347.66C500.512 2347.17 499.406 2345.25 499.906 2343.38Z" fill="url(#paint25_linear)"/>
<path d="M206.238 2088.09C207.238 2084.35 211.074 2082.14 214.805 2083.14C218.536 2084.14 220.75 2087.97 219.749 2091.71C218.749 2095.44 214.913 2097.66 211.182 2096.66C207.451 2095.66 205.237 2091.82 206.238 2088.09Z" fill="url(#paint26_linear)"/>
<path d="M392.906 2141.38C393.406 2139.51 395.324 2138.41 397.189 2138.91C399.055 2139.4 400.162 2141.32 399.662 2143.19C399.161 2145.06 397.244 2146.16 395.378 2145.66C393.512 2145.17 392.406 2143.25 392.906 2141.38Z" fill="url(#paint27_linear)"/>
<path d="M1137.5 54C1145.5 32.8 1122.5 8.5 1110 -1H1462V218.5C1447.17 231.167 1413 244.2 1395 195C1372.5 133.5 1350.5 134.5 1340 145.5C1329.5 156.5 1350.5 195 1328.5 208C1306.5 221 1287 212 1287 195C1287 185 1296.5 178.5 1291.5 167C1286.5 155.5 1269.01 152.861 1261 156C1224 170.5 1236.5 195 1230 208C1223.5 221 1196 228.5 1187.5 205C1179 181.5 1220 153 1224 140.5C1228 128 1225 106.5 1209 106.5C1193 106.5 1174 115.5 1154 106.5C1134 97.5 1127.5 80.5 1137.5 54Z" fill="#161966"/>
<path d="M1022.76 1163.7C1038.12 1195.14 1006.28 1235.82 988.437 1252.23L1529.58 1201.31L1497.82 863.866C1473.18 846.539 1418.77 831.445 1398.22 909.686C1372.53 1007.49 1338.56 1009.13 1320.83 993.74C1303.09 978.349 1329.81 916.123 1294.11 899.321C1258.4 882.519 1229.73 899.176 1232.19 925.31C1233.63 940.683 1249.18 949.302 1243.16 967.704C1237.13 986.107 1210.63 992.694 1197.86 989.027C1138.88 972.089 1154.55 932.616 1142.68 913.571C1130.81 894.526 1087.44 886.975 1077.78 924.332C1068.11 961.688 1135.26 999.571 1143.22 1018.21C1151.18 1036.85 1149.68 1070.33 1125.08 1072.65C1100.48 1074.96 1069.97 1063.88 1040.53 1080.6C1011.08 1097.33 1003.55 1124.41 1022.76 1163.7Z" fill="#161966"/>
<circle cx="1226" cy="410" r="16" transform="rotate(-90 1226 410)" fill="url(#paint28_linear)"/>
<circle cx="1396" cy="627" r="107" stroke="white" stroke-opacity="0.06" stroke-width="50"/>
<path d="M1208.63 942.872C1207.07 935.706 1210.39 930.448 1213.04 927.933C1213.82 927.194 1214.81 926.728 1215.86 926.5C1230.53 923.309 1232.32 939.786 1235.59 958.796C1238.98 978.465 1255.21 944.291 1266.1 956.987C1276.99 969.684 1248.54 994.734 1252.67 1000.67C1256.8 1006.61 1264.09 998.908 1267.63 994.69C1271.16 990.472 1285.13 978.42 1290.34 988.018C1295.54 997.616 1290.58 1007.82 1281.14 1021.72C1271.69 1035.62 1271.39 1037.3 1274.06 1043.67C1276.72 1050.04 1300.96 1021.46 1307.29 1026.75C1313.62 1032.05 1314.95 1041.99 1308.56 1058.17C1303.45 1071.12 1282.17 1092.95 1272.17 1102.25L1281.19 1132.98L1269.47 1136.42C1263 1123.06 1257.6 1108.65 1255.71 1103.11C1237.24 1097.14 1198.26 1083.1 1190.06 1074.7C1179.82 1064.2 1181.29 1050.26 1187.84 1042.77C1194.4 1035.28 1213.26 1048.02 1223.77 1051.29C1234.28 1054.56 1235.93 1035.79 1218.61 1033.73C1201.29 1031.66 1176.79 1007.86 1186.28 999.513C1195.76 991.163 1199.72 1001.92 1207.65 996.413C1215.58 990.904 1184.49 969.041 1192.2 962.8C1199.92 956.559 1206.59 965.726 1212.88 965.468C1219.17 965.209 1210.91 953.331 1208.63 942.872Z" fill="url(#paint29_linear)"/>
<path d="M1372.92 999.873C1374.58 996.387 1377.52 995.035 1379.64 994.644C1380.69 994.45 1381.78 994.685 1382.72 995.205C1389.77 999.111 1384.83 1007.19 1379.67 1016.89C1374.2 1027.19 1393.93 1017.21 1394.42 1026.98C1394.9 1036.74 1372.78 1038.13 1372.57 1042.35C1372.35 1046.58 1378.47 1045.63 1381.62 1044.95C1384.76 1044.26 1395.53 1043.7 1394.5 1050C1393.47 1056.3 1387.53 1059.23 1378.18 1062.27C1368.84 1065.31 1368.1 1065.98 1367.05 1069.88C1366 1073.78 1387.43 1069.25 1388.46 1073.97C1389.49 1078.68 1386.54 1083.75 1377.8 1088.94C1370.8 1093.09 1353.15 1095.56 1345.2 1096.27L1338.36 1113.7L1331.71 1111.1C1333.51 1102.61 1336.17 1094.01 1337.28 1090.77C1330.89 1081.4 1317.9 1060.96 1317.12 1054.14C1316.15 1045.62 1321.82 1039.7 1327.53 1038.59C1333.25 1037.47 1337.4 1050.12 1341.08 1055.39C1344.77 1060.67 1352.25 1052.59 1344.99 1045.43C1337.73 1038.27 1334.93 1018.5 1342.3 1018.04C1349.68 1017.58 1347.65 1023.97 1353.29 1024.26C1358.93 1024.56 1352.39 1003.32 1358.19 1003.2C1363.99 1003.08 1363.79 1009.7 1366.79 1011.84C1369.79 1013.97 1370.22 1005.52 1372.92 999.873Z" fill="url(#paint30_linear)"/>
<path d="M192.5 1041.5C132.1 965.1 29.6667 951 -14 953.5V1263H1516.5V931C1501.33 967.167 1474.8 1071 1342 1107C1176 1152 1141.5 1063.5 962 1107C811.859 1143.39 785 1164 684.5 1158.5C551 1151.19 535.5 1107 421.5 1107C365.106 1107 268 1137 192.5 1041.5Z" fill="white"/>
<path d="M1283.57 1640.61C1332.4 1693.36 1398.6 1725 1440 1722.07L1440 1405L-11 1405L-11 1742C3.3789 1699.61 12.8911 1590.2 138.793 1548.01C296.17 1495.26 320.634 1569.1 495.736 1569.1C601.918 1569.1 682.503 1521.05 777.783 1527.49C904.348 1536.06 919.517 1587.86 1043.24 1569.1C1096.31 1561.06 1196.66 1546.71 1283.57 1640.61Z" fill="white"/>
<rect y="1309" width="1440" height="168" fill="white"/>
<path d="M834 2677.84C801.6 2703.04 773.167 2781.67 763 2817.84V2899.84H1421L1456.5 2214.84C1452.5 2215.34 1353.33 2169.95 1276.5 2214.84C1232 2240.84 1222.89 2300.84 1213 2349.34C1197 2427.84 1169.5 2409.84 1102.5 2467.84C1035.5 2525.84 1071 2624.84 1018 2626.84C965 2628.84 874.5 2646.34 834 2677.84Z" fill="#161966"/>
<path d="M603.5 2689.84C635.9 2715.04 664.333 2793.67 674.5 2829.84V2911.84H16.5L-19 2226.84C-15 2227.34 60.6736 2202.61 137.5 2247.5C182 2273.5 214.614 2312.84 224.5 2361.34C240.5 2439.84 268 2421.84 335 2479.84C402 2537.84 366.5 2636.84 419.5 2638.84C472.5 2640.84 563 2658.34 603.5 2689.84Z" fill="#161966"/>
<path d="M854.294 2526.84C852.894 2520.41 855.81 2515.67 858.201 2513.34C858.97 2512.59 859.97 2512.12 861.021 2511.9C874.24 2509.14 875.869 2524.09 878.842 2541.34C881.929 2559.25 896.699 2528.13 906.616 2539.69C916.533 2551.25 890.628 2574.06 894.39 2579.47C898.153 2584.87 904.787 2577.86 908.006 2574.02C911.225 2570.18 923.942 2559.21 928.683 2567.94C933.424 2576.68 928.907 2585.97 920.308 2598.63C911.709 2611.29 911.433 2612.81 913.861 2618.61C916.29 2624.41 938.353 2598.39 944.116 2603.21C949.88 2608.03 951.09 2617.08 945.275 2631.82C940.622 2643.61 921.246 2663.48 912.14 2671.95L920.36 2699.93L909.688 2703.06C903.796 2690.9 898.877 2677.77 897.154 2672.73C880.342 2667.3 844.851 2654.52 837.387 2646.87C828.057 2637.31 829.399 2624.61 835.366 2617.79C841.333 2610.97 858.508 2622.57 868.078 2625.55C877.647 2628.53 879.149 2611.44 863.381 2609.56C847.612 2607.68 825.305 2586.01 833.94 2578.41C842.575 2570.81 846.178 2580.6 853.399 2575.59C860.621 2570.57 832.311 2550.67 839.336 2544.98C846.362 2539.3 852.437 2547.65 858.164 2547.41C863.892 2547.18 856.367 2536.36 854.294 2526.84Z" fill="url(#paint31_linear)"/>
<path d="M979.805 2585.75C979.725 2582.42 981.406 2580.19 982.899 2579C983.738 2578.33 984.82 2578.04 985.892 2578.11C992.878 2578.5 992.211 2586.85 992.019 2596.55C991.813 2606.94 1003.48 2591.07 1007.79 2598.63C1012.11 2606.2 995.094 2616.2 996.621 2619.64C998.148 2623.09 1002.63 2619.87 1004.86 2618.06C1007.08 2616.25 1015.41 2611.47 1017.13 2616.89C1018.84 2622.31 1015.3 2627.03 1009.1 2633.21C1002.9 2639.39 1002.58 2640.22 1003.32 2643.74C1004.05 2647.26 1019.26 2635.03 1021.97 2638.36C1024.69 2641.69 1024.39 2646.91 1019.53 2654.55C1015.64 2660.67 1002.6 2669.73 996.574 2673.5L998.16 2690.1L991.828 2690.7C989.836 2683.24 988.495 2675.33 988.074 2672.32C979.222 2667.44 960.676 2656.42 957.313 2651.32C953.11 2644.94 955.238 2637.96 959.327 2634.78C963.416 2631.59 971.804 2639.97 976.855 2642.67C981.907 2645.38 984.6 2635.95 975.949 2633.19C967.298 2630.42 957.119 2615.84 962.791 2612.51C968.463 2609.17 969.425 2615.06 974.023 2613.03C978.622 2610.99 964.88 2596.75 969.441 2594.32C974.001 2591.89 976.508 2597.23 979.75 2597.72C982.992 2598.21 979.937 2591.32 979.805 2585.75Z" fill="url(#paint32_linear)"/>
<path d="M1370.8 2197.75C1370.73 2194.42 1372.41 2192.19 1373.9 2191C1374.74 2190.33 1375.82 2190.04 1376.89 2190.11C1383.88 2190.5 1383.21 2198.85 1383.02 2208.55C1382.81 2218.94 1394.48 2203.07 1398.79 2210.63C1403.11 2218.2 1386.09 2228.2 1387.62 2231.64C1389.15 2235.09 1393.63 2231.87 1395.86 2230.06C1398.08 2228.25 1406.41 2223.47 1408.13 2228.89C1409.84 2234.31 1406.3 2239.03 1400.1 2245.21C1393.9 2251.39 1393.58 2252.22 1394.32 2255.74C1395.05 2259.26 1410.26 2247.03 1412.97 2250.36C1415.69 2253.69 1415.39 2258.91 1410.53 2266.55C1406.64 2272.67 1393.6 2281.73 1387.57 2285.5L1389.16 2302.1L1382.83 2302.7C1380.84 2295.24 1379.5 2287.33 1379.07 2284.32C1370.22 2279.44 1351.68 2268.42 1348.31 2263.32C1344.11 2256.94 1346.24 2249.96 1350.33 2246.78C1354.42 2243.59 1362.8 2251.97 1367.86 2254.67C1372.91 2257.38 1375.6 2247.95 1366.95 2245.19C1358.3 2242.42 1348.12 2227.84 1353.79 2224.51C1359.46 2221.17 1360.43 2227.06 1365.02 2225.03C1369.62 2222.99 1355.88 2208.75 1360.44 2206.32C1365 2203.89 1367.51 2209.23 1370.75 2209.72C1373.99 2210.21 1370.94 2203.32 1370.8 2197.75Z" fill="url(#paint33_linear)"/>
<path d="M1315.98 2288.5C1315.39 2287.04 1315.58 2285.75 1315.97 2284.81C1316.39 2283.81 1317.32 2283.1 1318.38 2282.94C1321.76 2282.44 1323.05 2286.87 1324.82 2291.86C1326.84 2297.54 1329.92 2286.53 1333.82 2289.76C1337.71 2292.98 1330.52 2301.9 1332.05 2303.46C1333.59 2305.01 1335.36 2302.35 1336.2 2300.91C1337.04 2299.47 1340.58 2295.17 1342.62 2297.76C1344.67 2300.35 1343.71 2303.64 1341.61 2308.27C1339.51 2312.89 1339.5 2313.41 1340.62 2315.17C1341.74 2316.93 1347.5 2307.17 1349.65 2308.43C1351.81 2309.68 1352.72 2312.57 1351.64 2317.72C1350.78 2321.84 1345.56 2329.43 1343.06 2332.71L1347.32 2341.4L1344.01 2343.02C1341.4 2339.38 1339.05 2335.36 1338.2 2333.81C1332.4 2332.97 1320.07 2330.79 1317.2 2328.71C1313.61 2326.1 1313.33 2321.88 1314.9 2319.31C1316.47 2316.74 1322.74 2319.57 1326.04 2320.01C1329.34 2320.45 1328.87 2314.77 1323.6 2315.04C1318.34 2315.32 1309.83 2309.48 1312.22 2306.51C1314.62 2303.54 1316.35 2306.54 1318.43 2304.49C1320.51 2302.45 1310.13 2297.53 1312.11 2295.27C1314.09 2293.02 1316.54 2295.41 1318.4 2295.01C1320.26 2294.61 1317.19 2291.49 1315.98 2288.5Z" fill="url(#paint34_linear)"/>
<path d="M1289.17 2383.5C1334.02 2309.09 1368.89 2242.91 1453 2227V2963H666C671.443 2932 778.308 2845 791.372 2762.82C807.702 2660.11 1028.42 2724.41 1071.62 2583.68C1109.91 2458.9 1236.25 2471.31 1289.17 2383.5Z" fill="white"/>
<circle cx="181" cy="2367" r="107" stroke="white" stroke-opacity="0.06" stroke-width="50"/>
<path d="M495.361 2545.45C496.454 2539.69 493.809 2535.51 491.609 2533.43C490.83 2532.69 489.816 2532.25 488.758 2532.06C476.871 2530.02 475.758 2543.55 473.494 2559.16C471.132 2575.45 457.012 2547.64 448.316 2558.34C439.619 2569.05 463.616 2589.06 460.342 2594.05C457.067 2599.03 450.893 2592.84 447.887 2589.45C444.88 2586.05 433.105 2576.42 429.026 2584.45C424.946 2592.47 429.259 2600.77 437.347 2612.02C445.436 2623.26 445.722 2624.64 443.664 2629.95C441.607 2635.26 421.009 2612.24 415.909 2616.74C410.81 2621.24 409.933 2629.46 415.552 2642.66C420.047 2653.22 438.064 2670.74 446.511 2678.18L439.747 2703.7L449.482 2706.28C454.521 2695.13 458.655 2683.13 460.093 2678.53C475.178 2673.2 506.991 2660.78 513.562 2653.68C521.775 2644.8 520.254 2633.34 514.688 2627.31C509.123 2621.28 493.859 2632.2 485.27 2635.12C476.68 2638.05 474.908 2622.62 489.135 2620.54C503.361 2618.45 523.027 2598.3 515.028 2591.63C507.029 2584.96 504.005 2593.91 497.348 2589.55C490.691 2585.18 515.833 2566.48 509.337 2561.51C502.841 2556.53 497.544 2564.24 492.355 2564.16C487.165 2564.09 493.714 2554.12 495.361 2545.45Z" fill="url(#paint35_linear)"/>
<path d="M142.994 2374.84C98.3722 2299.32 63.6807 2232.14 -20 2216V2963H763C757.584 2931.53 651.263 2843.23 638.265 2759.83C622.018 2655.58 402.422 2720.84 359.446 2578.01C321.342 2451.37 195.651 2463.96 142.994 2374.84Z" fill="white"/>
<circle cx="394" cy="2912" r="107" stroke="#252A99" stroke-opacity="0.06" stroke-width="50"/>
<circle cx="1007.5" cy="3194.5" r="80" stroke="#FFA819" stroke-opacity="0.2" stroke-width="45"/>
<circle cx="318" cy="1309" r="80" stroke="#252A99" stroke-opacity="0.06" stroke-width="50"/>
</g>
<defs>
<linearGradient id="paint0_linear" x1="1274.5" y1="172.618" x2="1118.42" y2="1234.11" gradientUnits="userSpaceOnUse">
<stop offset="0.541436" stop-color="#252A99"/>
<stop offset="1" stop-color="#12245F"/>
</linearGradient>
<linearGradient id="paint1_linear" x1="1274.5" y1="1569.33" x2="1014.67" y2="2929.02" gradientUnits="userSpaceOnUse">
<stop offset="0.541436" stop-color="#252A99"/>
<stop offset="1" stop-color="#12245F"/>
</linearGradient>
<linearGradient id="paint2_linear" x1="384.678" y1="221.487" x2="384.678" y2="226.152" gradientUnits="userSpaceOnUse">
<stop stop-color="#FFCD1C"/>
<stop offset="1" stop-color="#FF9317"/>
</linearGradient>
<linearGradient id="paint3_linear" x1="1157.33" y1="569" x2="1157.33" y2="573.666" gradientUnits="userSpaceOnUse">
<stop stop-color="#FFCD1C"/>
<stop offset="1" stop-color="#FF9317"/>
</linearGradient>
<linearGradient id="paint4_linear" x1="266.994" y1="271.642" x2="266.994" y2="285.639" gradientUnits="userSpaceOnUse">
<stop stop-color="#FFCD1C"/>
<stop offset="1" stop-color="#FF9317"/>
</linearGradient>
<linearGradient id="paint5_linear" x1="667.994" y1="483" x2="667.994" y2="496.997" gradientUnits="userSpaceOnUse">
<stop stop-color="#FFCD1C"/>
<stop offset="1" stop-color="#FF9317"/>
</linearGradient>
<linearGradient id="paint6_linear" x1="432.994" y1="680" x2="432.994" y2="693.997" gradientUnits="userSpaceOnUse">
<stop stop-color="#FFCD1C"/>
<stop offset="1" stop-color="#FF9317"/>
</linearGradient>
<linearGradient id="paint7_linear" x1="1011.99" y1="380" x2="1011.99" y2="393.997" gradientUnits="userSpaceOnUse">
<stop stop-color="#FFCD1C"/>
<stop offset="1" stop-color="#FF9317"/>
</linearGradient>
<linearGradient id="paint8_linear" x1="791.994" y1="641" x2="791.994" y2="654.997" gradientUnits="userSpaceOnUse">
<stop stop-color="#FFCD1C"/>
<stop offset="1" stop-color="#FF9317"/>
</linearGradient>
<linearGradient id="paint9_linear" x1="400.998" y1="334.628" x2="400.998" y2="341.626" gradientUnits="userSpaceOnUse">
<stop stop-color="#FFCD1C"/>
<stop offset="1" stop-color="#FF9317"/>
</linearGradient>
<linearGradient id="paint10_linear" x1="927.497" y1="328" x2="927.497" y2="334.998" gradientUnits="userSpaceOnUse">
<stop stop-color="#FFCD1C"/>
<stop offset="1" stop-color="#FF9317"/>
</linearGradient>
<linearGradient id="paint11_linear" x1="811.497" y1="394" x2="811.497" y2="400.998" gradientUnits="userSpaceOnUse">
<stop stop-color="#FFCD1C"/>
<stop offset="1" stop-color="#FF9317"/>
</linearGradient>
<linearGradient id="paint12_linear" x1="625.08" y1="315" x2="625.08" y2="323.165" gradientUnits="userSpaceOnUse">
<stop stop-color="#FFCD1C"/>
<stop offset="1" stop-color="#FF9317"/>
</linearGradient>
<linearGradient id="paint13_linear" x1="235.08" y1="750" x2="235.08" y2="758.165" gradientUnits="userSpaceOnUse">
<stop stop-color="#FFCD1C"/>
<stop offset="1" stop-color="#FF9317"/>
</linearGradient>
<linearGradient id="paint14_linear" x1="94.0799" y1="602" x2="94.0799" y2="610.165" gradientUnits="userSpaceOnUse">
<stop stop-color="#FFCD1C"/>
<stop offset="1" stop-color="#FF9317"/>
</linearGradient>
<linearGradient id="paint15_linear" x1="1107.09" y1="453.488" x2="1107.09" y2="467.485" gradientUnits="userSpaceOnUse">
<stop stop-color="#FFCD1C"/>
<stop offset="1" stop-color="#FF9317"/>
</linearGradient>
<linearGradient id="paint16_linear" x1="983.497" y1="460" x2="983.497" y2="466.998" gradientUnits="userSpaceOnUse">
<stop stop-color="#FFCD1C"/>
<stop offset="1" stop-color="#FF9317"/>
</linearGradient>
<linearGradient id="paint17_linear" x1="644.766" y1="2168.04" x2="644.766" y2="2182.03" gradientUnits="userSpaceOnUse">
<stop stop-color="#FFCD1C"/>
<stop offset="1" stop-color="#FF9317"/>
</linearGradient>
<linearGradient id="paint18_linear" x1="920.756" y1="2014.33" x2="924.379" y2="2000.81" gradientUnits="userSpaceOnUse">
<stop stop-color="#FFCD1C"/>
<stop offset="1" stop-color="#FF9317"/>
</linearGradient>
<linearGradient id="paint19_linear" x1="674.766" y1="2478.04" x2="674.766" y2="2492.03" gradientUnits="userSpaceOnUse">
<stop stop-color="#FFCD1C"/>
<stop offset="1" stop-color="#FF9317"/>
</linearGradient>
<linearGradient id="paint20_linear" x1="950.934" y1="2362.33" x2="954.557" y2="2348.81" gradientUnits="userSpaceOnUse">
<stop stop-color="#FFCD1C"/>
<stop offset="1" stop-color="#FF9317"/>
</linearGradient>
<linearGradient id="paint21_linear" x1="1094.43" y1="2171.74" x2="1102.17" y2="2142.87" gradientUnits="userSpaceOnUse">
<stop stop-color="#FFCD1C"/>
<stop offset="1" stop-color="#FF9317"/>
</linearGradient>
<linearGradient id="paint22_linear" x1="303.054" y1="2271.89" x2="306.676" y2="2258.37" gradientUnits="userSpaceOnUse">
<stop stop-color="#FFCD1C"/>
<stop offset="1" stop-color="#FF9317"/>
</linearGradient>
<linearGradient id="paint23_linear" x1="303.054" y1="1757.33" x2="306.676" y2="1743.81" gradientUnits="userSpaceOnUse">
<stop stop-color="#FFCD1C"/>
<stop offset="1" stop-color="#FF9317"/>
</linearGradient>
<linearGradient id="paint24_linear" x1="564.073" y1="1997.09" x2="567.696" y2="1983.57" gradientUnits="userSpaceOnUse">
<stop stop-color="#FFCD1C"/>
<stop offset="1" stop-color="#FF9317"/>
</linearGradient>
<linearGradient id="paint25_linear" x1="502.378" y1="2347.66" x2="504.189" y2="2340.91" gradientUnits="userSpaceOnUse">
<stop stop-color="#FFCD1C"/>
<stop offset="1" stop-color="#FF9317"/>
</linearGradient>
<linearGradient id="paint26_linear" x1="211.182" y1="2096.66" x2="214.805" y2="2083.14" gradientUnits="userSpaceOnUse">
<stop stop-color="#FFCD1C"/>
<stop offset="1" stop-color="#FF9317"/>
</linearGradient>
<linearGradient id="paint27_linear" x1="395.378" y1="2145.66" x2="397.189" y2="2138.91" gradientUnits="userSpaceOnUse">
<stop stop-color="#FFCD1C"/>
<stop offset="1" stop-color="#FF9317"/>
</linearGradient>
<linearGradient id="paint28_linear" x1="1226" y1="394" x2="1226" y2="426" gradientUnits="userSpaceOnUse">
<stop stop-color="#FFCD1C"/>
<stop offset="1" stop-color="#FF9317"/>
</linearGradient>
<linearGradient id="paint29_linear" x1="1212.11" y1="927.542" x2="1273.16" y2="1135.34" gradientUnits="userSpaceOnUse">
<stop stop-color="#00DE91"/>
<stop offset="1" stop-color="#00B777"/>
</linearGradient>
<linearGradient id="paint30_linear" x1="1380.02" y1="994.037" x2="1333.8" y2="1111.92" gradientUnits="userSpaceOnUse">
<stop stop-color="#00BF7C"/>
<stop offset="1" stop-color="#00B777"/>
</linearGradient>
<linearGradient id="paint31_linear" x1="857.465" y1="2512.88" x2="913.046" y2="2702.07" gradientUnits="userSpaceOnUse">
<stop stop-color="#00DE91"/>
<stop offset="1" stop-color="#00B777"/>
</linearGradient>
<linearGradient id="paint32_linear" x1="983.097" y1="2578.26" x2="993.82" y2="2690.51" gradientUnits="userSpaceOnUse">
<stop stop-color="#00BF7C"/>
<stop offset="1" stop-color="#00B777"/>
</linearGradient>
<linearGradient id="paint33_linear" x1="1374.1" y1="2190.26" x2="1384.82" y2="2302.51" gradientUnits="userSpaceOnUse">
<stop stop-color="#00BF7C"/>
<stop offset="1" stop-color="#00754C"/>
</linearGradient>
<linearGradient id="paint34_linear" x1="1316.23" y1="2283.75" x2="1345.05" y2="2342.51" gradientUnits="userSpaceOnUse">
<stop stop-color="#00BF7C"/>
<stop offset="1" stop-color="#00754C"/>
</linearGradient>
<linearGradient id="paint35_linear" x1="492.153" y1="2532.89" x2="446.418" y2="2705.47" gradientUnits="userSpaceOnUse">
<stop stop-color="#00DE91"/>
<stop offset="1" stop-color="#00B777"/>
</linearGradient>
<clipPath id="clip0">
<rect width="1440" height="3532" fill="white"/>
</clipPath>
</defs>
</svg>
