<svg width="182" height="43" viewBox="0 0 182 43" fill="none" xmlns="http://www.w3.org/2000/svg">
<rect x="25.6116" y="11.481" width="156.318" height="24.7283" rx="12.3641" fill="#FF5964"/>
<path d="M68.725 18.926V28H66.905V21.669L64.578 28H62.992L60.665 21.695V28H58.832V18.926H61.055L63.811 25.751L66.515 18.926H68.725ZM70.1767 18.731C70.1767 18.4363 70.2807 18.198 70.4887 18.016C70.6967 17.8253 70.9697 17.73 71.3077 17.73C71.6457 17.73 71.9187 17.8253 72.1267 18.016C72.3347 18.198 72.4387 18.4363 72.4387 18.731C72.4387 19.017 72.3347 19.2553 72.1267 19.446C71.9187 19.628 71.6457 19.719 71.3077 19.719C70.9697 19.719 70.6967 19.628 70.4887 19.446C70.2807 19.2553 70.1767 19.017 70.1767 18.731ZM72.2177 20.798V28H70.3847V20.798H72.2177ZM78.1659 20.694C78.9979 20.694 79.6609 20.967 80.1549 21.513C80.6489 22.059 80.8959 22.826 80.8959 23.814V28H79.0759V24.022C79.0759 23.45 78.9286 23.008 78.6339 22.696C78.3393 22.3753 77.9363 22.215 77.4249 22.215C76.9049 22.215 76.4889 22.384 76.1769 22.722C75.8649 23.06 75.7089 23.5453 75.7089 24.178V28H73.8759V20.798H75.7089V22.241C75.8996 21.7557 76.2116 21.3787 76.6449 21.11C77.0869 20.8327 77.5939 20.694 78.1659 20.694ZM82.3008 18.731C82.3008 18.4363 82.4048 18.198 82.6128 18.016C82.8208 17.8253 83.0938 17.73 83.4318 17.73C83.7698 17.73 84.0428 17.8253 84.2508 18.016C84.4588 18.198 84.5628 18.4363 84.5628 18.731C84.5628 19.017 84.4588 19.2553 84.2508 19.446C84.0428 19.628 83.7698 19.719 83.4318 19.719C83.0938 19.719 82.8208 19.628 82.6128 19.446C82.4048 19.2553 82.3008 19.017 82.3008 18.731ZM84.3418 20.798V28H82.5088V20.798H84.3418ZM92.978 18.731C94.122 18.731 95.071 19.0257 95.825 19.615C96.579 20.2043 97.0774 21.006 97.32 22.02H95.396C95.1967 21.526 94.8847 21.136 94.46 20.85C94.044 20.564 93.5414 20.421 92.952 20.421C92.4667 20.421 92.029 20.5423 91.639 20.785C91.249 21.0277 90.9457 21.3743 90.729 21.825C90.5124 22.2757 90.404 22.8043 90.404 23.411C90.404 24.009 90.5124 24.5333 90.729 24.984C90.9457 25.4347 91.249 25.7813 91.639 26.024C92.029 26.2667 92.4667 26.388 92.952 26.388C93.5414 26.388 94.044 26.245 94.46 25.959C94.8847 25.673 95.1967 25.283 95.396 24.789H97.32C97.0774 25.803 96.579 26.6047 95.825 27.194C95.071 27.7833 94.122 28.078 92.978 28.078C92.1027 28.078 91.327 27.883 90.651 27.493C89.9837 27.0943 89.4637 26.5397 89.091 25.829C88.727 25.1183 88.545 24.3123 88.545 23.411C88.545 22.501 88.727 21.6907 89.091 20.98C89.4637 20.2693 89.9837 19.719 90.651 19.329C91.3184 18.9303 92.094 18.731 92.978 18.731ZM102.985 20.694C103.817 20.694 104.48 20.967 104.974 21.513C105.468 22.059 105.715 22.826 105.715 23.814V28H103.895V24.022C103.895 23.45 103.748 23.008 103.453 22.696C103.159 22.3753 102.756 22.215 102.244 22.215C101.724 22.215 101.308 22.384 100.996 22.722C100.684 23.06 100.528 23.5453 100.528 24.178V28H98.6953V18.38H100.528V22.241C100.719 21.7557 101.031 21.3787 101.464 21.11C101.906 20.8327 102.413 20.694 102.985 20.694ZM110.149 20.707C110.756 20.707 111.276 20.85 111.709 21.136C112.142 21.422 112.45 21.8077 112.632 22.293V20.798H114.452V28H112.632V26.492C112.45 26.9773 112.142 27.3673 111.709 27.662C111.276 27.948 110.756 28.091 110.149 28.091C109.542 28.091 108.996 27.9437 108.511 27.649C108.026 27.3543 107.644 26.9297 107.367 26.375C107.098 25.8117 106.964 25.153 106.964 24.399C106.964 23.645 107.098 22.9907 107.367 22.436C107.644 21.8727 108.026 21.4437 108.511 21.149C108.996 20.8543 109.542 20.707 110.149 20.707ZM110.721 22.306C110.149 22.306 109.69 22.4923 109.343 22.865C108.996 23.2377 108.823 23.749 108.823 24.399C108.823 25.049 108.996 25.5603 109.343 25.933C109.69 26.297 110.149 26.479 110.721 26.479C111.276 26.479 111.731 26.2927 112.086 25.92C112.45 25.5387 112.632 25.0317 112.632 24.399C112.632 23.7577 112.45 23.2507 112.086 22.878C111.731 22.4967 111.276 22.306 110.721 22.306ZM117.946 18.38V28H116.113V18.38H117.946ZM121.437 18.38V28H119.604V18.38H121.437ZM129.869 24.126C129.869 24.308 129.847 24.516 129.804 24.75H124.526C124.552 25.3913 124.725 25.8637 125.046 26.167C125.366 26.4703 125.765 26.622 126.242 26.622C126.666 26.622 127.017 26.518 127.295 26.31C127.581 26.102 127.763 25.8203 127.841 25.465H129.778C129.682 25.9677 129.479 26.4183 129.167 26.817C128.855 27.2157 128.452 27.5277 127.958 27.753C127.472 27.9783 126.931 28.091 126.333 28.091C125.631 28.091 125.007 27.9437 124.461 27.649C123.915 27.3457 123.49 26.9167 123.187 26.362C122.883 25.8073 122.732 25.153 122.732 24.399C122.732 23.645 122.883 22.9907 123.187 22.436C123.49 21.8727 123.915 21.4437 124.461 21.149C125.007 20.8543 125.631 20.707 126.333 20.707C127.043 20.707 127.663 20.8543 128.192 21.149C128.729 21.4437 129.141 21.851 129.427 22.371C129.721 22.8823 129.869 23.4673 129.869 24.126ZM128.023 23.944C128.049 23.3547 127.893 22.9083 127.555 22.605C127.225 22.3017 126.818 22.15 126.333 22.15C125.839 22.15 125.423 22.3017 125.085 22.605C124.747 22.9083 124.56 23.3547 124.526 23.944H128.023ZM135.46 20.694C136.292 20.694 136.955 20.967 137.449 21.513C137.943 22.059 138.19 22.826 138.19 23.814V28H136.37V24.022C136.37 23.45 136.223 23.008 135.928 22.696C135.633 22.3753 135.23 22.215 134.719 22.215C134.199 22.215 133.783 22.384 133.471 22.722C133.159 23.06 133.003 23.5453 133.003 24.178V28H131.17V20.798H133.003V22.241C133.194 21.7557 133.506 21.3787 133.939 21.11C134.381 20.8327 134.888 20.694 135.46 20.694ZM142.624 20.707C143.23 20.707 143.75 20.85 144.184 21.136C144.617 21.422 144.925 21.8077 145.107 22.293V20.798H146.927V28.026C146.927 28.6933 146.792 29.2913 146.524 29.82C146.264 30.3573 145.869 30.7777 145.341 31.081C144.821 31.3843 144.188 31.536 143.443 31.536C142.403 31.536 141.562 31.289 140.921 30.795C140.279 30.301 139.889 29.6293 139.751 28.78H141.558C141.662 29.144 141.861 29.4257 142.156 29.625C142.459 29.833 142.845 29.937 143.313 29.937C143.85 29.937 144.283 29.7767 144.613 29.456C144.942 29.144 145.107 28.6673 145.107 28.026V26.492C144.925 26.9773 144.617 27.3673 144.184 27.662C143.75 27.948 143.23 28.091 142.624 28.091C142.017 28.091 141.471 27.9437 140.986 27.649C140.5 27.3543 140.119 26.9297 139.842 26.375C139.573 25.8117 139.439 25.153 139.439 24.399C139.439 23.645 139.573 22.9907 139.842 22.436C140.119 21.8727 140.5 21.4437 140.986 21.149C141.471 20.8543 142.017 20.707 142.624 20.707ZM143.196 22.306C142.624 22.306 142.164 22.4923 141.818 22.865C141.471 23.2377 141.298 23.749 141.298 24.399C141.298 25.049 141.471 25.5603 141.818 25.933C142.164 26.297 142.624 26.479 143.196 26.479C143.75 26.479 144.205 26.2927 144.561 25.92C144.925 25.5387 145.107 25.0317 145.107 24.399C145.107 23.7577 144.925 23.2507 144.561 22.878C144.205 22.4967 143.75 22.306 143.196 22.306ZM155.361 24.126C155.361 24.308 155.339 24.516 155.296 24.75H150.018C150.044 25.3913 150.217 25.8637 150.538 26.167C150.859 26.4703 151.257 26.622 151.734 26.622C152.159 26.622 152.51 26.518 152.787 26.31C153.073 26.102 153.255 25.8203 153.333 25.465H155.27C155.175 25.9677 154.971 26.4183 154.659 26.817C154.347 27.2157 153.944 27.5277 153.45 27.753C152.965 27.9783 152.423 28.091 151.825 28.091C151.123 28.091 150.499 27.9437 149.953 27.649C149.407 27.3457 148.982 26.9167 148.679 26.362C148.376 25.8073 148.224 25.153 148.224 24.399C148.224 23.645 148.376 22.9907 148.679 22.436C148.982 21.8727 149.407 21.4437 149.953 21.149C150.499 20.8543 151.123 20.707 151.825 20.707C152.536 20.707 153.155 20.8543 153.684 21.149C154.221 21.4437 154.633 21.851 154.919 22.371C155.214 22.8823 155.361 23.4673 155.361 24.126ZM153.515 23.944C153.541 23.3547 153.385 22.9083 153.047 22.605C152.718 22.3017 152.31 22.15 151.825 22.15C151.331 22.15 150.915 22.3017 150.577 22.605C150.239 22.9083 150.053 23.3547 150.018 23.944H153.515Z" fill="white"/>
<circle cx="21.1957" cy="21.1957" r="21.1957" fill="#FFCD1C"/>
<rect x="16.78" y="18.5461" width="2.64946" height="23.8451" fill="white"/>
<path d="M37.0925 20.6843L16.78 11.481V27.3777L37.0925 20.6843Z" fill="#FF5964"/>
</svg>
