<svg id="Layer_1" data-name="Layer 1" xmlns="http://www.w3.org/2000/svg" xmlns:xlink="http://www.w3.org/1999/xlink" viewBox="0 0 97.41 98.2"><defs><style>.cls-1,.cls-13,.cls-14,.cls-3,.cls-7{fill:none;}.cls-2{fill:#fff;stroke-width:2px;}.cls-2,.cls-3,.cls-7{stroke:#c0d7ff;}.cls-13,.cls-14,.cls-2,.cls-3,.cls-7{stroke-miterlimit:10;}.cls-3{stroke-width:0.5px;}.cls-4{clip-path:url(#clip-path);}.cls-5{fill:#ffc41b;}.cls-6{fill:#f46851;}.cls-7{stroke-width:0.25px;}.cls-8{fill:#c0d7ff;}.cls-9{clip-path:url(#clip-path-2);}.cls-10{fill:#161966;}.cls-11{fill:#161e7f;}.cls-12{fill:#ad2b25;}.cls-13{stroke:#dd4536;}.cls-13,.cls-14{stroke-width:0.78px;}.cls-14{stroke:#ad2b25;}.cls-15{fill:#2534a0;}.cls-16{fill:#dd4536;}</style><clipPath id="clip-path"><circle class="cls-1" cx="49.14" cy="48.65" r="47"/></clipPath><clipPath id="clip-path-2"><circle class="cls-1" cx="-53.84" cy="48.65" r="47"/></clipPath></defs><title>profile</title><circle class="cls-2" cx="49.14" cy="49.73" r="47"/><polyline class="cls-3" points="15.95 73.77 15.95 63.95 36.55 63.95"/><polyline class="cls-3" points="2.48 45.4 15.5 37.64 27.53 37.64 27.53 19.85 37.55 19.85 50.07 10.59 59.59 10.59 59.59 27.62 84.13 27.62 84.13 51.41 96.14 51.41"/><g class="cls-4"><path class="cls-5" d="M49.1,69.63h.54c42.74.12,64.25,14.07,69.67,21.07v5H-20.56v-5C-15.14,83.7,6.36,69.75,49.1,69.63Z"/></g><path class="cls-6" d="M67,77.91S47.78,89.34,31.18,75.85C31.18,75.85,55.35,73.27,67,77.91Z"/><rect class="cls-7" x="79.77" y="29.9" width="2.54" height="3.61"/><rect class="cls-7" x="75.22" y="34.85" width="2.54" height="3.61" rx="1.27" ry="1.27"/><rect class="cls-7" x="78.34" y="34.82" width="2.54" height="3.61" rx="1.27" ry="1.27"/><rect class="cls-3" x="76.54" y="53.81" width="10.33" height="0.89"/><rect class="cls-3" x="76.54" y="59.31" width="10.33" height="0.89"/><rect class="cls-3" x="76.54" y="61.38" width="10.33" height="0.89"/><circle class="cls-8" cx="86.26" cy="36.71" r="0.5"/><circle class="cls-8" cx="86.26" cy="39.51" r="0.5"/><circle class="cls-8" cx="86.26" cy="42.3" r="0.5"/><circle class="cls-8" cx="61.25" cy="8.22" r="0.5"/><circle class="cls-8" cx="61.25" cy="11.02" r="0.5"/><circle class="cls-8" cx="61.25" cy="13.82" r="0.5"/><circle class="cls-8" cx="19.13" cy="40.14" r="0.5"/><circle class="cls-8" cx="19.13" cy="42.93" r="0.5"/><circle class="cls-8" cx="19.13" cy="45.73" r="0.5"/><circle class="cls-8" cx="72.17" cy="63.32" r="0.5"/><circle class="cls-8" cx="72.17" cy="66.12" r="0.5"/><circle class="cls-8" cx="72.17" cy="68.92" r="0.5"/><rect class="cls-3" x="5.94" y="51.09" width="2.85" height="6.81" rx="1.42" ry="1.42"/><rect class="cls-3" x="10.03" y="49.36" width="2.85" height="6.81" rx="1.42" ry="1.42"/><rect class="cls-3" x="14.11" y="47.13" width="2.85" height="6.81" rx="1.42" ry="1.42"/><g class="cls-9"><path class="cls-10" d="M-53.88,69.63h.54c42.74.12,64.25,14.07,69.67,21.07v5H-123.54v-5C-118.13,83.7-96.62,69.75-53.88,69.63Z"/></g><polygon class="cls-11" points="73.08 57.51 75.25 66.21 62.13 67.08 73.08 57.51"/><path class="cls-6" d="M64.68,26.22,36.56,28.67,31.18,75.85l35.7,2-3.43-12S87.17,61.67,64.68,26.22Z"/><ellipse class="cls-12" cx="66.78" cy="45.3" rx="1.03" ry="1.12"/><ellipse class="cls-12" cx="53.59" cy="47.01" rx="1.03" ry="1.12"/><path class="cls-13" d="M61.5,46.7l2.26,4.38s-2.4,1.84-4.38.56"/><path class="cls-14" d="M57.93,56s-3.54.92-4.46-2.26"/><path class="cls-11" d="M42.84,41.93,58.7,40.17l.88-4.29.88,3.85,13.47-1.27S76.2,20.35,57.82,20.35s-28.06-1.94-31.3,21.28-3,26.34-3,26.34l21.69.69Z"/><path class="cls-15" d="M30.92,41.73C33,27.06,37.49,22.1,45,20.45c-10.25.64-16.11,4.1-18.5,21.18C23.26,65,23.53,68,23.53,68l4.3.14C27.92,66.08,28.39,59.8,30.92,41.73Z"/><path class="cls-16" d="M63.45,65.82,67,77.91s-3.65,2.93-13.49,4.27l-.26-5.73-.7-11.74C57,66.73,63.45,65.82,63.45,65.82Z"/><path class="cls-6" d="M43.48,45.34s-3.5-1.1-3.28,1.85,4.07,4.3,4.07,4.3Z"/></svg>