<svg id="Layer_1" data-name="Layer 1" xmlns="http://www.w3.org/2000/svg" xmlns:xlink="http://www.w3.org/1999/xlink" viewBox="0 0 97.41 98.2"><defs><style>.cls-1,.cls-10,.cls-13,.cls-3,.cls-9{fill:none;}.cls-2{fill:#fff;stroke-width:2px;}.cls-13,.cls-2,.cls-3{stroke:#c0d7ff;}.cls-10,.cls-13,.cls-2,.cls-3,.cls-9{stroke-miterlimit:10;}.cls-3{stroke-width:0.5px;}.cls-4{clip-path:url(#clip-path);}.cls-5{fill:#161966;}.cls-6{fill:#f46851;}.cls-7{fill:#f9e421;}.cls-8{fill:#ad2b25;}.cls-9{stroke:#dd4536;}.cls-10,.cls-9{stroke-width:0.78px;}.cls-10{stroke:#ad2b25;}.cls-11{fill:#f4b925;}.cls-12{fill:#dd4536;}.cls-13{stroke-width:0.25px;}.cls-14,.cls-15{fill:#c0d7ff;}.cls-15{opacity:0.42;}</style><clipPath id="clip-path"><circle class="cls-1" cx="49.14" cy="48.65" r="47"/></clipPath></defs><title>profile2</title><circle class="cls-2" cx="49.14" cy="49.73" r="47"/><polyline class="cls-3" points="15.95 73.77 15.95 63.95 36.55 63.95"/><polyline class="cls-3" points="2.48 45.4 15.5 37.64 27.53 37.64 27.53 19.85 37.55 19.85 50.07 10.59 59.59 10.59 59.59 27.62 84.13 27.62 84.13 51.41 96.14 51.41"/><g class="cls-4"><path class="cls-5" d="M49.1,69.63h.54c42.74.12,64.25,14.07,69.67,21.07v5H-20.56v-5C-15.14,83.7,6.36,69.75,49.1,69.63Z"/></g><path class="cls-6" d="M64.68,26.22,36.56,28.67,31.18,75.85l35.7,2-3.43-12S87.17,61.67,64.68,26.22Z"/><path class="cls-7" d="M67.35,16.29s7,8.78.66,14.7S47,33.41,40.15,41.3c0,0-3.92-3.32-4.92,1.28-1.14,5.21,4,5.09,4,5.09S35,57.26,32.86,56.45c-5.39-2.05-22.13-35.36,19.8-36.36C52.66,20.09,62.72,21,67.35,16.29Z"/><ellipse class="cls-8" cx="66.78" cy="45.3" rx="1.03" ry="1.12"/><ellipse class="cls-8" cx="52.22" cy="48.93" rx="1.03" ry="1.12"/><path class="cls-9" d="M61.5,46.7l2.26,4.38s-2.4,1.84-4.38.56"/><path class="cls-10" d="M57.93,56s-3.54.92-4.46-2.26"/><path class="cls-11" d="M47,31.53C65.48,31,67.58,21.33,68.85,18.64,70.48,21.65,72.32,27,68,31,61.64,36.92,47,33.41,40.15,41.3c0,0-3.92-3.32-4.92,1.28a5.35,5.35,0,0,0-.07,2.3h0S30.38,32,47,31.53Z"/><path class="cls-6" d="M67,77.91S47.78,89.34,31.18,75.85C31.18,75.85,55.35,73.27,67,77.91Z"/><path class="cls-12" d="M63.45,65.82,67,77.91s-3.65,2.93-13.49,4.27l-.26-5.73-.7-11.74C57,66.73,63.45,65.82,63.45,65.82Z"/><rect class="cls-13" x="79.77" y="29.9" width="2.54" height="3.61"/><rect class="cls-13" x="75.22" y="34.85" width="2.54" height="3.61" rx="1.27" ry="1.27"/><rect class="cls-13" x="78.34" y="34.82" width="2.54" height="3.61" rx="1.27" ry="1.27"/><rect class="cls-3" x="76.54" y="53.81" width="10.33" height="0.89"/><rect class="cls-3" x="76.54" y="59.31" width="10.33" height="0.89"/><rect class="cls-3" x="76.54" y="61.38" width="10.33" height="0.89"/><circle class="cls-14" cx="86.26" cy="36.71" r="0.5"/><circle class="cls-14" cx="86.26" cy="39.51" r="0.5"/><circle class="cls-14" cx="86.26" cy="42.3" r="0.5"/><circle class="cls-14" cx="61.25" cy="8.22" r="0.5"/><circle class="cls-14" cx="61.25" cy="11.02" r="0.5"/><circle class="cls-14" cx="61.25" cy="13.82" r="0.5"/><circle class="cls-14" cx="19.13" cy="40.14" r="0.5"/><circle class="cls-14" cx="19.13" cy="42.93" r="0.5"/><circle class="cls-14" cx="19.13" cy="45.73" r="0.5"/><circle class="cls-14" cx="72.17" cy="63.32" r="0.5"/><circle class="cls-14" cx="72.17" cy="66.12" r="0.5"/><circle class="cls-14" cx="72.17" cy="68.92" r="0.5"/><path class="cls-15" d="M29.84,16A44.39,44.39,0,0,0,63.7,91.71,44.39,44.39,0,1,1,48.53,4.85,44.18,44.18,0,0,0,29.84,16Z"/><rect class="cls-3" x="5.94" y="51.09" width="2.85" height="6.81" rx="1.42" ry="1.42"/><rect class="cls-3" x="10.03" y="49.36" width="2.85" height="6.81" rx="1.42" ry="1.42"/><rect class="cls-3" x="14.11" y="47.13" width="2.85" height="6.81" rx="1.42" ry="1.42"/></svg>