<svg width="368" height="102" viewBox="0 0 368 102" fill="none" xmlns="http://www.w3.org/2000/svg">
<rect y="27" width="368" height="75" rx="23" fill="white"/>
<path d="M70.39 65.956C71.362 65.956 72.142 66.25 72.73 66.838C73.318 67.414 73.612 68.176 73.612 69.124V76H71.56V74.776C71.512 73.756 71.23 72.952 70.714 72.364C70.21 71.764 69.556 71.464 68.752 71.464C68.344 71.464 68.008 71.542 67.744 71.698C67.48 71.854 67.312 72.076 67.24 72.364H67.42C67.996 72.364 68.458 72.532 68.806 72.868C69.154 73.204 69.328 73.654 69.328 74.218C69.328 74.806 69.136 75.28 68.752 75.64C68.38 76 67.882 76.18 67.258 76.18C66.634 76.18 66.13 76 65.746 75.64C65.374 75.28 65.188 74.806 65.188 74.218V72.868C65.188 71.884 65.494 71.116 66.106 70.564C66.73 70.012 67.588 69.736 68.68 69.736C69.304 69.736 69.868 69.856 70.372 70.096C70.876 70.324 71.278 70.654 71.578 71.086V69.106C71.578 68.698 71.47 68.374 71.254 68.134C71.038 67.882 70.75 67.756 70.39 67.756H68.392C67.936 67.756 67.564 67.882 67.276 68.134C67 68.374 66.862 68.692 66.862 69.088H64.828C64.828 68.152 65.152 67.396 65.8 66.82C66.46 66.244 67.324 65.956 68.392 65.956H70.39ZM68.068 74.236C68.068 73.984 67.99 73.786 67.834 73.642C67.69 73.486 67.492 73.408 67.24 73.408C66.988 73.408 66.784 73.486 66.628 73.642C66.484 73.786 66.412 73.984 66.412 74.236C66.412 74.476 66.484 74.674 66.628 74.83C66.784 74.974 66.988 75.046 67.24 75.046C67.492 75.046 67.69 74.974 67.834 74.83C67.99 74.674 68.068 74.476 68.068 74.236ZM81.3981 65.956C82.3581 65.956 83.1321 66.25 83.7201 66.838C84.3081 67.414 84.6021 68.176 84.6021 69.124V73.3C84.6021 74.14 84.3681 74.8 83.9001 75.28C83.4441 75.76 82.7961 76 81.9561 76H77.6901C77.2461 76 76.8921 75.874 76.6281 75.622C76.3641 75.358 76.2321 75.01 76.2321 74.578V71.536C76.2321 70.948 76.4181 70.48 76.7901 70.132C77.1741 69.772 77.6781 69.592 78.3021 69.592C78.9261 69.592 79.4241 69.772 79.7961 70.132C80.1801 70.48 80.3721 70.948 80.3721 71.536C80.3721 72.088 80.1921 72.532 79.8321 72.868C79.4841 73.204 79.0161 73.372 78.4281 73.372C78.3321 73.372 78.2601 73.366 78.2121 73.354V74.29H81.6681C82.2681 74.29 82.5681 73.954 82.5681 73.282V69.106C82.5681 68.698 82.4601 68.374 82.2441 68.134C82.0281 67.882 81.7461 67.756 81.3981 67.756H79.0761C78.6201 67.756 78.2481 67.882 77.9601 68.134C77.6841 68.374 77.5461 68.692 77.5461 69.088H75.5121C75.5121 68.14 75.8301 67.384 76.4661 66.82C77.1021 66.244 77.9721 65.956 79.0761 65.956H81.3981ZM78.3021 70.726C78.0621 70.726 77.8641 70.804 77.7081 70.96C77.5521 71.104 77.4741 71.296 77.4741 71.536C77.4741 71.776 77.5521 71.974 77.7081 72.13C77.8641 72.274 78.0621 72.346 78.3021 72.346C78.5421 72.346 78.7341 72.274 78.8781 72.13C79.0341 71.974 79.1121 71.776 79.1121 71.536C79.1121 71.296 79.0341 71.104 78.8781 70.96C78.7341 70.804 78.5421 70.726 78.3021 70.726ZM91.988 65.92C92.624 65.92 93.14 66.112 93.536 66.496C93.932 66.868 94.13 67.36 94.13 67.972V73.786C94.13 74.482 93.944 75.028 93.572 75.424C93.2 75.808 92.678 76 92.006 76H90.818C90.506 76 90.224 75.928 89.972 75.784C89.732 75.628 89.534 75.418 89.378 75.154L86.192 69.412H88.388L91.07 74.254H91.628C91.928 74.254 92.078 74.05 92.078 73.642V69.97C92.03 69.982 91.958 69.988 91.862 69.988C91.25 69.988 90.758 69.808 90.386 69.448C90.014 69.076 89.828 68.584 89.828 67.972C89.828 67.36 90.026 66.868 90.422 66.496C90.818 66.112 91.34 65.92 91.988 65.92ZM91.988 68.8C92.24 68.8 92.438 68.728 92.582 68.584C92.738 68.428 92.816 68.224 92.816 67.972C92.816 67.72 92.738 67.522 92.582 67.378C92.438 67.222 92.24 67.144 91.988 67.144C91.724 67.144 91.514 67.222 91.358 67.378C91.214 67.522 91.142 67.72 91.142 67.972C91.142 68.224 91.214 68.428 91.358 68.584C91.514 68.728 91.724 68.8 91.988 68.8ZM101.677 65.956C102.637 65.956 103.411 66.25 103.999 66.838C104.599 67.414 104.899 68.176 104.899 69.124V73.354C104.899 74.194 104.665 74.848 104.197 75.316C103.741 75.772 103.093 76 102.253 76H100.507C100.063 76 99.7034 75.874 99.4274 75.622C99.1514 75.358 99.0134 75.01 99.0134 74.578V73.498H98.8334C98.2454 73.498 97.7714 73.324 97.4114 72.976C97.0514 72.628 96.8714 72.166 96.8714 71.59C96.8714 71.002 97.0574 70.528 97.4294 70.168C97.8134 69.808 98.3234 69.628 98.9594 69.628C99.5834 69.628 100.081 69.808 100.453 70.168C100.825 70.528 101.011 71.002 101.011 71.59V74.29H102.055C102.331 74.29 102.535 74.206 102.667 74.038C102.799 73.858 102.865 73.57 102.865 73.174V69.106C102.865 68.698 102.757 68.374 102.541 68.134C102.325 67.882 102.037 67.756 101.677 67.756H99.4274C98.9714 67.756 98.5994 67.888 98.3114 68.152C98.0354 68.416 97.8974 68.758 97.8974 69.178H95.8634C95.8634 68.218 96.1874 67.444 96.8354 66.856C97.4954 66.256 98.3594 65.956 99.4274 65.956H101.677ZM98.1314 71.59C98.1314 71.83 98.2034 72.028 98.3474 72.184C98.5034 72.328 98.7074 72.4 98.9594 72.4C99.1994 72.4 99.3974 72.328 99.5534 72.184C99.7094 72.028 99.7874 71.83 99.7874 71.59C99.7874 71.338 99.7094 71.14 99.5534 70.996C99.4094 70.84 99.2114 70.762 98.9594 70.762C98.7074 70.762 98.5034 70.84 98.3474 70.996C98.2034 71.14 98.1314 71.338 98.1314 71.59ZM102.953 64.714C101.741 64.714 100.793 64.498 100.109 64.066C99.4254 63.634 99.0834 63.034 99.0834 62.266C99.0834 61.714 99.2634 61.276 99.6234 60.952C99.9714 60.616 100.433 60.448 101.009 60.448C101.585 60.448 102.047 60.61 102.395 60.934C102.743 61.258 102.917 61.696 102.917 62.248C102.917 62.656 102.773 62.974 102.485 63.202L102.503 63.22C102.683 63.256 102.881 63.274 103.097 63.274C103.829 63.274 104.393 63.04 104.789 62.572C105.173 62.104 105.365 61.432 105.365 60.556H107.147C107.123 61.864 106.745 62.884 106.013 63.616C105.281 64.348 104.261 64.714 102.953 64.714ZM101.009 63.04C101.249 63.04 101.441 62.968 101.585 62.824C101.729 62.68 101.801 62.494 101.801 62.266C101.801 62.038 101.729 61.852 101.585 61.708C101.441 61.564 101.249 61.492 101.009 61.492C100.769 61.492 100.583 61.564 100.451 61.708C100.307 61.84 100.235 62.026 100.235 62.266C100.235 62.494 100.307 62.68 100.451 62.824C100.583 62.968 100.769 63.04 101.009 63.04ZM116.881 66.1V73.3C116.881 74.14 116.647 74.8 116.179 75.28C115.723 75.76 115.069 76 114.217 76H110.239C109.795 76 109.441 75.874 109.177 75.622C108.913 75.358 108.781 75.01 108.781 74.578V69.988H108.601C107.977 69.988 107.473 69.808 107.089 69.448C106.717 69.076 106.531 68.584 106.531 67.972C106.531 67.36 106.729 66.868 107.125 66.496C107.521 66.112 108.043 65.92 108.691 65.92C109.339 65.92 109.861 66.112 110.257 66.496C110.653 66.868 110.851 67.36 110.851 67.972V74.2H113.929C114.517 74.2 114.811 73.876 114.811 73.228V66.1H116.881ZM107.845 67.972C107.845 68.224 107.923 68.428 108.079 68.584C108.235 68.728 108.439 68.8 108.691 68.8C108.943 68.8 109.147 68.728 109.303 68.584C109.459 68.428 109.537 68.224 109.537 67.972C109.537 67.72 109.459 67.522 109.303 67.378C109.147 67.222 108.943 67.144 108.691 67.144C108.439 67.144 108.235 67.222 108.079 67.378C107.923 67.522 107.845 67.72 107.845 67.972ZM124.927 65.956C125.995 65.956 126.853 66.28 127.501 66.928C128.161 67.564 128.491 68.404 128.491 69.448V76H126.457V69.448C126.457 68.944 126.313 68.536 126.025 68.224C125.749 67.912 125.383 67.756 124.927 67.756H122.947C122.431 67.756 122.017 67.912 121.705 68.224C121.405 68.536 121.255 68.944 121.255 69.448V73.084H121.291L122.083 71.176C122.287 70.696 122.533 70.342 122.821 70.114C123.121 69.874 123.481 69.754 123.901 69.754C124.489 69.754 124.957 69.928 125.305 70.276C125.665 70.612 125.845 71.062 125.845 71.626C125.845 72.178 125.671 72.628 125.323 72.976C124.975 73.312 124.519 73.48 123.955 73.48C123.715 73.48 123.487 73.438 123.271 73.354C123.067 73.27 122.899 73.156 122.767 73.012L121.381 76H119.329V69.448C119.329 68.764 119.479 68.158 119.779 67.63C120.079 67.102 120.505 66.694 121.057 66.406C121.609 66.106 122.239 65.956 122.947 65.956H124.927ZM123.937 70.816C123.697 70.816 123.499 70.894 123.343 71.05C123.199 71.194 123.127 71.386 123.127 71.626C123.127 71.866 123.199 72.058 123.343 72.202C123.499 72.346 123.697 72.418 123.937 72.418C124.177 72.418 124.369 72.346 124.513 72.202C124.657 72.058 124.729 71.866 124.729 71.626C124.729 71.386 124.657 71.194 124.513 71.05C124.369 70.894 124.177 70.816 123.937 70.816ZM128.501 77.134V80.95C128.501 81.406 128.363 81.766 128.087 82.03C127.811 82.306 127.433 82.444 126.953 82.444H124.163C123.947 82.444 123.779 82.39 123.659 82.282C123.539 82.174 123.479 82.024 123.479 81.832V80.788H123.317C122.729 80.788 122.261 80.62 121.913 80.284C121.553 79.96 121.373 79.528 121.373 78.988C121.373 78.412 121.553 77.95 121.913 77.602C122.273 77.254 122.747 77.08 123.335 77.08C123.935 77.08 124.415 77.254 124.775 77.602C125.135 77.95 125.315 78.412 125.315 78.988V81.04H126.395C126.479 81.04 126.545 81.01 126.593 80.95C126.641 80.902 126.665 80.83 126.665 80.734V77.134H128.501ZM122.543 78.988C122.543 79.228 122.615 79.42 122.759 79.564C122.903 79.708 123.095 79.78 123.335 79.78C123.575 79.78 123.773 79.708 123.929 79.564C124.073 79.42 124.145 79.228 124.145 78.988C124.145 78.748 124.073 78.55 123.929 78.394C123.773 78.25 123.575 78.178 123.335 78.178C123.095 78.178 122.903 78.25 122.759 78.394C122.615 78.55 122.543 78.748 122.543 78.988ZM126.273 60.844H128.325V64.624H126.273V60.844ZM136.529 65.956C137.597 65.956 138.455 66.28 139.103 66.928C139.763 67.564 140.093 68.404 140.093 69.448V76H138.059V69.448C138.059 68.944 137.915 68.536 137.627 68.224C137.351 67.912 136.985 67.756 136.529 67.756H134.549C134.033 67.756 133.619 67.912 133.307 68.224C133.007 68.536 132.857 68.944 132.857 69.448V73.084H132.893L133.685 71.176C133.889 70.696 134.135 70.342 134.423 70.114C134.723 69.874 135.083 69.754 135.503 69.754C136.091 69.754 136.559 69.928 136.907 70.276C137.267 70.612 137.447 71.062 137.447 71.626C137.447 72.178 137.273 72.628 136.925 72.976C136.577 73.312 136.121 73.48 135.557 73.48C135.317 73.48 135.089 73.438 134.873 73.354C134.669 73.27 134.501 73.156 134.369 73.012L132.983 76H130.931V69.448C130.931 68.764 131.081 68.158 131.381 67.63C131.681 67.102 132.107 66.694 132.659 66.406C133.211 66.106 133.841 65.956 134.549 65.956H136.529ZM135.539 70.816C135.299 70.816 135.101 70.894 134.945 71.05C134.801 71.194 134.729 71.386 134.729 71.626C134.729 71.866 134.801 72.058 134.945 72.202C135.101 72.346 135.299 72.418 135.539 72.418C135.779 72.418 135.971 72.346 136.115 72.202C136.259 72.058 136.331 71.866 136.331 71.626C136.331 71.386 136.259 71.194 136.115 71.05C135.971 70.894 135.779 70.816 135.539 70.816ZM138.72 64.714C138.06 64.714 137.532 64.522 137.136 64.138C136.728 63.742 136.524 63.226 136.524 62.59C136.524 61.954 136.728 61.444 137.136 61.06C137.532 60.664 138.06 60.466 138.72 60.466C139.38 60.466 139.914 60.664 140.322 61.06C140.718 61.444 140.916 61.954 140.916 62.59C140.916 63.226 140.718 63.742 140.322 64.138C139.914 64.522 139.38 64.714 138.72 64.714ZM138.72 63.49C138.996 63.49 139.218 63.412 139.386 63.256C139.554 63.088 139.638 62.866 139.638 62.59C139.638 62.314 139.554 62.092 139.386 61.924C139.218 61.756 138.996 61.672 138.72 61.672C138.444 61.672 138.222 61.756 138.054 61.924C137.886 62.092 137.802 62.314 137.802 62.59C137.802 62.866 137.886 63.088 138.054 63.256C138.222 63.412 138.444 63.49 138.72 63.49ZM147.645 69.106C147.645 68.698 147.537 68.374 147.321 68.134C147.117 67.882 146.841 67.756 146.493 67.756H145.143C144.735 67.756 144.405 67.924 144.153 68.26C143.901 68.584 143.775 69.01 143.775 69.538H141.741C141.741 68.83 141.879 68.206 142.155 67.666C142.443 67.126 142.845 66.706 143.361 66.406C143.877 66.106 144.471 65.956 145.143 65.956H146.493C147.453 65.956 148.227 66.244 148.815 66.82C149.415 67.396 149.715 68.158 149.715 69.106V76H147.645V69.106ZM158.537 65.956C159.449 65.956 160.163 66.244 160.679 66.82C161.207 67.384 161.471 68.17 161.471 69.178V76H159.419V69.214C159.419 68.758 159.335 68.404 159.167 68.152C158.999 67.9 158.765 67.774 158.465 67.774H158.285L156.809 68.872L155.351 67.774H155.171C154.859 67.774 154.613 67.906 154.433 68.17C154.253 68.422 154.163 68.782 154.163 69.25V74.488H154.325C154.817 74.488 155.267 74.392 155.675 74.2C156.095 73.996 156.431 73.72 156.683 73.372H156.593C156.053 73.372 155.615 73.204 155.279 72.868C154.943 72.532 154.775 72.094 154.775 71.554C154.775 70.99 154.955 70.534 155.315 70.186C155.675 69.838 156.149 69.664 156.737 69.664C157.325 69.664 157.799 69.844 158.159 70.204C158.519 70.552 158.699 71.014 158.699 71.59C158.699 72.406 158.501 73.144 158.105 73.804C157.709 74.464 157.151 74.986 156.431 75.37C155.723 75.754 154.907 75.964 153.983 76H152.165V69.214C152.165 68.194 152.423 67.396 152.939 66.82C153.455 66.244 154.175 65.956 155.099 65.956H155.531L156.809 67L158.105 65.956H158.537ZM155.945 71.554C155.945 71.794 156.017 71.992 156.161 72.148C156.305 72.292 156.497 72.364 156.737 72.364C156.977 72.364 157.169 72.292 157.313 72.148C157.469 71.992 157.547 71.794 157.547 71.554C157.547 71.314 157.469 71.122 157.313 70.978C157.169 70.834 156.977 70.762 156.737 70.762C156.497 70.762 156.305 70.834 156.161 70.978C156.017 71.122 155.945 71.314 155.945 71.554ZM169.271 65.956C170.231 65.956 171.005 66.25 171.593 66.838C172.181 67.414 172.475 68.176 172.475 69.124V73.3C172.475 74.14 172.241 74.8 171.773 75.28C171.317 75.76 170.669 76 169.829 76H165.563C165.119 76 164.765 75.874 164.501 75.622C164.237 75.358 164.105 75.01 164.105 74.578V71.536C164.105 70.948 164.291 70.48 164.663 70.132C165.047 69.772 165.551 69.592 166.175 69.592C166.799 69.592 167.297 69.772 167.669 70.132C168.053 70.48 168.245 70.948 168.245 71.536C168.245 72.088 168.065 72.532 167.705 72.868C167.357 73.204 166.889 73.372 166.301 73.372C166.205 73.372 166.133 73.366 166.085 73.354V74.29H169.541C170.141 74.29 170.441 73.954 170.441 73.282V69.106C170.441 68.698 170.333 68.374 170.117 68.134C169.901 67.882 169.619 67.756 169.271 67.756H166.949C166.493 67.756 166.121 67.882 165.833 68.134C165.557 68.374 165.419 68.692 165.419 69.088H163.385C163.385 68.14 163.703 67.384 164.339 66.82C164.975 66.244 165.845 65.956 166.949 65.956H169.271ZM166.175 70.726C165.935 70.726 165.737 70.804 165.581 70.96C165.425 71.104 165.347 71.296 165.347 71.536C165.347 71.776 165.425 71.974 165.581 72.13C165.737 72.274 165.935 72.346 166.175 72.346C166.415 72.346 166.607 72.274 166.751 72.13C166.907 71.974 166.985 71.776 166.985 71.536C166.985 71.296 166.907 71.104 166.751 70.96C166.607 70.804 166.415 70.726 166.175 70.726ZM184.469 66.1V73.3C184.469 74.14 184.235 74.8 183.767 75.28C183.311 75.76 182.657 76 181.805 76H177.827C177.383 76 177.029 75.874 176.765 75.622C176.501 75.358 176.369 75.01 176.369 74.578V69.988H176.189C175.565 69.988 175.061 69.808 174.677 69.448C174.305 69.076 174.119 68.584 174.119 67.972C174.119 67.36 174.317 66.868 174.713 66.496C175.109 66.112 175.631 65.92 176.279 65.92C176.927 65.92 177.449 66.112 177.845 66.496C178.241 66.868 178.439 67.36 178.439 67.972V74.2H181.517C182.105 74.2 182.399 73.876 182.399 73.228V66.1H184.469ZM175.433 67.972C175.433 68.224 175.511 68.428 175.667 68.584C175.823 68.728 176.027 68.8 176.279 68.8C176.531 68.8 176.735 68.728 176.891 68.584C177.047 68.428 177.125 68.224 177.125 67.972C177.125 67.72 177.047 67.522 176.891 67.378C176.735 67.222 176.531 67.144 176.279 67.144C176.027 67.144 175.823 67.222 175.667 67.378C175.511 67.522 175.433 67.72 175.433 67.972ZM193.757 65.956C194.657 65.956 195.341 66.196 195.809 66.676C196.289 67.156 196.529 67.852 196.529 68.764V76H194.459V68.71C194.459 68.134 194.291 67.846 193.955 67.846H193.883L190.877 76H188.375V69.988H188.177C187.553 69.988 187.049 69.808 186.665 69.448C186.293 69.076 186.107 68.584 186.107 67.972C186.107 67.36 186.305 66.868 186.701 66.496C187.097 66.112 187.619 65.92 188.267 65.92C188.903 65.92 189.413 66.112 189.797 66.496C190.193 66.868 190.391 67.36 190.391 67.972V73.12H190.409L193.001 65.956H193.757ZM187.421 67.972C187.421 68.224 187.493 68.428 187.637 68.584C187.793 68.728 187.997 68.8 188.249 68.8C188.513 68.8 188.717 68.728 188.861 68.584C189.017 68.428 189.095 68.224 189.095 67.972C189.095 67.72 189.017 67.522 188.861 67.378C188.717 67.222 188.513 67.144 188.249 67.144C187.997 67.144 187.793 67.222 187.637 67.378C187.493 67.522 187.421 67.72 187.421 67.972ZM196.528 59.674V64.822C195.124 64.45 193.858 64.204 192.73 64.084C191.602 63.952 190.246 63.886 188.662 63.886H188.104C188.272 62.794 188.728 61.924 189.472 61.276C190.216 60.628 191.134 60.304 192.226 60.304C192.73 60.304 193.198 60.388 193.63 60.556C194.05 60.724 194.398 60.958 194.674 61.258V59.674H196.528ZM190.102 62.752C190.918 62.728 191.734 62.758 192.55 62.842C193.366 62.926 194.092 63.052 194.728 63.22C194.62 62.704 194.356 62.308 193.936 62.032C193.516 61.744 192.964 61.6 192.28 61.6C191.776 61.6 191.338 61.702 190.966 61.906C190.594 62.098 190.306 62.38 190.102 62.752ZM194.71 55.39H196.528V58.594H194.71V55.39ZM201.226 72.112C201.838 72.112 202.33 72.292 202.702 72.652C203.086 73.012 203.278 73.492 203.278 74.092C203.278 74.716 203.08 75.22 202.684 75.604C202.3 75.976 201.784 76.162 201.136 76.162C200.488 76.162 199.966 75.976 199.57 75.604C199.174 75.22 198.976 74.716 198.976 74.092V66.1H201.046V72.112H201.226ZM201.136 74.938C201.388 74.938 201.586 74.866 201.73 74.722C201.886 74.566 201.964 74.356 201.964 74.092C201.964 73.852 201.886 73.654 201.73 73.498C201.586 73.342 201.388 73.264 201.136 73.264C200.884 73.264 200.68 73.342 200.524 73.498C200.368 73.642 200.29 73.84 200.29 74.092C200.29 74.356 200.362 74.566 200.506 74.722C200.662 74.866 200.872 74.938 201.136 74.938ZM213.088 69.592C213.448 69.916 213.628 70.36 213.628 70.924V76H211.558V71.068C211.558 70.936 211.54 70.84 211.504 70.78C211.468 70.72 211.408 70.69 211.324 70.69L207.616 76H205.654V69.97C205.606 69.982 205.534 69.988 205.438 69.988C204.826 69.988 204.334 69.808 203.962 69.448C203.59 69.076 203.404 68.584 203.404 67.972C203.404 67.36 203.602 66.868 203.998 66.496C204.394 66.112 204.916 65.92 205.564 65.92C206.212 65.92 206.734 66.112 207.13 66.496C207.526 66.868 207.724 67.36 207.724 67.972V73.264L210.442 69.376C210.238 69.208 210.076 68.998 209.956 68.746C209.848 68.482 209.794 68.206 209.794 67.918C209.794 67.318 209.986 66.838 210.37 66.478C210.754 66.106 211.258 65.92 211.882 65.92C212.518 65.92 213.028 66.106 213.412 66.478C213.808 66.838 214.006 67.318 214.006 67.918C214.006 68.266 213.922 68.59 213.754 68.89C213.598 69.178 213.376 69.412 213.088 69.592ZM211.882 68.764C212.146 68.764 212.35 68.692 212.494 68.548C212.65 68.392 212.728 68.182 212.728 67.918C212.728 67.666 212.65 67.468 212.494 67.324C212.35 67.168 212.146 67.09 211.882 67.09C211.63 67.09 211.426 67.168 211.27 67.324C211.126 67.468 211.054 67.666 211.054 67.918C211.054 68.182 211.126 68.392 211.27 68.548C211.426 68.692 211.63 68.764 211.882 68.764ZM205.564 68.8C205.816 68.8 206.02 68.728 206.176 68.584C206.332 68.428 206.41 68.224 206.41 67.972C206.41 67.72 206.332 67.522 206.176 67.378C206.02 67.222 205.816 67.144 205.564 67.144C205.312 67.144 205.108 67.222 204.952 67.378C204.796 67.522 204.718 67.72 204.718 67.972C204.718 68.224 204.796 68.428 204.952 68.584C205.108 68.728 205.312 68.8 205.564 68.8ZM225.133 66.1V76H223.261C222.865 75.436 222.349 74.926 221.713 74.47C221.089 74.002 220.465 73.678 219.841 73.498V75.64C219.637 75.808 219.355 75.94 218.995 76.036C218.635 76.132 218.245 76.18 217.825 76.18C217.165 76.18 216.631 75.982 216.223 75.586C215.815 75.178 215.611 74.644 215.611 73.984C215.611 73.324 215.815 72.778 216.223 72.346C216.631 71.914 217.165 71.674 217.825 71.626V69.988H217.609C216.997 69.988 216.499 69.808 216.115 69.448C215.743 69.076 215.557 68.584 215.557 67.972C215.557 67.36 215.755 66.868 216.151 66.496C216.547 66.112 217.069 65.92 217.717 65.92C218.353 65.92 218.869 66.112 219.265 66.496C219.661 66.868 219.859 67.36 219.859 67.972V71.77C220.423 71.926 220.999 72.166 221.587 72.49C222.187 72.814 222.685 73.168 223.081 73.552V66.1H225.133ZM216.871 67.972C216.871 68.224 216.943 68.428 217.087 68.584C217.243 68.728 217.453 68.8 217.717 68.8C217.969 68.8 218.167 68.728 218.311 68.584C218.467 68.428 218.545 68.224 218.545 67.972C218.545 67.72 218.467 67.522 218.311 67.378C218.167 67.222 217.969 67.144 217.717 67.144C217.453 67.144 217.243 67.222 217.087 67.378C216.943 67.522 216.871 67.72 216.871 67.972ZM218.239 72.922H218.077C217.753 72.922 217.489 73.018 217.285 73.21C217.093 73.402 216.997 73.66 216.997 73.984C216.997 74.284 217.063 74.512 217.195 74.668C217.339 74.824 217.537 74.902 217.789 74.902C218.005 74.902 218.155 74.872 218.239 74.812V72.922ZM232.688 69.106C232.688 68.698 232.58 68.374 232.364 68.134C232.16 67.882 231.884 67.756 231.536 67.756H230.186C229.778 67.756 229.448 67.924 229.196 68.26C228.944 68.584 228.818 69.01 228.818 69.538H226.784C226.784 68.83 226.922 68.206 227.198 67.666C227.486 67.126 227.888 66.706 228.404 66.406C228.92 66.106 229.514 65.956 230.186 65.956H231.536C232.496 65.956 233.27 66.244 233.858 66.82C234.458 67.396 234.758 68.158 234.758 69.106V76H232.688V69.106ZM240.376 70.636C239.224 70.636 238.318 70.414 237.658 69.97C236.998 69.514 236.668 68.884 236.668 68.08C236.668 67.492 236.854 67.024 237.226 66.676C237.598 66.316 238.096 66.136 238.72 66.136C239.332 66.136 239.824 66.316 240.196 66.676C240.568 67.024 240.754 67.492 240.754 68.08C240.754 68.488 240.634 68.83 240.394 69.106H240.574C241.198 69.106 241.708 68.86 242.104 68.368C242.5 67.864 242.722 67.162 242.77 66.262H244.624C244.588 67.654 244.192 68.734 243.436 69.502C242.692 70.258 241.672 70.636 240.376 70.636ZM238.72 67.288C238.48 67.288 238.288 67.36 238.144 67.504C238 67.648 237.928 67.84 237.928 68.08C237.928 68.32 238 68.518 238.144 68.674C238.288 68.818 238.48 68.89 238.72 68.89C238.96 68.89 239.152 68.818 239.296 68.674C239.452 68.518 239.53 68.32 239.53 68.08C239.53 67.84 239.452 67.648 239.296 67.504C239.152 67.36 238.96 67.288 238.72 67.288ZM240.574 74.398C241.198 74.398 241.708 74.152 242.104 73.66C242.5 73.156 242.722 72.454 242.77 71.554H244.624C244.588 72.946 244.192 74.026 243.436 74.794C242.692 75.55 241.672 75.928 240.376 75.928C239.224 75.928 238.318 75.706 237.658 75.262C236.998 74.806 236.668 74.176 236.668 73.372C236.668 72.784 236.854 72.316 237.226 71.968C237.598 71.608 238.096 71.428 238.72 71.428C239.332 71.428 239.824 71.608 240.196 71.968C240.568 72.316 240.754 72.784 240.754 73.372C240.754 73.78 240.634 74.122 240.394 74.398H240.574ZM238.72 74.182C238.96 74.182 239.152 74.11 239.296 73.966C239.452 73.81 239.53 73.612 239.53 73.372C239.53 73.132 239.452 72.94 239.296 72.796C239.152 72.652 238.96 72.58 238.72 72.58C238.48 72.58 238.288 72.652 238.144 72.796C238 72.94 237.928 73.132 237.928 73.372C237.928 73.612 238 73.81 238.144 73.966C238.288 74.11 238.48 74.182 238.72 74.182ZM255.221 65.2C255.113 65.632 254.945 65.998 254.717 66.298C254.489 66.586 254.195 66.82 253.835 67C254.147 67.228 254.387 67.522 254.555 67.882C254.735 68.23 254.825 68.62 254.825 69.052V76H252.773V74.776C252.725 73.756 252.443 72.952 251.927 72.364C251.423 71.764 250.769 71.464 249.965 71.464C249.557 71.464 249.221 71.542 248.957 71.698C248.693 71.854 248.525 72.076 248.453 72.364H248.633C249.209 72.364 249.671 72.532 250.019 72.868C250.367 73.204 250.541 73.654 250.541 74.218C250.541 74.806 250.349 75.28 249.965 75.64C249.593 76 249.095 76.18 248.471 76.18C247.847 76.18 247.343 76 246.959 75.64C246.587 75.28 246.401 74.806 246.401 74.218V72.868C246.401 71.884 246.707 71.116 247.319 70.564C247.943 70.012 248.801 69.736 249.893 69.736C250.517 69.736 251.081 69.856 251.585 70.096C252.089 70.324 252.491 70.654 252.791 71.086V69.106C252.791 68.698 252.683 68.374 252.467 68.134C252.251 67.882 251.963 67.756 251.603 67.756H249.605C249.149 67.756 248.777 67.882 248.489 68.134C248.213 68.374 248.075 68.692 248.075 69.088H246.041C246.041 68.152 246.365 67.396 247.013 66.82C247.673 66.244 248.537 65.956 249.605 65.956H251.711C252.131 65.956 252.443 65.896 252.647 65.776C252.863 65.656 253.031 65.452 253.151 65.164L253.205 65.002H255.275L255.221 65.2ZM249.281 74.236C249.281 73.984 249.203 73.786 249.047 73.642C248.903 73.486 248.705 73.408 248.453 73.408C248.201 73.408 247.997 73.486 247.841 73.642C247.697 73.786 247.625 73.984 247.625 74.236C247.625 74.476 247.697 74.674 247.841 74.83C247.997 74.974 248.201 75.046 248.453 75.046C248.705 75.046 248.903 74.974 249.047 74.83C249.203 74.674 249.281 74.476 249.281 74.236ZM266.301 66.1V76H264.429C264.033 75.436 263.517 74.926 262.881 74.47C262.257 74.002 261.633 73.678 261.009 73.498V75.64C260.805 75.808 260.523 75.94 260.163 76.036C259.803 76.132 259.413 76.18 258.993 76.18C258.333 76.18 257.799 75.982 257.391 75.586C256.983 75.178 256.779 74.644 256.779 73.984C256.779 73.324 256.983 72.778 257.391 72.346C257.799 71.914 258.333 71.674 258.993 71.626V69.988H258.777C258.165 69.988 257.667 69.808 257.283 69.448C256.911 69.076 256.725 68.584 256.725 67.972C256.725 67.36 256.923 66.868 257.319 66.496C257.715 66.112 258.237 65.92 258.885 65.92C259.521 65.92 260.037 66.112 260.433 66.496C260.829 66.868 261.027 67.36 261.027 67.972V71.77C261.591 71.926 262.167 72.166 262.755 72.49C263.355 72.814 263.853 73.168 264.249 73.552V66.1H266.301ZM258.039 67.972C258.039 68.224 258.111 68.428 258.255 68.584C258.411 68.728 258.621 68.8 258.885 68.8C259.137 68.8 259.335 68.728 259.479 68.584C259.635 68.428 259.713 68.224 259.713 67.972C259.713 67.72 259.635 67.522 259.479 67.378C259.335 67.222 259.137 67.144 258.885 67.144C258.621 67.144 258.411 67.222 258.255 67.378C258.111 67.522 258.039 67.72 258.039 67.972ZM259.407 72.922H259.245C258.921 72.922 258.657 73.018 258.453 73.21C258.261 73.402 258.165 73.66 258.165 73.984C258.165 74.284 258.231 74.512 258.363 74.668C258.507 74.824 258.705 74.902 258.957 74.902C259.173 74.902 259.323 74.872 259.407 74.812V72.922ZM275.584 65.956C276.484 65.956 277.168 66.196 277.636 66.676C278.116 67.156 278.356 67.852 278.356 68.764V76H276.286V68.71C276.286 68.134 276.118 67.846 275.782 67.846H275.71L272.704 76H270.202V69.988H270.004C269.38 69.988 268.876 69.808 268.492 69.448C268.12 69.076 267.934 68.584 267.934 67.972C267.934 67.36 268.132 66.868 268.528 66.496C268.924 66.112 269.446 65.92 270.094 65.92C270.73 65.92 271.24 66.112 271.624 66.496C272.02 66.868 272.218 67.36 272.218 67.972V73.12H272.236L274.828 65.956H275.584ZM269.248 67.972C269.248 68.224 269.32 68.428 269.464 68.584C269.62 68.728 269.824 68.8 270.076 68.8C270.34 68.8 270.544 68.728 270.688 68.584C270.844 68.428 270.922 68.224 270.922 67.972C270.922 67.72 270.844 67.522 270.688 67.378C270.544 67.222 270.34 67.144 270.076 67.144C269.824 67.144 269.62 67.222 269.464 67.378C269.32 67.522 269.248 67.72 269.248 67.972ZM278.354 59.674V64.822C276.95 64.45 275.684 64.204 274.556 64.084C273.428 63.952 272.072 63.886 270.488 63.886H269.93C270.098 62.794 270.554 61.924 271.298 61.276C272.042 60.628 272.96 60.304 274.052 60.304C274.556 60.304 275.024 60.388 275.456 60.556C275.876 60.724 276.224 60.958 276.5 61.258V59.674H278.354ZM271.928 62.752C272.744 62.728 273.56 62.758 274.376 62.842C275.192 62.926 275.918 63.052 276.554 63.22C276.446 62.704 276.182 62.308 275.762 62.032C275.342 61.744 274.79 61.6 274.106 61.6C273.602 61.6 273.164 61.702 272.792 61.906C272.42 62.098 272.132 62.38 271.928 62.752ZM276.536 55.39H278.354V58.594H276.536V55.39ZM289.586 65.2C289.478 65.632 289.31 65.998 289.082 66.298C288.854 66.586 288.56 66.82 288.2 67C288.512 67.228 288.752 67.522 288.92 67.882C289.1 68.23 289.19 68.62 289.19 69.052V76H287.138V74.776C287.09 73.756 286.808 72.952 286.292 72.364C285.788 71.764 285.134 71.464 284.33 71.464C283.922 71.464 283.586 71.542 283.322 71.698C283.058 71.854 282.89 72.076 282.818 72.364H282.998C283.574 72.364 284.036 72.532 284.384 72.868C284.732 73.204 284.906 73.654 284.906 74.218C284.906 74.806 284.714 75.28 284.33 75.64C283.958 76 283.46 76.18 282.836 76.18C282.212 76.18 281.708 76 281.324 75.64C280.952 75.28 280.766 74.806 280.766 74.218V72.868C280.766 71.884 281.072 71.116 281.684 70.564C282.308 70.012 283.166 69.736 284.258 69.736C284.882 69.736 285.446 69.856 285.95 70.096C286.454 70.324 286.856 70.654 287.156 71.086V69.106C287.156 68.698 287.048 68.374 286.832 68.134C286.616 67.882 286.328 67.756 285.968 67.756H283.97C283.514 67.756 283.142 67.882 282.854 68.134C282.578 68.374 282.44 68.692 282.44 69.088H280.406C280.406 68.152 280.73 67.396 281.378 66.82C282.038 66.244 282.902 65.956 283.97 65.956H286.076C286.496 65.956 286.808 65.896 287.012 65.776C287.228 65.656 287.396 65.452 287.516 65.164L287.57 65.002H289.64L289.586 65.2ZM283.646 74.236C283.646 73.984 283.568 73.786 283.412 73.642C283.268 73.486 283.07 73.408 282.818 73.408C282.566 73.408 282.362 73.486 282.206 73.642C282.062 73.786 281.99 73.984 281.99 74.236C281.99 74.476 282.062 74.674 282.206 74.83C282.362 74.974 282.566 75.046 282.818 75.046C283.07 75.046 283.268 74.974 283.412 74.83C283.568 74.674 283.646 74.476 283.646 74.236ZM287.13 77.08C287.754 77.08 288.258 77.254 288.642 77.602C289.014 77.962 289.2 78.436 289.2 79.024V82.462H287.184V80.932H287.04C286.44 80.932 285.96 80.758 285.6 80.41C285.228 80.062 285.042 79.6 285.042 79.024C285.042 78.436 285.234 77.962 285.618 77.602C286.002 77.254 286.506 77.08 287.13 77.08ZM286.32 79.024C286.32 79.264 286.398 79.456 286.554 79.6C286.698 79.756 286.89 79.834 287.13 79.834C287.37 79.834 287.568 79.756 287.724 79.6C287.868 79.456 287.94 79.264 287.94 79.024C287.94 78.784 287.868 78.586 287.724 78.43C287.568 78.286 287.37 78.214 287.13 78.214C286.89 78.214 286.698 78.286 286.554 78.43C286.398 78.586 286.32 78.784 286.32 79.024ZM297.228 65.956C297.948 65.956 298.584 66.106 299.136 66.406C299.688 66.694 300.114 67.102 300.414 67.63C300.714 68.158 300.864 68.764 300.864 69.448V76H298.812V69.448C298.812 68.944 298.668 68.536 298.38 68.224C298.104 67.912 297.732 67.756 297.264 67.756H295.284C294.792 67.756 294.39 67.918 294.078 68.242C293.778 68.566 293.628 68.992 293.628 69.52V74.488H293.79C294.282 74.488 294.732 74.386 295.14 74.182C295.56 73.978 295.896 73.696 296.148 73.336H296.058C295.518 73.336 295.08 73.174 294.744 72.85C294.408 72.514 294.24 72.07 294.24 71.518C294.24 70.954 294.42 70.498 294.78 70.15C295.14 69.802 295.614 69.628 296.202 69.628C296.79 69.628 297.264 69.808 297.624 70.168C297.984 70.516 298.164 70.978 298.164 71.554C298.164 72.382 297.966 73.126 297.57 73.786C297.174 74.446 296.616 74.974 295.896 75.37C295.188 75.754 294.372 75.964 293.448 76H291.63V69.52C291.63 68.452 291.96 67.594 292.62 66.946C293.292 66.286 294.18 65.956 295.284 65.956H297.228ZM295.392 71.518C295.392 71.758 295.464 71.956 295.608 72.112C295.764 72.256 295.962 72.328 296.202 72.328C296.442 72.328 296.634 72.256 296.778 72.112C296.934 71.956 297.012 71.758 297.012 71.518C297.012 71.278 296.934 71.086 296.778 70.942C296.634 70.798 296.442 70.726 296.202 70.726C295.962 70.726 295.764 70.798 295.608 70.942C295.464 71.086 295.392 71.278 295.392 71.518Z" fill="#151862"/>
<rect x="48" y="13" width="177" height="28" rx="14" fill="#FF5964"/>
<path d="M94.57 33V20.238H91.636L87.55 29.976L83.41 20.238H80.53V33H82.636V23.64L86.578 33H88.45L92.428 23.604V33H94.57ZM99.5235 33V24.234H97.4535V33H99.5235ZM97.1295 21.156C97.1295 21.912 97.7415 22.506 98.4795 22.506C99.2355 22.506 99.8475 21.912 99.8475 21.156C99.8475 20.4 99.2355 19.788 98.4795 19.788C97.7415 19.788 97.1295 20.4 97.1295 21.156ZM104.305 27.942C104.305 26.79 104.935 25.872 106.123 25.872C107.437 25.872 107.923 26.736 107.923 27.816V33H110.011V27.456C110.011 25.53 108.985 23.982 106.843 23.982C105.871 23.982 104.827 24.396 104.251 25.404V24.234H102.217V33H104.305V27.942ZM114.623 33V24.234H112.553V33H114.623ZM112.229 21.156C112.229 21.912 112.841 22.506 113.579 22.506C114.335 22.506 114.947 21.912 114.947 21.156C114.947 20.4 114.335 19.788 113.579 19.788C112.841 19.788 112.229 20.4 112.229 21.156ZM127.632 33.27C130.89 33.27 132.834 31.2 133.41 29.04L131.43 28.392C130.998 29.832 129.774 31.2 127.632 31.2C125.454 31.2 123.402 29.616 123.402 26.628C123.402 23.532 125.508 22.002 127.614 22.002C129.756 22.002 130.944 23.244 131.322 24.792L133.356 24.108C132.78 21.876 130.854 19.968 127.614 19.968C124.302 19.968 121.188 22.47 121.188 26.628C121.188 30.786 124.194 33.27 127.632 33.27ZM137.334 27.852C137.37 26.736 138 25.872 139.152 25.872C140.466 25.872 140.952 26.736 140.952 27.816V33H143.04V27.456C143.04 25.53 141.996 23.982 139.836 23.982C138.918 23.982 137.928 24.306 137.334 25.08V19.968H135.246V33H137.334V27.852ZM145.042 30.624C145.042 32.01 146.176 33.27 148.012 33.27C149.434 33.27 150.298 32.55 150.712 31.884C150.712 32.586 150.784 32.946 150.802 33H152.746C152.728 32.91 152.638 32.388 152.638 31.596V27.24C152.638 25.494 151.612 23.964 148.912 23.964C146.752 23.964 145.384 25.314 145.222 26.826L147.13 27.258C147.22 26.376 147.832 25.674 148.93 25.674C150.082 25.674 150.586 26.268 150.586 27.006C150.586 27.312 150.442 27.564 149.938 27.636L147.688 27.978C146.194 28.194 145.042 29.058 145.042 30.624ZM148.408 31.632C147.58 31.632 147.13 31.092 147.13 30.498C147.13 29.778 147.652 29.418 148.3 29.31L150.586 28.968V29.364C150.586 31.074 149.578 31.632 148.408 31.632ZM157.251 33V19.968H155.163V33H157.251ZM162.032 33V19.968H159.944V33H162.032ZM166.183 27.654C166.255 26.718 167.011 25.71 168.325 25.71C169.765 25.71 170.449 26.628 170.485 27.654H166.183ZM170.719 29.94C170.431 30.804 169.783 31.47 168.523 31.47C167.227 31.47 166.183 30.516 166.129 29.184H172.537C172.555 29.148 172.591 28.86 172.591 28.518C172.591 25.746 171.007 23.964 168.307 23.964C166.093 23.964 164.041 25.8 164.041 28.572C164.041 31.542 166.147 33.27 168.523 33.27C170.629 33.27 172.015 32.028 172.483 30.498L170.719 29.94ZM176.674 27.942C176.674 26.79 177.304 25.872 178.492 25.872C179.806 25.872 180.292 26.736 180.292 27.816V33H182.38V27.456C182.38 25.53 181.354 23.982 179.212 23.982C178.24 23.982 177.196 24.396 176.62 25.404V24.234H174.586V33H176.674V27.942ZM184.292 33.486C184.526 35.25 186.146 36.69 188.468 36.69C191.762 36.69 192.968 34.512 192.968 32.172V24.234H190.952V25.35C190.574 24.63 189.728 24.072 188.36 24.072C185.948 24.072 184.31 25.998 184.31 28.338C184.31 30.804 186.02 32.604 188.36 32.604C189.638 32.604 190.52 32.01 190.898 31.326V32.244C190.898 34.026 190.07 34.872 188.414 34.872C187.208 34.872 186.362 34.062 186.218 32.982L184.292 33.486ZM188.702 30.822C187.334 30.822 186.416 29.868 186.416 28.338C186.416 26.844 187.37 25.872 188.702 25.872C189.998 25.872 190.952 26.844 190.952 28.338C190.952 29.85 190.034 30.822 188.702 30.822ZM196.98 27.654C197.052 26.718 197.808 25.71 199.122 25.71C200.562 25.71 201.246 26.628 201.282 27.654H196.98ZM201.516 29.94C201.228 30.804 200.58 31.47 199.32 31.47C198.024 31.47 196.98 30.516 196.926 29.184H203.334C203.352 29.148 203.388 28.86 203.388 28.518C203.388 25.746 201.804 23.964 199.104 23.964C196.89 23.964 194.838 25.8 194.838 28.572C194.838 31.542 196.944 33.27 199.32 33.27C201.426 33.27 202.812 32.028 203.28 30.498L201.516 29.94Z" fill="white"/>
<circle cx="43" cy="24" r="24" fill="#FFCD1C"/>
<rect x="38" y="21" width="3" height="27" fill="white"/>
<path d="M61 23.4211L38 13V31L61 23.4211Z" fill="#FF5964"/>
</svg>
