<svg width="296" height="387" viewBox="0 0 296 387" fill="none" xmlns="http://www.w3.org/2000/svg">
<path fill-rule="evenodd" clip-rule="evenodd" d="M109.055 364.235C123.152 363.522 138.921 363.123 155.565 363.123C215.501 363.123 264.089 368.296 264.089 374.677C264.089 381.058 215.501 386.231 155.565 386.231C138.921 386.231 123.151 385.832 109.055 385.119C99.1388 385.832 88.0464 386.231 76.3384 386.231C34.1779 386.231 0 381.058 0 374.677C0 368.296 34.1779 363.123 76.3384 363.123C88.0466 363.123 99.1391 363.522 109.055 364.235Z" fill="#A98813" fill-opacity="0.4"/>
<path fill-rule="evenodd" clip-rule="evenodd" d="M184.473 55.1106C182.256 49.1581 181.663 42.6363 184.372 36.5562C192.176 19.0378 215.762 32.1011 217.328 42.9464C218.893 53.7916 209.938 76.5968 203.056 75.9286C200.312 75.6621 195.543 72.1325 191.297 66.8737L185.919 92.2727L165.758 84.9346L184.473 55.1106Z" fill="#E9D0C2"/>
<path fill-rule="evenodd" clip-rule="evenodd" d="M191.91 56.3862C187.664 60.2752 182.89 62.6306 179.436 61.3733C172.875 58.9851 171.402 48.5147 174.835 39.0828C174.956 38.7514 175.082 38.4247 175.214 38.1026C166.54 40.3393 157.773 47.7807 148.59 44.4381C136.095 39.8904 140.306 12.8829 157.762 19.2366C169.634 23.5575 174.844 27.4139 178.945 31.8053C180.956 29.3682 183.326 27.5664 185.774 26.5971C186.402 26.258 187.259 26.0269 188.302 25.9028C188.947 25.8042 189.592 25.7671 190.23 25.795C193.671 25.7843 198.354 26.5977 203.327 28.2135C204.255 28.5152 205.159 28.8336 206.034 29.1652C207.732 24.5431 212.851 22.1633 217.482 23.8487C222.121 25.5374 224.514 30.6673 222.825 35.3068C221.192 39.7936 216.34 42.1785 211.826 40.8033C209.009 40.6629 205.546 40.0523 201.849 38.9806C201.719 40.4259 201.365 41.9922 200.749 43.6839C200.206 45.1776 199.464 46.7018 198.575 48.1998C198.131 46.9845 197.305 45.9964 196.243 45.6098C193.271 44.5281 190.313 46.2199 189.368 48.8156C188.169 52.1098 189.203 55.1852 191.91 56.3862Z" fill="#191847"/>
<path fill-rule="evenodd" clip-rule="evenodd" d="M112.122 251.345C133.568 257.344 152.07 260.343 167.63 260.343C183.19 260.343 197.642 255.724 210.987 246.487C190.001 240.33 172.718 237.252 159.138 237.252C145.557 237.252 129.886 241.95 112.122 251.345Z" fill="#1F28CF"/>
<path fill-rule="evenodd" clip-rule="evenodd" d="M186.196 268.989C185.989 268.678 185.814 268.34 185.676 267.974C182.809 260.393 136.894 178.61 132.319 163.658H184.014C187.492 175.026 203.145 246.368 205.348 260.601C212.299 283.053 226.61 355.767 228.437 360.804C230.359 366.103 219.545 371.624 216.664 365.109C212.078 354.743 201.153 326.06 196.289 308.547C191.728 292.128 188.015 277.357 186.196 268.989Z" fill="#E9D0C2"/>
<path fill-rule="evenodd" clip-rule="evenodd" d="M143.903 278.974C122.911 284.279 46.1275 293.871 40.8583 295.375C35.4379 296.923 30.6853 285.75 37.3852 283.33C48.0458 279.479 77.4208 270.581 95.231 266.95C109.556 264.03 122.629 261.647 131.405 260.251C130.661 235.599 127.263 176.436 129.49 163.658H175.23C173.094 175.911 155.036 265.318 151.679 274.267C150.614 277.462 147.436 278.874 143.903 278.974Z" fill="#E9D0C2"/>
<path fill-rule="evenodd" clip-rule="evenodd" d="M37.8707 280.355C35.0678 279.834 33.0137 279.688 31.7084 279.918C30.1208 280.198 27.8508 280.871 24.8983 281.937C25.223 283.779 28.1415 300.331 33.6538 331.592C38.1472 332.131 40.3189 330.98 40.1688 328.14C40.0188 325.3 39.9187 322.936 39.8685 321.049L46.0879 296.155C46.2075 295.676 45.9162 295.191 45.4372 295.071C45.429 295.069 45.4208 295.067 45.4126 295.066L41.5523 294.217C39.8977 291.855 38.9286 289.869 38.6449 288.26C38.4143 286.953 38.624 285.054 39.2738 282.564L39.2738 282.564C39.5232 281.609 38.9508 280.632 37.9953 280.383C37.9541 280.372 37.9126 280.363 37.8707 280.355Z" fill="#E4E4E4"/>
<path fill-rule="evenodd" clip-rule="evenodd" d="M213.382 364.265C212.382 366.935 211.882 368.933 211.882 370.258C211.882 371.87 212.15 374.223 212.688 377.316C214.558 377.316 231.365 377.316 263.109 377.316C264.419 372.984 263.663 370.645 260.84 370.3C258.017 369.954 255.671 369.643 253.804 369.364L230.369 358.917C229.918 358.716 229.39 358.918 229.188 359.369C229.185 359.377 229.182 359.385 229.179 359.393L227.672 363.047C225.059 364.266 222.935 364.876 221.301 364.876C219.974 364.876 218.14 364.34 215.801 363.267L215.801 363.267C214.904 362.856 213.843 363.25 213.431 364.147C213.413 364.186 213.397 364.225 213.382 364.265Z" fill="#E4E4E4"/>
<path fill-rule="evenodd" clip-rule="evenodd" d="M129.637 163.658C149.793 157.892 168.865 157.892 186.851 163.658C193.109 192.209 208.314 203.541 210.988 247.314C180.593 262.417 143.047 236.543 111.758 251.271C102.819 230.671 115.334 181.059 129.637 163.658Z" fill="#2B44FF"/>
<path fill-rule="evenodd" clip-rule="evenodd" d="M228.035 155.973L263.1 150.714C270.057 146.753 276.476 144.046 282.356 142.592C284.018 142.519 286.674 143.074 282.798 146.369C278.922 149.665 274.996 153.305 275.732 155.021C276.468 156.737 280.119 156.039 280.778 158.686C281.218 160.45 275.277 160.828 262.957 159.82L234.649 171.396L228.035 155.973ZM100.073 125.723L116.896 133.975C90.1942 162.189 75.9302 177.112 74.1037 178.745C69.9941 182.419 70.5269 191.313 70.3798 195.882C63.6854 195.647 68.6927 186.905 60.188 186.732C52.4253 186.573 45.0179 189.52 39.8904 181.495C39.26 180.508 39.2879 177.96 42.462 177.499C50.3699 176.352 62.3758 173.453 64.6682 171.693C67.7944 169.293 79.596 153.969 100.073 125.723Z" fill="#E9D0C2"/>
<path fill-rule="evenodd" clip-rule="evenodd" d="M183.75 77.5371L191.585 78.2706C203.701 98.3427 200.256 137.843 209.796 145.75C218.815 153.225 234.618 152.564 253.599 151.04L255.756 164.219C235.486 176.889 198.119 182.17 186.705 170.381C168.457 151.533 175.903 103.672 183.75 77.5371Z" fill="#DB2721"/>
<path fill-rule="evenodd" clip-rule="evenodd" d="M126.064 162.157C156.111 170.208 178.213 176.13 192.37 179.923C195.4 180.735 195.991 176.245 196.14 173.938C197.854 147.322 185.418 114.803 195.054 78.8426L176.725 70.7442C154.146 91.7315 140.353 121.324 126.064 162.157Z" fill="#DDE3E9"/>
<path fill-rule="evenodd" clip-rule="evenodd" d="M126.302 134.808C106.308 155.36 90.2823 169.721 78.2262 177.888L65.0511 171.465C88.7545 118.814 125.567 85.1297 175.489 70.4136L175.708 70.4721L183.062 72.4427C184.683 135.074 179.056 175.009 166.181 192.246L106.495 176.253C111.223 162.383 118.253 148.259 126.302 134.808L126.302 134.808Z" fill="#FF4133"/>
</svg>
