<svg width="263" height="131" viewBox="0 0 263 131" fill="none" xmlns="http://www.w3.org/2000/svg">
<g filter="url(#filter0_d)">
<path d="M108.176 75.9241L103.864 101.013C103.147 105.188 107.536 108.372 111.294 106.4L133.873 94.5552L156.452 106.401C160.208 108.373 164.599 105.189 163.882 101.015L159.57 75.9256L177.837 58.1576C180.877 55.201 179.2 50.05 175 49.441L149.755 45.7804L138.466 22.9522C136.587 19.1539 131.161 19.1539 129.282 22.9522L117.992 45.7804L92.7478 49.441C88.5476 50.05 86.8706 55.201 89.9102 58.1576L108.176 75.9241Z" fill="url(#paint0_linear)"/>
</g>
<path d="M54.8526 107.192L53.2927 116.391C53.0334 117.922 54.6211 119.089 55.9803 118.366L64.1471 114.023L72.3139 118.367C73.6726 119.09 75.2608 117.922 75.0015 116.392L73.4416 107.192L80.0491 100.677C81.1485 99.5932 80.5419 97.7045 79.0227 97.4812L69.8917 96.139L65.8083 87.7687C65.1287 86.3759 63.166 86.3759 62.4864 87.7687L58.403 96.139L49.2721 97.4812C47.7528 97.7045 47.1462 99.5932 48.2457 100.677L54.8526 107.192Z" fill="url(#paint1_linear)"/>
<path d="M54.8526 21.2605L53.2927 30.4599C53.0334 31.9906 54.6211 33.1579 55.9803 32.435L64.1471 28.0919L72.3139 32.4355C73.6726 33.1584 75.2608 31.9911 75.0015 30.4604L73.4416 21.2611L80.0491 14.7461C81.1485 13.662 80.5419 11.7733 79.0227 11.5501L69.8917 10.2078L65.8083 1.8375C65.1287 0.444791 63.166 0.444791 62.4864 1.8375L58.403 10.2078L49.2721 11.5501C47.7528 11.7733 47.1462 13.662 48.2457 14.7461L54.8526 21.2605Z" fill="url(#paint2_linear)"/>
<path d="M7.40006 64.7088L5.84017 73.9082C5.58087 75.4388 7.16855 76.6062 8.52779 75.8833L16.6946 71.5401L24.8614 75.8838C26.2201 76.6067 27.8083 75.4393 27.549 73.9087L25.9891 64.7093L32.5965 58.1944C33.696 57.1103 33.0894 55.2216 31.5702 54.9983L22.4392 53.6561L18.3558 45.2857C17.6762 43.893 15.7135 43.893 15.0339 45.2857L10.9505 53.6561L1.81954 54.9983C0.30029 55.2216 -0.306278 57.1103 0.793158 58.1944L7.40006 64.7088Z" fill="url(#paint3_linear)"/>
<path d="M208.053 107.192L209.613 116.391C209.872 117.922 208.284 119.089 206.925 118.366L198.758 114.023L190.591 118.367C189.233 119.09 187.644 117.922 187.904 116.392L189.464 107.192L182.856 100.677C181.757 99.5932 182.363 97.7045 183.883 97.4812L193.014 96.139L197.097 87.7687C197.777 86.3759 199.739 86.3759 200.419 87.7687L204.502 96.139L213.633 97.4812C215.152 97.7045 215.759 99.5932 214.66 100.677L208.053 107.192Z" fill="url(#paint4_linear)"/>
<path d="M208.053 21.2605L209.613 30.4599C209.872 31.9906 208.284 33.1579 206.925 32.435L198.758 28.0919L190.591 32.4355C189.233 33.1584 187.644 31.9911 187.904 30.4604L189.464 21.2611L182.856 14.7461C181.757 13.662 182.363 11.7733 183.883 11.5501L193.014 10.2078L197.097 1.8375C197.777 0.444791 199.739 0.444791 200.419 1.8375L204.502 10.2078L213.633 11.5501C215.152 11.7733 215.759 13.662 214.66 14.7461L208.053 21.2605Z" fill="url(#paint5_linear)"/>
<path d="M255.505 64.7088L257.065 73.9082C257.325 75.4388 255.737 76.6062 254.378 75.8833L246.211 71.5401L238.044 75.8838C236.685 76.6067 235.097 75.4393 235.356 73.9087L236.916 64.7093L230.309 58.1944C229.209 57.1103 229.816 55.2216 231.335 54.9983L240.466 53.6561L244.55 45.2857C245.229 43.893 247.192 43.893 247.872 45.2857L251.955 53.6561L261.086 54.9983C262.605 55.2216 263.212 57.1103 262.112 58.1944L255.505 64.7088Z" fill="url(#paint6_linear)"/>
<path d="M120.289 63.4223V61.0823H124.627V73.8623H122.035V63.4223H120.289ZM131.976 60.7763C128.736 60.7763 127.116 62.9483 127.116 67.2923C127.116 71.6483 128.736 73.8263 131.976 73.8263C135.216 73.8263 136.836 71.6483 136.836 67.2923C136.836 62.9483 135.216 60.7763 131.976 60.7763ZM131.976 63.1163C132.648 63.1163 133.152 63.3023 133.488 63.6743C133.836 64.0463 134.064 64.5323 134.172 65.1323C134.292 65.7203 134.352 66.4403 134.352 67.2923C134.352 68.1443 134.292 68.8703 134.172 69.4703C134.064 70.0703 133.836 70.5563 133.488 70.9283C133.152 71.3003 132.648 71.4863 131.976 71.4863C131.304 71.4863 130.794 71.3003 130.446 70.9283C130.11 70.5563 129.882 70.0703 129.762 69.4703C129.654 68.8703 129.6 68.1443 129.6 67.2923C129.6 66.4403 129.654 65.7203 129.762 65.1323C129.882 64.5323 130.11 64.0463 130.446 63.6743C130.794 63.3023 131.304 63.1163 131.976 63.1163ZM143.613 60.7763C140.373 60.7763 138.753 62.9483 138.753 67.2923C138.753 71.6483 140.373 73.8263 143.613 73.8263C146.853 73.8263 148.473 71.6483 148.473 67.2923C148.473 62.9483 146.853 60.7763 143.613 60.7763ZM143.613 63.1163C144.285 63.1163 144.789 63.3023 145.125 63.6743C145.473 64.0463 145.701 64.5323 145.809 65.1323C145.929 65.7203 145.989 66.4403 145.989 67.2923C145.989 68.1443 145.929 68.8703 145.809 69.4703C145.701 70.0703 145.473 70.5563 145.125 70.9283C144.789 71.3003 144.285 71.4863 143.613 71.4863C142.941 71.4863 142.431 71.3003 142.083 70.9283C141.747 70.5563 141.519 70.0703 141.399 69.4703C141.291 68.8703 141.237 68.1443 141.237 67.2923C141.237 66.4403 141.291 65.7203 141.399 65.1323C141.519 64.5323 141.747 64.0463 142.083 63.6743C142.431 63.3023 142.941 63.1163 143.613 63.1163Z" fill="white"/>
<defs>
<filter id="filter0_d" x="68.3579" y="4.10352" width="131.032" height="126.897" filterUnits="userSpaceOnUse" color-interpolation-filters="sRGB">
<feFlood flood-opacity="0" result="BackgroundImageFix"/>
<feColorMatrix in="SourceAlpha" type="matrix" values="0 0 0 0 0 0 0 0 0 0 0 0 0 0 0 0 0 0 127 0"/>
<feOffset dy="4"/>
<feGaussianBlur stdDeviation="10"/>
<feColorMatrix type="matrix" values="0 0 0 0 1 0 0 0 0 0.805244 0 0 0 0 0.10917 0 0 0 0.66 0"/>
<feBlend mode="normal" in2="BackgroundImageFix" result="effect1_dropShadow"/>
<feBlend mode="normal" in="SourceGraphic" in2="effect1_dropShadow" result="shape"/>
</filter>
<linearGradient id="paint0_linear" x1="179.389" y1="20.1035" x2="117.447" y2="95.9984" gradientUnits="userSpaceOnUse">
<stop stop-color="#FFDA54"/>
<stop offset="1" stop-color="#FFCD1C"/>
</linearGradient>
<linearGradient id="paint1_linear" x1="80.6105" y1="86.7241" x2="57.8382" y2="114.248" gradientUnits="userSpaceOnUse">
<stop stop-color="#FFDA54"/>
<stop offset="1" stop-color="#FFCD1C"/>
</linearGradient>
<linearGradient id="paint2_linear" x1="80.6105" y1="0.792969" x2="57.8382" y2="28.3169" gradientUnits="userSpaceOnUse">
<stop stop-color="#FFDA54"/>
<stop offset="1" stop-color="#FFCD1C"/>
</linearGradient>
<linearGradient id="paint3_linear" x1="33.158" y1="44.2412" x2="10.3857" y2="71.7652" gradientUnits="userSpaceOnUse">
<stop stop-color="#FFDA54"/>
<stop offset="1" stop-color="#FFCD1C"/>
</linearGradient>
<linearGradient id="paint4_linear" x1="182.295" y1="86.7241" x2="205.067" y2="114.248" gradientUnits="userSpaceOnUse">
<stop stop-color="#FFDA54"/>
<stop offset="1" stop-color="#FFCD1C"/>
</linearGradient>
<linearGradient id="paint5_linear" x1="182.295" y1="0.792969" x2="205.067" y2="28.3169" gradientUnits="userSpaceOnUse">
<stop stop-color="#FFDA54"/>
<stop offset="1" stop-color="#FFCD1C"/>
</linearGradient>
<linearGradient id="paint6_linear" x1="229.747" y1="44.2412" x2="252.52" y2="71.7652" gradientUnits="userSpaceOnUse">
<stop stop-color="#FFDA54"/>
<stop offset="1" stop-color="#FFCD1C"/>
</linearGradient>
</defs>
</svg>
